Gidole-Rounded-Regular.ufo
<glyph name="exclam" format="1">
  <advance width="500"/>
  <unicode hex="0021"/>
  <outline>
    <contour>
      <point x="360.0" y="61.3333333333"/>
      <point x="349.833333333" y="34.8333333333"/>
      <point x="329.5" y="14.5" type="curve" smooth="yes"/>
      <point x="309.166666667" y="-5.83333333333"/>
      <point x="282.666666667" y="-16.0"/>
      <point x="250.0" y="-16.0" type="curve" smooth="yes"/>
      <point x="217.333333333" y="-16.0"/>
      <point x="190.833333333" y="-5.83333333333"/>
      <point x="170.5" y="14.5" type="curve" smooth="yes"/>
      <point x="150.166666667" y="34.8333333333"/>
      <point x="140.0" y="61.3333333333"/>
      <point x="140.0" y="94.0" type="curve" smooth="yes"/>
      <point x="140.0" y="126.666666667"/>
      <point x="150.166666667" y="153.166666667"/>
      <point x="170.5" y="173.5" type="curve" smooth="yes"/>
      <point x="190.833333333" y="193.833333333"/>
      <point x="217.333333333" y="204.0"/>
      <point x="250.0" y="204.0" type="curve" smooth="yes"/>
      <point x="282.666666667" y="204.0"/>
      <point x="309.166666667" y="193.833333333"/>
      <point x="329.5" y="173.5" type="curve" smooth="yes"/>
      <point x="349.833333333" y="153.166666667"/>
      <point x="360.0" y="126.666666667"/>
      <point x="360.0" y="94.0" type="curve" smooth="yes"/>
    </contour>
    <contour>
      <point x="251.0" y="1416.0" type="line" smooth="yes"/>
      <point x="293.341099407" y="1416.0"/>
      <point x="328.0" y="1381.34109941"/>
      <point x="328.0" y="1339.0" type="curve" smooth="yes"/>
      <point x="328" y="1051" type="line" smooth="yes"/>
      <point x="328.0" y="980.333333333"/>
      <point x="326.333333333" y="889.666666667"/>
      <point x="323.0" y="779.0" type="curve" smooth="yes"/>
      <point x="319.666666667" y="668.333333333"/>
      <point x="316.333333333" y="575.333333333"/>
      <point x="313" y="500" type="curve" smooth="yes"/>
      <point x="310.45883606" y="443.077927735" type="line" smooth="yes"/>
      <point x="309.090737982" y="412.43253079"/>
      <point x="283.543134499" y="388.0"/>
      <point x="252.86721485" y="388.0" type="curve" smooth="yes"/>
      <point x="248.853295453" y="388.0" type="line" smooth="yes"/>
      <point x="217.224329962" y="388.0"/>
      <point x="190.796314318" y="413.253204185"/>
      <point x="189.359085083" y="444.849498749" type="curve" smooth="yes"/>
      <point x="183.997299194" y="562.723921458"/>
      <point x="179.877604167" y="669.357421875"/>
      <point x="177.0" y="764.75" type="curve" smooth="yes"/>
      <point x="173.666666667" y="875.25"/>
      <point x="172.0" y="970.666666667"/>
      <point x="172" y="1051" type="curve" smooth="yes"/>
      <point x="172.0" y="1339.0" type="line" smooth="yes"/>
      <point x="172.0" y="1381.34109941"/>
      <point x="206.658900593" y="1416.0"/>
      <point x="249.0" y="1416.0" type="curve" smooth="yes"/>
    </contour>
  </outline>
</glyph>
<glyph name="numbersign" format="1">
  <advance width="1270"/>
  <unicode hex="0023"/>
  <outline>
    <contour>
      <point x="530.052391307" y="997.0" type="line" smooth="yes"/>
      <point x="522.199492092" y="997.0"/>
      <point x="515.206287997" y="990.851526738"/>
      <point x="514.200892672" y="983.063253096" type="curve" smooth="yes"/>
      <point x="447.327420747" y="465.029315642" type="line" smooth="yes"/>
      <point x="446.112035536" y="455.614359786"/>
      <point x="453.68584006" y="447.0"/>
      <point x="463.178919381" y="447.0" type="curve" smooth="yes"/>
      <point x="739.947608693" y="447.0" type="line" smooth="yes"/>
      <point x="747.800507908" y="447.0"/>
      <point x="754.793712003" y="453.148473262"/>
      <point x="755.799107328" y="460.936746904" type="curve" smooth="yes"/>
      <point x="822.672579253" y="978.970684358" type="line" smooth="yes"/>
      <point x="823.887964464" y="988.385640214"/>
      <point x="816.31415994" y="997.0"/>
      <point x="806.821080619" y="997.0" type="curve" smooth="yes"/>
    </contour>
    <contour>
      <point x="772.80337019" y="-9.65062950648e-15" type="line" smooth="yes"/>
      <point x="731.238043642" y="-4.56034509532e-15"/>
      <point x="698.914032697" y="36.9123851433"/>
      <point x="704.39910532" y="78.1142097303" type="curve" smooth="yes"/>
      <point x="734.591441506" y="304.907804803" type="line" smooth="yes"/>
      <point x="735.847973011" y="314.346401916"/>
      <point x="728.270055786" y="323.0"/>
      <point x="718.74818691" y="323.0" type="curve" smooth="yes"/>
      <point x="441.99626916" y="323.0" type="line" smooth="yes"/>
      <point x="434.169039858" y="323.0"/>
      <point x="427.185916858" y="316.884910351"/>
      <point x="426.153014564" y="309.126132652" type="curve" smooth="yes"/>
      <point x="392.943709664" y="59.6701911954" type="line" smooth="yes"/>
      <point x="388.430143813" y="25.7659639901"/>
      <point x="359.006716504" y="3.1832591433e-15"/>
      <point x="324.80337019" y="7.37196100167e-15" type="curve" smooth="yes"/>
      <point x="322.80337019" y="-9.65062950648e-15" type="line" smooth="yes"/>
      <point x="281.238043642" y="-4.56034509532e-15"/>
      <point x="248.914032697" y="36.9123851433"/>
      <point x="254.39910532" y="78.1142097303" type="curve" smooth="yes"/>
      <point x="284.591441506" y="304.907804803" type="line" smooth="yes"/>
      <point x="285.847973011" y="314.346401916"/>
      <point x="278.270055786" y="323.0"/>
      <point x="268.74818691" y="323.0" type="curve" smooth="yes"/>
      <point x="187.0" y="323.0" type="line" smooth="yes"/>
      <point x="153.457051119" y="323.0"/>
      <point x="126.0" y="350.457051119"/>
      <point x="126.0" y="384.0" type="curve" smooth="yes"/>
      <point x="126.0" y="386.0" type="line" smooth="yes"/>
      <point x="126.0" y="419.542948881"/>
      <point x="153.457051119" y="447.0"/>
      <point x="187.0" y="447.0" type="curve" smooth="yes"/>
      <point x="289.947608693" y="447.0" type="line" smooth="yes"/>
      <point x="297.800507908" y="447.0"/>
      <point x="304.793712003" y="453.148473262"/>
      <point x="305.799107328" y="460.936746904" type="curve" smooth="yes"/>
      <point x="372.672579253" y="978.970684358" type="line" smooth="yes"/>
      <point x="373.887964464" y="988.385640214"/>
      <point x="366.31415994" y="997.0"/>
      <point x="356.821080619" y="997.0" type="curve" smooth="yes"/>
      <point x="275.0" y="997.0" type="line" smooth="yes"/>
      <point x="241.457051119" y="997.0"/>
      <point x="214.0" y="1024.45705112"/>
      <point x="214.0" y="1058.0" type="curve" smooth="yes"/>
      <point x="214.0" y="1060.0" type="line" smooth="yes"/>
      <point x="214.0" y="1093.54294888"/>
      <point x="241.457051119" y="1121.0"/>
      <point x="275.0" y="1121.0" type="curve" smooth="yes"/>
      <point x="377.990911057" y="1121.0" type="line" smooth="yes"/>
      <point x="385.824010012" y="1121.0"/>
      <point x="392.80944383" y="1127.12271615"/>
      <point x="393.836073346" y="1134.88824711" type="curve" smooth="yes"/>
      <point x="423.102135508" y="1356.25974295" type="line" smooth="yes"/>
      <point x="427.588743619" y="1390.19690686"/>
      <point x="457.027606222" y="1416.0"/>
      <point x="491.260057886" y="1416.0" type="curve" smooth="yes"/>
      <point x="493.260057886" y="1416.0" type="line" smooth="yes"/>
      <point x="534.803824515" y="1416.0"/>
      <point x="567.124957328" y="1379.12467723"/>
      <point x="561.68010628" y="1337.93926545" type="curve" smooth="yes"/>
      <point x="535.389948482" y="1139.07781544" type="line" smooth="yes"/>
      <point x="534.142847263" y="1129.64461391"/>
      <point x="541.719830819" y="1121.0"/>
      <point x="551.235110771" y="1121.0" type="curve" smooth="yes"/>
      <point x="827.990911057" y="1121.0" type="line" smooth="yes"/>
      <point x="835.824010012" y="1121.0"/>
      <point x="842.80944383" y="1127.12271615"/>
      <point x="843.836073346" y="1134.88824711" type="curve" smooth="yes"/>
      <point x="873.102135508" y="1356.25974295" type="line" smooth="yes"/>
      <point x="877.588743619" y="1390.19690686"/>
      <point x="907.027606222" y="1416.0"/>
      <point x="941.260057886" y="1416.0" type="curve" smooth="yes"/>
      <point x="943.260057886" y="1416.0" type="line" smooth="yes"/>
      <point x="984.803824515" y="1416.0"/>
      <point x="1017.12495733" y="1379.12467723"/>
      <point x="1011.68010628" y="1337.93926545" type="curve" smooth="yes"/>
      <point x="985.389948482" y="1139.07781544" type="line" smooth="yes"/>
      <point x="984.142847263" y="1129.64461391"/>
      <point x="991.719830819" y="1121.0"/>
      <point x="1001.23511077" y="1121.0" type="curve" smooth="yes"/>
      <point x="1083.0" y="1121.0" type="line" smooth="yes"/>
      <point x="1116.54294888" y="1121.0"/>
      <point x="1144.0" y="1093.54294888"/>
      <point x="1144.0" y="1060.0" type="curve" smooth="yes"/>
      <point x="1144.0" y="1058.0" type="line" smooth="yes"/>
      <point x="1144.0" y="1024.45705112"/>
      <point x="1116.54294888" y="997.0"/>
      <point x="1083.0" y="997.0" type="curve" smooth="yes"/>
      <point x="980.052391307" y="997.0" type="line" smooth="yes"/>
      <point x="972.199492092" y="997.0"/>
      <point x="965.206287997" y="990.851526738"/>
      <point x="964.200892672" y="983.063253096" type="curve" smooth="yes"/>
      <point x="897.327420747" y="465.029315642" type="line" smooth="yes"/>
      <point x="896.112035536" y="455.614359786"/>
      <point x="903.68584006" y="447.0"/>
      <point x="913.178919381" y="447.0" type="curve" smooth="yes"/>
      <point x="995.0" y="447.0" type="line" smooth="yes"/>
      <point x="1028.54294888" y="447.0"/>
      <point x="1056.0" y="419.542948881"/>
      <point x="1056.0" y="386.0" type="curve" smooth="yes"/>
      <point x="1056.0" y="384.0" type="line" smooth="yes"/>
      <point x="1056.0" y="350.457051119"/>
      <point x="1028.54294888" y="323.0"/>
      <point x="995.0" y="323.0" type="curve" smooth="yes"/>
      <point x="891.99626916" y="323.0" type="line" smooth="yes"/>
      <point x="884.169039858" y="323.0"/>
      <point x="877.185916858" y="316.884910351"/>
      <point x="876.153014564" y="309.126132652" type="curve" smooth="yes"/>
      <point x="842.943709664" y="59.6701911954" type="line" smooth="yes"/>
      <point x="838.430143813" y="25.7659639901"/>
      <point x="809.006716504" y="3.1832591433e-15"/>
      <point x="774.80337019" y="7.37196100167e-15" type="curve" smooth="yes"/>
    </contour>
  </outline>
</glyph>
<glyph name="dollar" format="1">
  <advance width="1095"/>
  <unicode hex="0024"/>
  <outline>
    <contour>
      <point x="545.0" y="1616.0" type="line" smooth="yes"/>
      <point x="573.548948739" y="1616.0"/>
      <point x="597.0" y="1592.54894874"/>
      <point x="597.0" y="1564.0" type="curve" smooth="yes"/>
      <point x="597.0" y="1447.85413492" type="line" smooth="yes"/>
      <point x="597.0" y="1439.51082505"/>
      <point x="603.312257429" y="1432.47465471"/>
      <point x="611.606633902" y="1431.57235849" type="curve" smooth="yes"/>
      <point x="664.35048604" y="1425.83466637"/>
      <point x="716.814941406" y="1413.81054688"/>
      <point x="769.0" y="1395.5" type="curve" smooth="yes"/>
      <point x="805.821777344" y="1382.58007812"/>
      <point x="842.504451036" y="1366.5303241"/>
      <point x="879.048021078" y="1347.35073793" type="curve" smooth="yes"/>
      <point x="910.494447112" y="1330.84634503"/>
      <point x="923.022098627" y="1286.29720592"/>
      <point x="904.786838239" y="1255.82183925" type="curve" smooth="yes"/>
      <point x="904.050827001" y="1254.59179307" type="line" smooth="yes"/>
      <point x="882.474126207" y="1218.53210133"/>
      <point x="841.501075223" y="1206.75194132"/>
      <point x="804.06725955" y="1225.84552217" type="curve" smooth="yes"/>
      <point x="778.680460215" y="1238.79437327"/>
      <point x="753.574707031" y="1249.92919922"/>
      <point x="728.75" y="1259.25" type="curve" smooth="yes"/>
      <point x="690.09000651" y="1273.76546224"/>
      <point x="652.11161828" y="1283.88147235"/>
      <point x="614.81483531" y="1289.59803033" type="curve" smooth="yes"/>
      <point x="605.840291936" y="1290.97357785"/>
      <point x="597.0" y="1283.38501962"/>
      <point x="597.0" y="1274.30567164" type="curve" smooth="yes"/>
      <point x="597.0" y="804.100691372" type="line" smooth="yes"/>
      <point x="597.0" y="796.606138498"/>
      <point x="602.403582149" y="789.896011022"/>
      <point x="609.725770712" y="788.297925472" type="curve" smooth="yes"/>
      <point x="665.694072008" y="776.082706928"/>
      <point x="714.452148438" y="760.983398438"/>
      <point x="756.0" y="743.0" type="curve" smooth="yes"/>
      <point x="800.666666667" y="723.666666667"/>
      <point x="842.666666667" y="694.0"/>
      <point x="882" y="654" type="curve" smooth="yes"/>
      <point x="917.666666667" y="617.666666667"/>
      <point x="944.416666667" y="577.416666667"/>
      <point x="962.25" y="533.25" type="curve" smooth="yes"/>
      <point x="980.083333333" y="489.083333333"/>
      <point x="989.0" y="441.0"/>
      <point x="989" y="389" type="curve" smooth="yes"/>
      <point x="989.0" y="334.0"/>
      <point x="979.666666667" y="283.25"/>
      <point x="961.0" y="236.75" type="curve" smooth="yes"/>
      <point x="942.333333333" y="190.25"/>
      <point x="914.333333333" y="148.0"/>
      <point x="877" y="110" type="curve" smooth="yes"/>
      <point x="841.666666667" y="74.0"/>
      <point x="800.666666667" y="45.5"/>
      <point x="754.0" y="24.5" type="curve" smooth="yes"/>
      <point x="711.20703125" y="5.2431640625"/>
      <point x="663.649106026" y="-7.70711183548"/>
      <point x="611.326224327" y="-14.3508276939" type="curve" smooth="yes"/>
      <point x="603.153521287" y="-15.388559467"/>
      <point x="597.0" y="-22.3728336863"/>
      <point x="597.0" y="-30.6111564656" type="curve" smooth="yes"/>
      <point x="597.0" y="-148.0" type="line" smooth="yes"/>
      <point x="597.0" y="-176.548948739"/>
      <point x="573.548948739" y="-200.0"/>
      <point x="545.0" y="-200.0" type="curve" smooth="yes"/>
      <point x="543.0" y="-200.0" type="line" smooth="yes"/>
      <point x="514.451051261" y="-200.0"/>
      <point x="491.0" y="-176.548948739"/>
      <point x="491.0" y="-148.0" type="curve" smooth="yes"/>
      <point x="491.0" y="-31.9126942339" type="line" smooth="yes"/>
      <point x="491.0" y="-23.6026335996"/>
      <point x="484.584226611" y="-16.5114484238"/>
      <point x="476.315620482" y="-15.6824367046" type="curve" smooth="yes"/>
      <point x="413.982241333" y="-9.43288254738"/>
      <point x="352.293701172" y="5.1279296875"/>
      <point x="291.25" y="28.0" type="curve" smooth="yes"/>
      <point x="244.768066406" y="45.416015625"/>
      <point x="198.660017729" y="67.6509923935"/>
      <point x="152.925853968" y="94.7049303055" type="curve" smooth="yes"/>
      <point x="122.674189251" y="112.600232016"/>
      <point x="111.926748136" y="156.566622007"/>
      <point x="130.511343865" y="186.399788835" type="curve" smooth="yes"/>
      <point x="131.121859143" y="187.379826518" type="line" smooth="yes"/>
      <point x="154.063135112" y="224.206611627"/>
      <point x="197.057376317" y="234.862146373"/>
      <point x="234.541200936" y="213.010896146" type="curve" smooth="yes"/>
      <point x="267.204081953" y="193.970022023"/>
      <point x="299.773681641" y="177.883056641"/>
      <point x="332.25" y="164.75" type="curve" smooth="yes"/>
      <point x="379.471761068" y="145.654052734"/>
      <point x="426.496304611" y="132.803327064"/>
      <point x="473.323630631" y="126.197822988" type="curve" smooth="yes"/>
      <point x="482.303776766" y="124.931075622"/>
      <point x="491.0" y="132.486695219"/>
      <point x="491.0" y="141.555745528" type="curve" smooth="yes"/>
      <point x="491.0" y="657.02615099" type="line" smooth="yes"/>
      <point x="491.0" y="664.467298341"/>
      <point x="485.702153915" y="671.129092525"/>
      <point x="478.452087402" y="672.80456543" type="curve" smooth="yes"/>
      <point x="429.523091634" y="684.111938477"/>
      <point x="385.622395833" y="698.677083333"/>
      <point x="346.75" y="716.5" type="curve" smooth="yes"/>
      <point x="304.583333333" y="735.833333333"/>
      <point x="268.333333333" y="759.0"/>
      <point x="238" y="786" type="curve" smooth="yes"/>
      <point x="202.666666667" y="817.333333333"/>
      <point x="173.833333333" y="856.5"/>
      <point x="151.5" y="903.5" type="curve" smooth="yes"/>
      <point x="129.166666667" y="950.5"/>
      <point x="118.0" y="1000.0"/>
      <point x="118" y="1052" type="curve" smooth="yes"/>
      <point x="118.0" y="1109.33333333"/>
      <point x="128.75" y="1161.58333333"/>
      <point x="150.25" y="1208.75" type="curve" smooth="yes"/>
      <point x="171.75" y="1255.91666667"/>
      <point x="204.0" y="1298.0"/>
      <point x="247" y="1335" type="curve" smooth="yes"/>
      <point x="280.0" y="1363.33333333"/>
      <point x="316.833333333" y="1385.66666667"/>
      <point x="357.5" y="1402.0" type="curve" smooth="yes"/>
      <point x="394.056315104" y="1416.68245443"/>
      <point x="433.710222522" y="1426.51650349"/>
      <point x="476.461722255" y="1431.5021472" type="curve" smooth="yes"/>
      <point x="484.756469015" y="1432.46947354"/>
      <point x="491.0" y="1439.48343254"/>
      <point x="491.0" y="1447.83439321" type="curve" smooth="yes"/>
      <point x="491.0" y="1564.0" type="line" smooth="yes"/>
      <point x="491.0" y="1592.54894874"/>
      <point x="514.451051261" y="1616.0"/>
      <point x="543.0" y="1616.0" type="curve" smooth="yes"/>
    </contour>
    <contour>
      <point x="597.0" y="143.212898867" type="line" smooth="yes"/>
      <point x="597.0" y="133.868843132"/>
      <point x="606.16091466" y="126.365716562"/>
      <point x="615.321829319" y="128.206645727" type="curve" smooth="yes"/>
      <point x="641.476742586" y="133.462599357"/>
      <point x="665.536132812" y="141.310384115"/>
      <point x="687.5" y="151.75" type="curve" smooth="yes"/>
      <point x="714.5" y="164.583333333"/>
      <point x="738.333333333" y="181.333333333"/>
      <point x="759" y="202" type="curve" smooth="yes"/>
      <point x="783.666666667" y="226.666666667"/>
      <point x="802.166666667" y="254.583333333"/>
      <point x="814.5" y="285.75" type="curve" smooth="yes"/>
      <point x="826.833333333" y="316.916666667"/>
      <point x="833.0" y="351.333333333"/>
      <point x="833" y="389" type="curve" smooth="yes"/>
      <point x="833.0" y="423.0"/>
      <point x="826.5" y="455.666666667"/>
      <point x="813.5" y="487.0" type="curve" smooth="yes"/>
      <point x="800.5" y="518.333333333"/>
      <point x="783.333333333" y="544.333333333"/>
      <point x="762" y="565" type="curve" smooth="yes"/>
      <point x="743.333333333" y="583.333333333"/>
      <point x="720.25" y="599.333333333"/>
      <point x="692.75" y="613.0" type="curve" smooth="yes"/>
      <point x="670.352539062" y="624.130859375"/>
      <point x="645.025353432" y="633.713939667"/>
      <point x="616.768443108" y="641.749240875" type="curve" smooth="yes"/>
      <point x="606.939997524" y="644.544115466"/>
      <point x="597.0" y="637.036632243"/>
      <point x="597.0" y="626.818527401" type="curve" smooth="yes"/>
    </contour>
    <contour>
      <point x="491.0" y="1274.01544481" type="line" smooth="yes"/>
      <point x="491.0" y="1283.27072582"/>
      <point x="481.927083969" y="1290.69777782"/>
      <point x="472.854167938" y="1288.8695488" type="curve" smooth="yes"/>
      <point x="452.126519521" y="1284.69284439"/>
      <point x="432.758463542" y="1278.65299479"/>
      <point x="414.75" y="1270.75" type="curve" smooth="yes"/>
      <point x="391.583333333" y="1260.58333333"/>
      <point x="370.666666667" y="1247.33333333"/>
      <point x="352" y="1231" type="curve" smooth="yes"/>
      <point x="326.0" y="1208.33333333"/>
      <point x="306.5" y="1182.16666667"/>
      <point x="293.5" y="1152.5" type="curve" smooth="yes"/>
      <point x="280.5" y="1122.83333333"/>
      <point x="274.0" y="1089.66666667"/>
      <point x="274" y="1053" type="curve" smooth="yes"/>
      <point x="274.0" y="1021.0"/>
      <point x="279.75" y="991.416666667"/>
      <point x="291.25" y="964.25" type="curve" smooth="yes"/>
      <point x="302.75" y="937.083333333"/>
      <point x="320.0" y="912.333333333"/>
      <point x="343" y="890" type="curve" smooth="yes"/>
      <point x="360.333333333" y="873.333333333"/>
      <point x="381.333333333" y="858.666666667"/>
      <point x="406.0" y="846.0" type="curve" smooth="yes"/>
      <point x="425.391276042" y="836.042317708"/>
      <point x="447.048569679" y="827.320645014"/>
      <point x="470.971880913" y="819.834981918" type="curve" smooth="yes"/>
      <point x="480.820387149" y="816.753360024"/>
      <point x="491.0" y="824.234444675"/>
      <point x="491.0" y="834.553818134" type="curve" smooth="yes"/>
    </contour>
  </outline>
</glyph>
<glyph name="ampersand" format="1">
  <advance width="1395"/>
  <unicode hex="0026"/>
  <outline>
    <contour>
      <point x="912.0" y="1289.5"/>
      <point x="942.0" y="1216.0"/>
      <point x="942" y="1126" type="curve" smooth="yes"/>
      <point x="942.0" y="1105.33333333"/>
      <point x="940.666666667" y="1085.66666667"/>
      <point x="938.0" y="1067.0" type="curve" smooth="yes"/>
      <point x="935.333333333" y="1048.33333333"/>
      <point x="930.333333333" y="1030.66666667"/>
      <point x="923.0" y="1014.0" type="curve" smooth="yes"/>
      <point x="915.666666667" y="997.333333333"/>
      <point x="909.166666667" y="982.5"/>
      <point x="903.5" y="969.5" type="curve" smooth="yes"/>
      <point x="897.833333333" y="956.5"/>
      <point x="888.833333333" y="943.0"/>
      <point x="876.5" y="929.0" type="curve" smooth="yes"/>
      <point x="864.166666667" y="915.0"/>
      <point x="855.0" y="904.166666667"/>
      <point x="849.0" y="896.5" type="curve" smooth="yes"/>
      <point x="843.0" y="888.833333333"/>
      <point x="832.5" y="879.0"/>
      <point x="817.5" y="867.0" type="curve" smooth="yes"/>
      <point x="802.5" y="855.0"/>
      <point x="792.833333333" y="847.333333333"/>
      <point x="788.5" y="844.0" type="curve" smooth="yes"/>
      <point x="784.166666667" y="840.666666667"/>
      <point x="774.166666667" y="833.5"/>
      <point x="758.5" y="822.5" type="curve" smooth="yes"/>
      <point x="750.666666667" y="817.0"/>
      <point x="744.708333333" y="812.875"/>
      <point x="735.90625" y="807.03125" type="curve" smooth="yes"/>
      <point x="686.498888532" y="772.448551387" type="line" smooth="yes"/>
      <point x="679.244153722" y="767.370597414"/>
      <point x="677.558613891" y="756.891758285"/>
      <point x="682.855013748" y="749.794932074" type="curve" smooth="yes"/>
      <point x="964.360560294" y="372.596080926" type="line" smooth="yes"/>
      <point x="970.312347252" y="364.62107926"/>
      <point x="982.370301727" y="364.060417748"/>
      <point x="989.036439837" y="371.448720819" type="curve" smooth="yes"/>
      <point x="1048.76167139" y="437.644185788" type="line" smooth="yes"/>
      <point x="1074.72400033" y="466.419100368"/>
      <point x="1119.54099384" y="468.679854635"/>
      <point x="1148.26721283" y="442.663656303" type="curve" smooth="yes"/>
      <point x="1149.74962158" y="441.321097438" type="line" smooth="yes"/>
      <point x="1178.46908287" y="415.31101929"/>
      <point x="1180.65239123" y="370.502272362"/>
      <point x="1154.59765566" y="341.82331882" type="curve" smooth="yes"/>
      <point x="1070.93019538" y="249.728920099" type="line" smooth="yes"/>
      <point x="1066.45368801" y="244.801541477"/>
      <point x="1066.0952577" y="236.901334581"/>
      <point x="1070.10718463" y="231.58883793" type="curve" smooth="yes"/>
      <point x="1158.24115481" y="114.883965328" type="line" smooth="yes"/>
      <point x="1194.0349938" y="67.4866290857"/>
      <point x="1160.43122939" y="1.03566874232e-14"/>
      <point x="1101.0367314" y="1.76304156092e-14" type="curve" smooth="yes"/>
      <point x="1096.12992506" y="-3.93478098789e-15" type="line" smooth="yes"/>
      <point x="1076.56632851" y="-1.53893139913e-15"/>
      <point x="1056.44812534" y="10.0439932999"/>
      <point x="1044.69116475" y="25.6807508778" type="curve" smooth="yes"/>
      <point x="975.157388807" y="118.160672887" type="line" smooth="yes"/>
      <point x="969.260670833" y="126.003307792"/>
      <point x="957.959308226" y="127.009157926"/>
      <point x="950.770219803" y="120.331193209" type="curve" smooth="yes"/>
      <point x="904.070867538" y="76.9520318508"/>
      <point x="853.480794271" y="43.9249674479"/>
      <point x="799.0" y="21.25" type="curve" smooth="yes"/>
      <point x="739.333333333" y="-3.58333333333"/>
      <point x="675.0" y="-16.0"/>
      <point x="606" y="-16" type="curve" smooth="yes"/>
      <point x="478.0" y="-16.0"/>
      <point x="375.0" y="21.1666666667"/>
      <point x="297.0" y="95.5" type="curve" smooth="yes"/>
      <point x="219.0" y="169.833333333"/>
      <point x="180.0" y="262.0"/>
      <point x="180" y="372" type="curve" smooth="yes"/>
      <point x="180.0" y="411.333333333"/>
      <point x="185.666666667" y="449.166666667"/>
      <point x="197.0" y="485.5" type="curve" smooth="yes"/>
      <point x="208.333333333" y="521.833333333"/>
      <point x="221.833333333" y="552.5"/>
      <point x="237.5" y="577.5" type="curve" smooth="yes"/>
      <point x="253.166666667" y="602.5"/>
      <point x="271.833333333" y="626.333333333"/>
      <point x="293.5" y="649.0" type="curve" smooth="yes"/>
      <point x="315.166666667" y="671.666666667"/>
      <point x="334.0" y="689.333333333"/>
      <point x="350.0" y="702.0" type="curve" smooth="yes"/>
      <point x="358.0" y="708.333333333"/>
      <point x="366.083333333" y="714.583333333"/>
      <point x="374.25" y="720.75" type="curve" smooth="yes"/>
      <point x="382.416666667" y="726.916666667"/>
      <point x="390.666666667" y="733.0"/>
      <point x="406.0078125" y="743.671875" type="curve" smooth="yes"/>
      <point x="458.731704495" y="781.484274397" type="line" smooth="yes"/>
      <point x="465.877237054" y="786.608890976"/>
      <point x="467.47924528" y="797.02767296"/>
      <point x="462.203326494" y="804.062231341" type="curve" smooth="yes"/>
      <point x="421.210637217" y="858.719150378" type="line" smooth="yes"/>
      <point x="421.122364063" y="858.836847916"/>
      <point x="420.935990767" y="859.06418679"/>
      <point x="420.837890625" y="859.173828125" type="curve" smooth="yes"/>
      <point x="419.841796875" y="860.287109375"/>
      <point x="416.0625" y="865.0625"/>
      <point x="409.5" y="873.5" type="curve" smooth="yes"/>
      <point x="402.5" y="882.5"/>
      <point x="397.166666667" y="889.666666667"/>
      <point x="393.5" y="895.0" type="curve" smooth="yes"/>
      <point x="389.833333333" y="900.333333333"/>
      <point x="384.0" y="908.833333333"/>
      <point x="376.0" y="920.5" type="curve" smooth="yes"/>
      <point x="368.0" y="932.166666667"/>
      <point x="361.666666667" y="942.666666667"/>
      <point x="357.0" y="952.0" type="curve" smooth="yes"/>
      <point x="352.333333333" y="961.333333333"/>
      <point x="346.833333333" y="973.333333333"/>
      <point x="340.5" y="988.0" type="curve" smooth="yes"/>
      <point x="334.166666667" y="1002.66666667"/>
      <point x="329.166666667" y="1016.66666667"/>
      <point x="325.5" y="1030.0" type="curve" smooth="yes"/>
      <point x="321.833333333" y="1043.33333333"/>
      <point x="318.666666667" y="1058.5"/>
      <point x="316.0" y="1075.5" type="curve" smooth="yes"/>
      <point x="313.333333333" y="1092.5"/>
      <point x="312.0" y="1109.66666667"/>
      <point x="312" y="1127" type="curve" smooth="yes"/>
      <point x="312.0" y="1217.0"/>
      <point x="341.5" y="1290.33333333"/>
      <point x="400.5" y="1347.0" type="curve" smooth="yes"/>
      <point x="459.5" y="1403.66666667"/>
      <point x="535.0" y="1432.0"/>
      <point x="627" y="1432" type="curve" smooth="yes"/>
      <point x="717.0" y="1432.0"/>
      <point x="792.0" y="1403.5"/>
      <point x="852.0" y="1346.5" type="curve" smooth="yes"/>
    </contour>
    <contour>
      <point x="476.5" y="1219.66666667"/>
      <point x="462.0" y="1178.33333333"/>
      <point x="462" y="1127" type="curve" smooth="yes"/>
      <point x="462.0" y="1114.33333333"/>
      <point x="462.833333333" y="1101.83333333"/>
      <point x="464.5" y="1089.5" type="curve" smooth="yes"/>
      <point x="466.166666667" y="1077.16666667"/>
      <point x="469.166666667" y="1065.33333333"/>
      <point x="473.5" y="1054.0" type="curve" smooth="yes"/>
      <point x="477.833333333" y="1042.66666667"/>
      <point x="481.666666667" y="1033.0"/>
      <point x="485.0" y="1025.0" type="curve" smooth="yes"/>
      <point x="488.333333333" y="1017.0"/>
      <point x="493.5" y="1007.5"/>
      <point x="500.5" y="996.5" type="curve" smooth="yes"/>
      <point x="507.5" y="985.5"/>
      <point x="512.5" y="977.666666667"/>
      <point x="515.5" y="973.0" type="curve" smooth="yes"/>
      <point x="518.5" y="968.333333333"/>
      <point x="524.333333333" y="960.5"/>
      <point x="533.0" y="949.5" type="curve" smooth="yes"/>
      <point x="537.333333333" y="944.0"/>
      <point x="540.75" y="939.625"/>
      <point x="546.3125" y="932.34375" type="curve" smooth="yes"/>
      <point x="580.666938243" y="886.464110373" type="line" smooth="yes"/>
      <point x="585.775040103" y="879.6423463"/>
      <point x="595.750708357" y="878.076237394"/>
      <point x="602.703485371" y="883.004529337" type="curve" smooth="yes"/>
      <point x="653.75" y="919.1875" type="line" smooth="yes"/>
      <point x="657.666666667" y="921.916666667"/>
      <point x="659.666666667" y="923.333333333"/>
      <point x="662" y="925" type="curve" smooth="yes"/>
      <point x="682.0" y="939.0"/>
      <point x="697.333333333" y="950.5"/>
      <point x="708.0" y="959.5" type="curve" smooth="yes"/>
      <point x="718.666666667" y="968.5"/>
      <point x="731.666666667" y="981.333333333"/>
      <point x="747.0" y="998.0" type="curve" smooth="yes"/>
      <point x="762.333333333" y="1014.66666667"/>
      <point x="773.666666667" y="1033.66666667"/>
      <point x="781.0" y="1055.0" type="curve" smooth="yes"/>
      <point x="788.333333333" y="1076.33333333"/>
      <point x="792.0" y="1100.0"/>
      <point x="792" y="1126" type="curve" smooth="yes"/>
      <point x="792.0" y="1176.66666667"/>
      <point x="777.0" y="1218.0"/>
      <point x="747.0" y="1250.0" type="curve" smooth="yes"/>
      <point x="717.0" y="1282.0"/>
      <point x="677.0" y="1298.0"/>
      <point x="627" y="1298" type="curve" smooth="yes"/>
      <point x="575.0" y="1298.0"/>
      <point x="534.5" y="1282.33333333"/>
      <point x="505.5" y="1251.0" type="curve" smooth="yes"/>
    </contour>
    <contour>
      <point x="450.833333333" y="143.166666667"/>
      <point x="518.666666667" y="118.0"/>
      <point x="606" y="118" type="curve" smooth="yes"/>
      <point x="664.666666667" y="118.0"/>
      <point x="715.166666667" y="129.333333333"/>
      <point x="757.5" y="152.0" type="curve" smooth="yes"/>
      <point x="796.526041667" y="172.895833333"/>
      <point x="833.427449544" y="202.006917318"/>
      <point x="868.204223633" y="239.333251953" type="curve" smooth="yes"/>
      <point x="873.139244013" y="244.630069354"/>
      <point x="873.616539099" y="253.518286296"/>
      <point x="869.277138642" y="259.313137838" type="curve" smooth="yes"/>
      <point x="564.416242201" y="666.425515073" type="line" smooth="yes"/>
      <point x="559.302523823" y="673.254393652"/>
      <point x="549.180943394" y="674.797348007"/>
      <point x="542.264766302" y="669.802331218" type="curve" smooth="yes"/>
      <point x="501" y="640" type="line"/>
      <point x="479" y="624" type="line" smooth="yes"/>
      <point x="464.333333333" y="613.333333333"/>
      <point x="453.833333333" y="605.166666667"/>
      <point x="447.5" y="599.5" type="curve" smooth="yes"/>
      <point x="441.166666667" y="593.833333333"/>
      <point x="430.833333333" y="584.333333333"/>
      <point x="416.5" y="571.0" type="curve" smooth="yes"/>
      <point x="402.166666667" y="557.666666667"/>
      <point x="391.0" y="544.833333333"/>
      <point x="383.0" y="532.5" type="curve" smooth="yes"/>
      <point x="375.0" y="520.166666667"/>
      <point x="366.333333333" y="505.666666667"/>
      <point x="357.0" y="489.0" type="curve" smooth="yes"/>
      <point x="347.666666667" y="472.333333333"/>
      <point x="340.833333333" y="454.0"/>
      <point x="336.5" y="434.0" type="curve" smooth="yes"/>
      <point x="332.166666667" y="414.0"/>
      <point x="330.0" y="393.333333333"/>
      <point x="330" y="372" type="curve" smooth="yes"/>
      <point x="330.0" y="303.333333333"/>
      <point x="354.166666667" y="243.833333333"/>
      <point x="402.5" y="193.5" type="curve" smooth="yes"/>
    </contour>
  </outline>
</glyph>
<glyph name="quotesingle" format="1">
  <advance width="440"/>
  <unicode hex="0027"/>
  <outline>
    <contour>
      <point x="166.666666667" y="1420.66666667"/>
      <point x="190.666666667" y="1430.0"/>
      <point x="220.0" y="1430.0" type="curve" smooth="yes"/>
      <point x="249.333333333" y="1430.0"/>
      <point x="273.333333333" y="1420.66666667"/>
      <point x="292.0" y="1402.0" type="curve" smooth="yes"/>
      <point x="310.666666667" y="1383.33333333"/>
      <point x="320.0" y="1359.33333333"/>
      <point x="320" y="1330" type="curve" smooth="yes"/>
      <point x="320.0" y="1324.0"/>
      <point x="319.5" y="1316.66666667"/>
      <point x="318.5" y="1308.0" type="curve" smooth="yes"/>
      <point x="317.5" y="1299.33333333"/>
      <point x="316.0" y="1289.33333333"/>
      <point x="314" y="1278" type="curve" smooth="yes"/>
      <point x="276.834679619" y="1053.3562857" type="line" smooth="yes"/>
      <point x="272.352375143" y="1026.26324531"/>
      <point x="248.461316263" y="1006.0"/>
      <point x="221.0" y="1006.0" type="curve" smooth="yes"/>
      <point x="219.0" y="1006.0" type="line" smooth="yes"/>
      <point x="191.538683737" y="1006.0"/>
      <point x="167.647624857" y="1026.26324531"/>
      <point x="163.165320381" y="1053.3562857" type="curve" smooth="yes"/>
      <point x="126" y="1278" type="line" smooth="yes"/>
      <point x="124.0" y="1289.33333333"/>
      <point x="122.5" y="1299.33333333"/>
      <point x="121.5" y="1308.0" type="curve" smooth="yes"/>
      <point x="120.5" y="1316.66666667"/>
      <point x="120.0" y="1324.0"/>
      <point x="120" y="1330" type="curve" smooth="yes"/>
      <point x="120.0" y="1359.33333333"/>
      <point x="129.333333333" y="1383.33333333"/>
      <point x="148.0" y="1402.0" type="curve" smooth="yes"/>
    </contour>
  </outline>
</glyph>
<glyph name="parenleft" format="1">
  <advance width="653"/>
  <unicode hex="0028"/>
  <outline>
    <contour>
      <point x="228.0" y="-150.583333333"/>
      <point x="188.666666667" y="-62.0"/>
      <point x="161" y="36" type="curve" smooth="yes"/>
      <point x="144.0" y="97.3333333333"/>
      <point x="131.25" y="170.083333333"/>
      <point x="122.75" y="254.25" type="curve" smooth="yes"/>
      <point x="114.25" y="338.416666667"/>
      <point x="110.0" y="434.0"/>
      <point x="110" y="541" type="curve" smooth="yes"/>
      <point x="110.0" y="646.666666667"/>
      <point x="114.25" y="741.583333333"/>
      <point x="122.75" y="825.75" type="curve" smooth="yes"/>
      <point x="131.25" y="909.916666667"/>
      <point x="144.0" y="983.333333333"/>
      <point x="161" y="1046" type="curve" smooth="yes"/>
      <point x="188.0" y="1143.33333333"/>
      <point x="227.0" y="1231.58333333"/>
      <point x="278.0" y="1310.75" type="curve" smooth="yes"/>
      <point x="318.852294922" y="1374.16451009"/>
      <point x="367.404289961" y="1431.75077495"/>
      <point x="423.655985117" y="1483.50879459" type="curve" smooth="yes"/>
      <point x="445.640994121" y="1503.73752769"/>
      <point x="483.799226663" y="1501.54826386"/>
      <point x="503.326411694" y="1478.93783909" type="curve" smooth="yes"/>
      <point x="504.425691535" y="1477.66498875" type="line" smooth="yes"/>
      <point x="526.458088394" y="1452.15379239"/>
      <point x="525.667509428" y="1417.41326594"/>
      <point x="502.497421265" y="1392.93072796" type="curve" smooth="yes"/>
      <point x="460.555130005" y="1348.61265151"/>
      <point x="424.055989583" y="1300.55240885"/>
      <point x="393.0" y="1248.75" type="curve" smooth="yes"/>
      <point x="352.333333333" y="1180.91666667"/>
      <point x="321.0" y="1106.66666667"/>
      <point x="299" y="1026" type="curve" smooth="yes"/>
      <point x="266.333333333" y="905.333333333"/>
      <point x="250.0" y="743.666666667"/>
      <point x="250.0" y="541.0" type="curve" smooth="yes"/>
      <point x="250.0" y="338.333333333"/>
      <point x="266.333333333" y="176.666666667"/>
      <point x="299" y="56" type="curve" smooth="yes"/>
      <point x="321.0" y="-24.6666666667"/>
      <point x="352.333333333" y="-98.9166666667"/>
      <point x="393.0" y="-166.75" type="curve" smooth="yes"/>
      <point x="424.055989583" y="-218.552408854"/>
      <point x="460.555130005" y="-266.612651507"/>
      <point x="502.497421265" y="-310.930727959" type="curve" smooth="yes"/>
      <point x="525.667509428" y="-335.413265936"/>
      <point x="526.458088394" y="-370.153792386"/>
      <point x="504.425691535" y="-395.664988749" type="curve" smooth="yes"/>
      <point x="503.291932626" y="-396.977762222" type="line" smooth="yes"/>
      <point x="483.7881605" y="-419.561077316"/>
      <point x="445.611676419" y="-421.747485416"/>
      <point x="423.657145262" y="-401.538531721" type="curve" smooth="yes"/>
      <point x="367.984185139" y="-350.292059402"/>
      <point x="319.765136719" y="-293.029215495"/>
      <point x="279.0" y="-229.75" type="curve" smooth="yes"/>
    </contour>
  </outline>
</glyph>
<glyph name="parenright" format="1">
  <advance width="653"/>
  <unicode hex="0029"/>
  <outline>
    <contour>
      <point x="425.0" y="1232.58333333"/>
      <point x="464.333333333" y="1144.0"/>
      <point x="492" y="1046" type="curve" smooth="yes"/>
      <point x="526.0" y="920.666666667"/>
      <point x="543.0" y="752.333333333"/>
      <point x="543.0" y="541.0" type="curve" smooth="yes"/>
      <point x="543.0" y="329.666666667"/>
      <point x="526.0" y="161.333333333"/>
      <point x="492" y="36" type="curve" smooth="yes"/>
      <point x="464.333333333" y="-62.0"/>
      <point x="425.0" y="-150.583333333"/>
      <point x="374.0" y="-229.75" type="curve" smooth="yes"/>
      <point x="333.234863281" y="-293.029215495"/>
      <point x="285.015814861" y="-350.292059402"/>
      <point x="229.342854738" y="-401.538531721" type="curve" smooth="yes"/>
      <point x="207.388323581" y="-421.747485416"/>
      <point x="169.2118395" y="-419.561077316"/>
      <point x="149.708067374" y="-396.977762222" type="curve" smooth="yes"/>
      <point x="148.574308465" y="-395.664988749" type="line" smooth="yes"/>
      <point x="126.541911606" y="-370.153792386"/>
      <point x="127.332490572" y="-335.413265936"/>
      <point x="150.502578735" y="-310.930727959" type="curve" smooth="yes"/>
      <point x="192.444869995" y="-266.612651507"/>
      <point x="228.944010417" y="-218.552408854"/>
      <point x="260.0" y="-166.75" type="curve" smooth="yes"/>
      <point x="300.666666667" y="-98.9166666667"/>
      <point x="332.0" y="-24.6666666667"/>
      <point x="354" y="56" type="curve" smooth="yes"/>
      <point x="386.666666667" y="176.666666667"/>
      <point x="403.0" y="338.333333333"/>
      <point x="403.0" y="541.0" type="curve" smooth="yes"/>
      <point x="403.0" y="743.666666667"/>
      <point x="386.666666667" y="905.333333333"/>
      <point x="354" y="1026" type="curve" smooth="yes"/>
      <point x="332.0" y="1106.66666667"/>
      <point x="300.666666667" y="1180.91666667"/>
      <point x="260.0" y="1248.75" type="curve" smooth="yes"/>
      <point x="228.944010417" y="1300.55240885"/>
      <point x="192.444869995" y="1348.61265151"/>
      <point x="150.502578735" y="1392.93072796" type="curve" smooth="yes"/>
      <point x="127.332490572" y="1417.41326594"/>
      <point x="126.541911606" y="1452.15379239"/>
      <point x="148.574308465" y="1477.66498875" type="curve" smooth="yes"/>
      <point x="149.708067374" y="1478.97776222" type="line" smooth="yes"/>
      <point x="169.2118395" y="1501.56107732"/>
      <point x="207.388323581" y="1503.74748542"/>
      <point x="229.342854738" y="1483.53853172" type="curve" smooth="yes"/>
      <point x="285.015814861" y="1432.2920594"/>
      <point x="333.234863281" y="1375.02921549"/>
      <point x="374.0" y="1311.75" type="curve" smooth="yes"/>
    </contour>
  </outline>
</glyph>
<glyph name="asterisk" format="1">
  <advance width="1043"/>
  <unicode hex="002A"/>
  <outline>
    <contour>
      <point x="902.327983454" y="1218.49262225" type="line" smooth="yes"/>
      <point x="913.649582422" y="1183.7191397"/>
      <point x="894.147530524" y="1146.06947373"/>
      <point x="859.212610677" y="1135.25628426" type="curve" smooth="yes"/>
      <point x="650.687714356" y="1070.71286397" type="line" smooth="yes"/>
      <point x="639.988816497" y="1067.40130034"/>
      <point x="635.907811316" y="1054.8018983"/>
      <point x="642.633373411" y="1045.8464707" type="curve" smooth="yes"/>
      <point x="772.778327706" y="872.551852413" type="line" smooth="yes"/>
      <point x="796.414733747" y="841.078776989"/>
      <point x="789.536720733" y="795.937468325"/>
      <point x="757.599610159" y="772.931922572" type="curve" smooth="yes"/>
      <point x="755.976802367" y="771.762950857" type="line" smooth="yes"/>
      <point x="724.207703725" y="748.87843065"/>
      <point x="679.456412365" y="756.445684638"/>
      <point x="656.977790396" y="788.503264833" type="curve" smooth="yes"/>
      <point x="535.08645699" y="962.336927815" type="line" smooth="yes"/>
      <point x="528.636430719" y="971.535544827"/>
      <point x="515.363569281" y="971.535544827"/>
      <point x="508.91354301" y="962.336927815" type="curve" smooth="yes"/>
      <point x="387.022209604" y="788.503264833" type="line" smooth="yes"/>
      <point x="364.543587635" y="756.445684638"/>
      <point x="319.792296275" y="748.87843065"/>
      <point x="288.023197633" y="771.762950857" type="curve" smooth="yes"/>
      <point x="286.400389841" y="772.931922572" type="line" smooth="yes"/>
      <point x="254.463279267" y="795.937468325"/>
      <point x="247.585266253" y="841.078776989"/>
      <point x="271.221672294" y="872.551852413" type="curve" smooth="yes"/>
      <point x="401.352746839" y="1045.82798911" type="line" smooth="yes"/>
      <point x="408.083639598" y="1054.79051476"/>
      <point x="403.994327082" y="1067.39497029"/>
      <point x="393.28377994" y="1070.69890178" type="curve" smooth="yes"/>
      <point x="184.375205709" y="1135.1418857" type="line" smooth="yes"/>
      <point x="149.196812898" y="1145.99352551"/>
      <point x="129.662145031" y="1183.98643509"/>
      <point x="141.303783264" y="1218.91134979" type="curve" smooth="yes"/>
      <point x="141.936238796" y="1220.80871639" type="line" smooth="yes"/>
      <point x="153.482690653" y="1255.44807196"/>
      <point x="191.441824838" y="1274.15853812"/>
      <point x="225.947602598" y="1262.21882263" type="curve" smooth="yes"/>
      <point x="430.426808343" y="1191.4647722" type="line" smooth="yes"/>
      <point x="441.05621345" y="1187.78677735"/>
      <point x="451.814440159" y="1195.57893408"/>
      <point x="451.634210884" y="1206.82524087" type="curve" smooth="yes"/>
      <point x="448.187646124" y="1421.89088188" type="line" smooth="yes"/>
      <point x="447.537459804" y="1462.46250824"/>
      <point x="480.541798048" y="1496.0"/>
      <point x="521.118633903" y="1496.0" type="curve" smooth="yes"/>
      <point x="523.118633903" y="1496.0" type="line" smooth="yes"/>
      <point x="563.601230569" y="1496.0"/>
      <point x="596.57046936" y="1462.60399271"/>
      <point x="596.049835936" y="1422.12474403" type="curve" smooth="yes"/>
      <point x="593.291969268" y="1207.70061062" type="line" smooth="yes"/>
      <point x="593.147935627" y="1196.50199504"/>
      <point x="603.878182218" y="1188.73937514"/>
      <point x="614.469438821" y="1192.38011959" type="curve" smooth="yes"/>
      <point x="817.741188595" y="1262.25478358" type="line" smooth="yes"/>
      <point x="852.369690251" y="1274.15833102"/>
      <point x="890.372602339" y="1255.21272139"/>
      <point x="901.708811359" y="1220.39436511" type="curve" smooth="yes"/>
    </contour>
  </outline>
</glyph>
<glyph name="plus" format="1">
  <advance width="1140"/>
  <unicode hex="002B"/>
  <outline>
    <contour>
      <point x="160.0" y="542.0" type="line" smooth="yes"/>
      <point x="160.0" y="578.29237092"/>
      <point x="189.70762908" y="608.0"/>
      <point x="226.0" y="608.0" type="curve" smooth="yes"/>
      <point x="479.016968727" y="608.0" type="line" smooth="yes"/>
      <point x="487.665099486" y="608.0"/>
      <point x="495.0" y="615.334900514"/>
      <point x="495.0" y="623.983031273" type="curve" smooth="yes"/>
      <point x="495.0" y="877.0" type="line" smooth="yes"/>
      <point x="495.0" y="917.691446183"/>
      <point x="528.308553817" y="951.0"/>
      <point x="569.0" y="951.0" type="curve" smooth="yes"/>
      <point x="571.0" y="951.0" type="line" smooth="yes"/>
      <point x="611.691446183" y="951.0"/>
      <point x="645.0" y="917.691446183"/>
      <point x="645.0" y="877.0" type="curve" smooth="yes"/>
      <point x="645.0" y="623.983031273" type="line" smooth="yes"/>
      <point x="645.0" y="615.334900514"/>
      <point x="652.334900514" y="608.0"/>
      <point x="660.983031273" y="608.0" type="curve" smooth="yes"/>
      <point x="914.0" y="608.0" type="line" smooth="yes"/>
      <point x="950.29237092" y="608.0"/>
      <point x="980.0" y="578.29237092"/>
      <point x="980.0" y="542.0" type="curve" smooth="yes"/>
      <point x="980.0" y="540.0" type="line" smooth="yes"/>
      <point x="980.0" y="503.70762908"/>
      <point x="950.29237092" y="474.0"/>
      <point x="914.0" y="474.0" type="curve" smooth="yes"/>
      <point x="660.983031273" y="474.0" type="line" smooth="yes"/>
      <point x="652.334900514" y="474.0"/>
      <point x="645.0" y="466.665099486"/>
      <point x="645.0" y="458.016968727" type="curve" smooth="yes"/>
      <point x="645.0" y="205.0" type="line" smooth="yes"/>
      <point x="645.0" y="164.308553817"/>
      <point x="611.691446183" y="131.0"/>
      <point x="571.0" y="131.0" type="curve" smooth="yes"/>
      <point x="569.0" y="131.0" type="line" smooth="yes"/>
      <point x="528.308553817" y="131.0"/>
      <point x="495.0" y="164.308553817"/>
      <point x="495.0" y="205.0" type="curve" smooth="yes"/>
      <point x="495.0" y="458.016968727" type="line" smooth="yes"/>
      <point x="495.0" y="466.665099486"/>
      <point x="487.665099486" y="474.0"/>
      <point x="479.016968727" y="474.0" type="curve" smooth="yes"/>
      <point x="226.0" y="474.0" type="line" smooth="yes"/>
      <point x="189.70762908" y="474.0"/>
      <point x="160.0" y="503.70762908"/>
      <point x="160.0" y="540.0" type="curve" smooth="yes"/>
    </contour>
  </outline>
</glyph>
<glyph name="comma" format="1">
  <advance width="500"/>
  <unicode hex="002C"/>
  <outline>
    <contour>
      <point x="350.0" y="40.8333333333"/>
      <point x="344.0" y="22.0"/>
      <point x="336" y="0" type="curve" smooth="yes"/>
      <point x="256.621150964" y="-218.073761088" type="line" smooth="yes"/>
      <point x="249.747435117" y="-236.957595832"/>
      <point x="231.120430602" y="-250.0"/>
      <point x="211.024481155" y="-250.0" type="curve" smooth="yes"/>
      <point x="209.024481155" y="-250.0" type="line" smooth="yes"/>
      <point x="177.505779387" y="-250.0"/>
      <point x="153.966584812" y="-220.300348957"/>
      <point x="161.164490044" y="-189.614542443" type="curve" smooth="yes"/>
      <point x="202.843228135" y="-11.9315011081" type="line" smooth="yes"/>
      <point x="203.484958339" y="-9.1957039213"/>
      <point x="202.03320481" y="-6.24718363754"/>
      <point x="199.47354126" y="-5.08764648438" type="curve" smooth="yes"/>
      <point x="182.840138753" y="2.44734700521"/>
      <point x="169.015625" y="14.4765625"/>
      <point x="158.0" y="31.0" type="curve" smooth="yes"/>
      <point x="146.0" y="49.0"/>
      <point x="140.0" y="70.0"/>
      <point x="140" y="94" type="curve" smooth="yes"/>
      <point x="140.0" y="126.666666667"/>
      <point x="150.166666667" y="153.166666667"/>
      <point x="170.5" y="173.5" type="curve" smooth="yes"/>
      <point x="190.833333333" y="193.833333333"/>
      <point x="217.333333333" y="204.0"/>
      <point x="250.0" y="204.0" type="curve" smooth="yes"/>
      <point x="282.666666667" y="204.0"/>
      <point x="309.166666667" y="193.833333333"/>
      <point x="329.5" y="173.5" type="curve" smooth="yes"/>
      <point x="349.833333333" y="153.166666667"/>
      <point x="360.0" y="126.666666667"/>
      <point x="360" y="94" type="curve" smooth="yes"/>
      <point x="360.0" y="84.6666666667"/>
      <point x="358.0" y="72.1666666667"/>
      <point x="354.0" y="56.5" type="curve" smooth="yes"/>
    </contour>
  </outline>
</glyph>
<glyph name="hyphen" format="1">
  <advance width="820"/>
  <unicode hex="002D"/>
  <outline>
    <contour>
      <point x="160.0" y="542.0" type="line" smooth="yes"/>
      <point x="160.0" y="578.29237092"/>
      <point x="189.70762908" y="608.0"/>
      <point x="226.0" y="608.0" type="curve" smooth="yes"/>
      <point x="594.0" y="608.0" type="line" smooth="yes"/>
      <point x="630.29237092" y="608.0"/>
      <point x="660.0" y="578.29237092"/>
      <point x="660.0" y="542.0" type="curve" smooth="yes"/>
      <point x="660.0" y="540.0" type="line" smooth="yes"/>
      <point x="660.0" y="503.70762908"/>
      <point x="630.29237092" y="474.0"/>
      <point x="594.0" y="474.0" type="curve" smooth="yes"/>
      <point x="226.0" y="474.0" type="line" smooth="yes"/>
      <point x="189.70762908" y="474.0"/>
      <point x="160.0" y="503.70762908"/>
      <point x="160.0" y="540.0" type="curve" smooth="yes"/>
    </contour>
  </outline>
</glyph>
<glyph name="period" format="1">
  <advance width="500"/>
  <unicode hex="002E"/>
  <outline>
    <contour>
      <point x="360.0" y="61.3333333333"/>
      <point x="349.833333333" y="34.8333333333"/>
      <point x="329.5" y="14.5" type="curve" smooth="yes"/>
      <point x="309.166666667" y="-5.83333333333"/>
      <point x="282.666666667" y="-16.0"/>
      <point x="250.0" y="-16.0" type="curve" smooth="yes"/>
      <point x="217.333333333" y="-16.0"/>
      <point x="190.833333333" y="-5.83333333333"/>
      <point x="170.5" y="14.5" type="curve" smooth="yes"/>
      <point x="150.166666667" y="34.8333333333"/>
      <point x="140.0" y="61.3333333333"/>
      <point x="140.0" y="94.0" type="curve" smooth="yes"/>
      <point x="140.0" y="126.666666667"/>
      <point x="150.166666667" y="153.166666667"/>
      <point x="170.5" y="173.5" type="curve" smooth="yes"/>
      <point x="190.833333333" y="193.833333333"/>
      <point x="217.333333333" y="204.0"/>
      <point x="250.0" y="204.0" type="curve" smooth="yes"/>
      <point x="282.666666667" y="204.0"/>
      <point x="309.166666667" y="193.833333333"/>
      <point x="329.5" y="173.5" type="curve" smooth="yes"/>
      <point x="349.833333333" y="153.166666667"/>
      <point x="360.0" y="126.666666667"/>
      <point x="360.0" y="94.0" type="curve" smooth="yes"/>
    </contour>
  </outline>
</glyph>
<glyph name="slash" format="1">
  <advance width="930"/>
  <unicode hex="002F"/>
  <outline>
    <contour>
      <point x="725.442543839" y="1416.0" type="line" smooth="yes"/>
      <point x="773.176682668" y="1416.0"/>
      <point x="805.981954241" y="1368.47779875"/>
      <point x="789.05909397" y="1323.84412525" type="curve" smooth="yes"/>
      <point x="269.464959865" y="-46.5740287972" type="line" smooth="yes"/>
      <point x="259.707227689" y="-72.3098338009"/>
      <point x="234.080991479" y="-90.0"/>
      <point x="206.557456161" y="-90.0" type="curve" smooth="yes"/>
      <point x="204.557456161" y="-90.0" type="line" smooth="yes"/>
      <point x="156.823317332" y="-90.0"/>
      <point x="124.018045759" y="-42.4777987501"/>
      <point x="140.94090603" y="2.15587474848" type="curve" smooth="yes"/>
      <point x="660.535040135" y="1372.5740288" type="line" smooth="yes"/>
      <point x="670.292772311" y="1398.3098338"/>
      <point x="695.919008521" y="1416.0"/>
      <point x="723.442543839" y="1416.0" type="curve" smooth="yes"/>
    </contour>
  </outline>
</glyph>
<glyph name="one" format="1">
  <advance width="758"/>
  <unicode hex="0031"/>
  <outline>
    <contour>
      <point x="459.0" y="-9.42978035343e-15" type="line" smooth="yes"/>
      <point x="416.658900593" y="-4.24449116734e-15"/>
      <point x="382.0" y="34.6589005932"/>
      <point x="382.0" y="77.0" type="curve" smooth="yes"/>
      <point x="382.0" y="1208.72616565" type="line" smooth="yes"/>
      <point x="382.0" y="1220.82039007"/>
      <point x="369.408119605" y="1228.48034619"/>
      <point x="358.668118424" y="1222.9195334" type="curve" smooth="yes"/>
      <point x="248.328561908" y="1165.78940769" type="line" smooth="yes"/>
      <point x="213.580392077" y="1147.7979695"/>
      <point x="170.427744633" y="1161.69613365"/>
      <point x="152.710730712" y="1196.5850226" type="curve" smooth="yes"/>
      <point x="151.805175587" y="1198.36826961" type="line" smooth="yes"/>
      <point x="134.282681858" y="1232.87410342"/>
      <point x="148.025029587" y="1275.47959862"/>
      <point x="182.407116236" y="1293.24367672" type="curve" smooth="yes"/>
      <point x="400.389114342" y="1405.86770908" type="line" smooth="yes"/>
      <point x="412.05673148" y="1411.89597793"/>
      <point x="428.940833961" y="1416.0"/>
      <point x="442.073743581" y="1416.0" type="curve" smooth="yes"/>
      <point x="480.0" y="1416.0" type="line" smooth="yes"/>
      <point x="511.893295657" y="1416.0"/>
      <point x="538.0" y="1389.89329566"/>
      <point x="538.0" y="1358.0" type="curve" smooth="yes"/>
      <point x="538.0" y="77.0" type="line" smooth="yes"/>
      <point x="538.0" y="34.6589005932"/>
      <point x="503.341099407" y="4.24449116734e-15"/>
      <point x="461.0" y="9.42978035343e-15" type="curve" smooth="yes"/>
    </contour>
  </outline>
</glyph>
<glyph name="two" format="1">
  <advance width="1108"/>
  <unicode hex="0032"/>
  <outline>
    <contour>
      <point x="881.833333333" y="1247.5"/>
      <point x="920.0" y="1153.33333333"/>
      <point x="920" y="1040" type="curve" smooth="yes"/>
      <point x="920.0" y="986.0"/>
      <point x="909.833333333" y="934.333333333"/>
      <point x="889.5" y="885.0" type="curve" smooth="yes"/>
      <point x="869.166666667" y="835.666666667"/>
      <point x="837.333333333" y="782.0"/>
      <point x="794" y="724" type="curve" smooth="yes"/>
      <point x="373.288278538" y="165.600806059" type="line" smooth="yes"/>
      <point x="365.288204556" y="154.982526047"/>
      <point x="372.758988481" y="140.0"/>
      <point x="386.053688709" y="140.0" type="curve" smooth="yes"/>
      <point x="893.0" y="140.0" type="line" smooth="yes"/>
      <point x="930.942024144" y="140.0"/>
      <point x="962.0" y="108.942024144"/>
      <point x="962.0" y="71.0" type="curve" smooth="yes"/>
      <point x="962.0" y="69.0" type="line" smooth="yes"/>
      <point x="962.0" y="31.0579758562"/>
      <point x="930.942024144" y="3.80350507203e-15"/>
      <point x="893.0" y="8.45006291412e-15" type="curve" smooth="yes"/>
      <point x="199.0" y="-6.49062803548e-15" type="line" smooth="yes"/>
      <point x="169.902033016" y="-2.9271548226e-15"/>
      <point x="146.0" y="23.9020330159"/>
      <point x="146.0" y="53.0" type="curve" smooth="yes"/>
      <point x="146.0" y="82.0625433793" type="line" smooth="yes"/>
      <point x="146.0" y="97.8020730558"/>
      <point x="152.103634158" y="116.169661194"/>
      <point x="161.524012583" y="128.77875572" type="curve" smooth="yes"/>
      <point x="663" y="800" type="line" smooth="yes"/>
      <point x="698.333333333" y="847.333333333"/>
      <point x="724.0" y="888.333333333"/>
      <point x="740.0" y="923.0" type="curve" smooth="yes"/>
      <point x="756.0" y="957.666666667"/>
      <point x="764.0" y="996.666666667"/>
      <point x="764" y="1040" type="curve" smooth="yes"/>
      <point x="764.0" y="1114.66666667"/>
      <point x="741.0" y="1175.83333333"/>
      <point x="695.0" y="1223.5" type="curve" smooth="yes"/>
      <point x="649.0" y="1271.16666667"/>
      <point x="588.0" y="1295.0"/>
      <point x="512" y="1295" type="curve" smooth="yes"/>
      <point x="467.333333333" y="1295.0"/>
      <point x="423.75" y="1285.41666667"/>
      <point x="381.25" y="1266.25" type="curve" smooth="yes"/>
      <point x="358.028564453" y="1255.77758789"/>
      <point x="335.130545557" y="1242.44418234"/>
      <point x="312.55594331" y="1226.24978334" type="curve" smooth="yes"/>
      <point x="275.539416403" y="1199.69514464"/>
      <point x="234.431761757" y="1203.45326719"/>
      <point x="202.843950772" y="1236.27981586" type="curve" smooth="yes"/>
      <point x="202.1505704" y="1237.00038762" type="line" smooth="yes"/>
      <point x="177.482746632" y="1262.63557703"/>
      <point x="181.354986104" y="1311.45650661"/>
      <point x="209.755480648" y="1332.88257426" type="curve" smooth="yes"/>
      <point x="245.787840525" y="1360.06631851"/>
      <point x="282.935546875" y="1381.55013021"/>
      <point x="321.75" y="1397.75" type="curve" smooth="yes"/>
      <point x="381.25" y="1422.58333333"/>
      <point x="444.666666667" y="1435.0"/>
      <point x="512" y="1435" type="curve" smooth="yes"/>
      <point x="631.333333333" y="1435.0"/>
      <point x="729.166666667" y="1397.5"/>
      <point x="805.5" y="1322.5" type="curve" smooth="yes"/>
    </contour>
  </outline>
</glyph>
<glyph name="three" format="1">
  <advance width="1108"/>
  <unicode hex="0033"/>
  <outline>
    <contour>
      <point x="211.643362369" y="190.845499639" type="line" smooth="yes"/>
      <point x="245.93936952" y="223.84731784"/>
      <point x="286.653261877" y="226.152519805"/>
      <point x="324.455235004" y="197.232856274" type="curve" smooth="yes"/>
      <point x="348.183646043" y="179.079897404"/>
      <point x="373.198567708" y="164.168945312"/>
      <point x="399.5" y="152.5" type="curve" smooth="yes"/>
      <point x="446.833333333" y="131.5"/>
      <point x="498.333333333" y="121.0"/>
      <point x="554" y="121" type="curve" smooth="yes"/>
      <point x="634.666666667" y="121.0"/>
      <point x="699.333333333" y="145.833333333"/>
      <point x="748.0" y="195.5" type="curve" smooth="yes"/>
      <point x="796.666666667" y="245.166666667"/>
      <point x="821.0" y="310.0"/>
      <point x="821" y="390" type="curve" smooth="yes"/>
      <point x="821.0" y="433.333333333"/>
      <point x="812.0" y="474.0"/>
      <point x="794.0" y="512.0" type="curve" smooth="yes"/>
      <point x="776.0" y="550.0"/>
      <point x="753.0" y="580.333333333"/>
      <point x="725" y="603" type="curve" smooth="yes"/>
      <point x="702.333333333" y="621.0"/>
      <point x="676.166666667" y="634.5"/>
      <point x="646.5" y="643.5" type="curve" smooth="yes"/>
      <point x="616.833333333" y="652.5"/>
      <point x="590.833333333" y="657.666666667"/>
      <point x="568.5" y="659.0" type="curve" smooth="yes"/>
      <point x="557.333333333" y="659.666666667"/>
      <point x="543.125" y="660.166666667"/>
      <point x="525.875" y="660.5" type="curve" smooth="yes"/>
      <point x="508.625" y="660.833333333"/>
      <point x="488.333333333" y="661.0"/>
      <point x="465" y="661" type="curve" smooth="yes"/>
      <point x="428.0" y="661.0" type="line" smooth="yes"/>
      <point x="408.825616542" y="661.0"/>
      <point x="393.0" y="676.825616542"/>
      <point x="393.0" y="696.0" type="curve" smooth="yes"/>
      <point x="393.0" y="764.5" type="line" smooth="yes"/>
      <point x="393.0" y="784.496142749"/>
      <point x="409.503857251" y="801.0"/>
      <point x="429.5" y="801.0" type="curve" smooth="yes"/>
      <point x="468" y="801" type="line" smooth="yes"/>
      <point x="512.666666667" y="801.0"/>
      <point x="545.5" y="801.666666667"/>
      <point x="566.5" y="803.0" type="curve" smooth="yes"/>
      <point x="587.5" y="804.333333333"/>
      <point x="611.5" y="809.0"/>
      <point x="638.5" y="817.0" type="curve" smooth="yes"/>
      <point x="652.0" y="821.0"/>
      <point x="664.708333333" y="826.083333333"/>
      <point x="676.625" y="832.25" type="curve" smooth="yes"/>
      <point x="688.541666667" y="838.416666667"/>
      <point x="699.666666667" y="845.666666667"/>
      <point x="710" y="854" type="curve" smooth="yes"/>
      <point x="736.0" y="874.666666667"/>
      <point x="757.166666667" y="902.333333333"/>
      <point x="773.5" y="937.0" type="curve" smooth="yes"/>
      <point x="789.833333333" y="971.666666667"/>
      <point x="798.0" y="1009.0"/>
      <point x="798" y="1049" type="curve" smooth="yes"/>
      <point x="798.0" y="1121.66666667"/>
      <point x="775.833333333" y="1180.83333333"/>
      <point x="731.5" y="1226.5" type="curve" smooth="yes"/>
      <point x="687.166666667" y="1272.16666667"/>
      <point x="628.0" y="1295.0"/>
      <point x="554" y="1295" type="curve" smooth="yes"/>
      <point x="500.666666667" y="1295.0"/>
      <point x="450.583333333" y="1284.33333333"/>
      <point x="403.75" y="1263.0" type="curve" smooth="yes"/>
      <point x="377.657796224" y="1251.11458333"/>
      <point x="352.574368457" y="1235.91831207"/>
      <point x="328.499716699" y="1217.41118622" type="curve" smooth="yes"/>
      <point x="290.911994516" y="1188.51603492"/>
      <point x="249.15930404" y="1191.53508516"/>
      <point x="216.119549692" y="1225.53716245" type="curve" smooth="yes"/>
      <point x="215.422664558" y="1226.25434521" type="line" smooth="yes"/>
      <point x="191.746641593" y="1250.61996108"/>
      <point x="195.223466629" y="1298.12774472"/>
      <point x="222.194588514" y="1318.78678352" type="curve" smooth="yes"/>
      <point x="257.820878665" y="1346.07541148"/>
      <point x="296.396484375" y="1369.20442708"/>
      <point x="339.0" y="1389.0" type="curve" smooth="yes"/>
      <point x="405.0" y="1419.66666667"/>
      <point x="476.666666667" y="1435.0"/>
      <point x="554" y="1435" type="curve" smooth="yes"/>
      <point x="670.666666667" y="1435.0"/>
      <point x="766.5" y="1398.83333333"/>
      <point x="841.5" y="1326.5" type="curve" smooth="yes"/>
      <point x="916.5" y="1254.16666667"/>
      <point x="954.0" y="1161.0"/>
      <point x="954" y="1047" type="curve" smooth="yes"/>
      <point x="954.0" y="981.666666667"/>
      <point x="938.166666667" y="920.666666667"/>
      <point x="906.5" y="864.0" type="curve" smooth="yes"/>
      <point x="879.78125" y="816.1875"/>
      <point x="846.062011719" y="777.8671875"/>
      <point x="805.342285156" y="749.0390625" type="curve" smooth="yes"/>
      <point x="794.159766427" y="741.122235081"/>
      <point x="794.341887546" y="726.973434872"/>
      <point x="805.742818832" y="719.33477211" type="curve" smooth="yes"/>
      <point x="853.526903152" y="687.319272995"/>
      <point x="892.779296875" y="645.041015625"/>
      <point x="923.5" y="592.5" type="curve" smooth="yes"/>
      <point x="959.166666667" y="531.5"/>
      <point x="977.0" y="464.666666667"/>
      <point x="977" y="392" type="curve" smooth="yes"/>
      <point x="977.0" y="273.333333333"/>
      <point x="937.833333333" y="175.166666667"/>
      <point x="859.5" y="97.5" type="curve" smooth="yes"/>
      <point x="781.166666667" y="19.8333333333"/>
      <point x="679.333333333" y="-19.0"/>
      <point x="554" y="-19" type="curve" smooth="yes"/>
      <point x="474.0" y="-19.0"/>
      <point x="400.333333333" y="-3.83333333333"/>
      <point x="333.0" y="26.5" type="curve" smooth="yes"/>
      <point x="289.568684896" y="46.0655924479"/>
      <point x="250.713921944" y="69.4449783564"/>
      <point x="216.435711145" y="96.6381577253" type="curve" smooth="yes"/>
      <point x="188.980356524" y="118.418710603"/>
      <point x="186.667274516" y="166.811905666"/>
      <point x="210.92279061" y="190.152119267" type="curve" smooth="yes"/>
    </contour>
  </outline>
</glyph>
<glyph name="four" format="1">
  <advance width="1142"/>
  <unicode hex="0034"/>
  <outline>
    <contour>
      <point x="1012.0" y="409.0" type="line" smooth="yes"/>
      <point x="1012.0" y="376.556819935"/>
      <point x="985.443180065" y="350.0"/>
      <point x="953.0" y="350.0" type="curve" smooth="yes"/>
      <point x="907.53658929" y="350.0" type="line" smooth="yes"/>
      <point x="899.130020258" y="350.0"/>
      <point x="892.0" y="342.869979742"/>
      <point x="892.0" y="334.46341071" type="curve" smooth="yes"/>
      <point x="892.0" y="77.0" type="line" smooth="yes"/>
      <point x="892.0" y="34.6589005932"/>
      <point x="857.341099407" y="4.24449116734e-15"/>
      <point x="815.0" y="9.42978035343e-15" type="curve" smooth="yes"/>
      <point x="813.0" y="-9.42978035343e-15" type="line" smooth="yes"/>
      <point x="770.658900593" y="-4.24449116734e-15"/>
      <point x="736.0" y="34.6589005932"/>
      <point x="736.0" y="77.0" type="curve" smooth="yes"/>
      <point x="736.0" y="334.016968727" type="line" smooth="yes"/>
      <point x="736.0" y="342.665099486"/>
      <point x="728.665099486" y="350.0"/>
      <point x="720.016968727" y="350.0" type="curve" smooth="yes"/>
      <point x="212.785916769" y="350.0" type="line" smooth="yes"/>
      <point x="167.263231946" y="350.0"/>
      <point x="130.0" y="387.263231946"/>
      <point x="130.0" y="432.785916769" type="curve" smooth="yes"/>
      <point x="130.0" y="434.785916769" type="line" smooth="yes"/>
      <point x="130.0" y="444.301572821"/>
      <point x="132.640949226" y="457.155835756"/>
      <point x="136.3926306" y="465.900696931" type="curve" smooth="yes"/>
      <point x="525.656387362" y="1373.24254542" type="line" smooth="yes"/>
      <point x="536.591443152" y="1398.73126242"/>
      <point x="562.790849161" y="1416.0"/>
      <point x="590.526208171" y="1416.0" type="curve" smooth="yes"/>
      <point x="592.526208171" y="1416.0" type="line" smooth="yes"/>
      <point x="643.994738035" y="1416.0"/>
      <point x="678.489931701" y="1363.62732853"/>
      <point x="658.166191706" y="1316.34144101" type="curve" smooth="yes"/>
      <point x="312.582242466" y="512.294363125" type="line" smooth="yes"/>
      <point x="307.991156301" y="501.612589786"/>
      <point x="315.639773841" y="490.0"/>
      <point x="327.266396474" y="490.0" type="curve" smooth="yes"/>
      <point x="720.016968727" y="490.0" type="line" smooth="yes"/>
      <point x="728.665099486" y="490.0"/>
      <point x="736.0" y="497.334900514"/>
      <point x="736.0" y="505.983031273" type="curve" smooth="yes"/>
      <point x="736.0" y="763.0" type="line" smooth="yes"/>
      <point x="736.0" y="805.341099407"/>
      <point x="770.658900593" y="840.0"/>
      <point x="813.0" y="840.0" type="curve" smooth="yes"/>
      <point x="815.0" y="840.0" type="line" smooth="yes"/>
      <point x="857.341099407" y="840.0"/>
      <point x="892.0" y="805.341099407"/>
      <point x="892.0" y="763.0" type="curve" smooth="yes"/>
      <point x="892.0" y="505.53658929" type="line" smooth="yes"/>
      <point x="892.0" y="497.130020258"/>
      <point x="899.130020258" y="490.0"/>
      <point x="907.53658929" y="490.0" type="curve" smooth="yes"/>
      <point x="953.0" y="490.0" type="line" smooth="yes"/>
      <point x="985.443180065" y="490.0"/>
      <point x="1012.0" y="463.443180065"/>
      <point x="1012.0" y="431.0" type="curve" smooth="yes"/>
    </contour>
  </outline>
</glyph>
<glyph name="five" format="1">
  <advance width="1108"/>
  <unicode hex="0035"/>
  <outline>
    <contour>
      <point x="894.0" y="1345.0" type="line" smooth="yes"/>
      <point x="894.0" y="1307.05797586"/>
      <point x="862.942024144" y="1276.0"/>
      <point x="825.0" y="1276.0" type="curve" smooth="yes"/>
      <point x="371.983031273" y="1276.0" type="line" smooth="yes"/>
      <point x="363.334900514" y="1276.0"/>
      <point x="356.0" y="1268.66509949"/>
      <point x="356.0" y="1260.01696873" type="curve" smooth="yes"/>
      <point x="356.0" y="841.706241988" type="line" smooth="yes"/>
      <point x="356.0" y="828.954050795"/>
      <point x="367.979809399" y="821.147090293"/>
      <point x="379.645994425" y="826.296702623" type="curve" smooth="yes"/>
      <point x="405.629231215" y="837.766055822"/>
      <point x="432.830566406" y="846.750488281"/>
      <point x="461.25" y="853.25" type="curve" smooth="yes"/>
      <point x="498.416666667" y="861.75"/>
      <point x="537.666666667" y="866.0"/>
      <point x="579" y="866" type="curve" smooth="yes"/>
      <point x="688.333333333" y="866.0"/>
      <point x="781.166666667" y="824.5"/>
      <point x="857.5" y="741.5" type="curve" smooth="yes"/>
      <point x="933.833333333" y="658.5"/>
      <point x="972.0" y="553.333333333"/>
      <point x="972" y="426" type="curve" smooth="yes"/>
      <point x="972.0" y="299.333333333"/>
      <point x="933.0" y="193.5"/>
      <point x="855.0" y="108.5" type="curve" smooth="yes"/>
      <point x="777.0" y="23.5"/>
      <point x="675.0" y="-19.0"/>
      <point x="549" y="-19" type="curve" smooth="yes"/>
      <point x="471.666666667" y="-19.0"/>
      <point x="399.666666667" y="-3.66666666667"/>
      <point x="333.0" y="27.0" type="curve" smooth="yes"/>
      <point x="288.924479167" y="47.2747395833"/>
      <point x="248.92852656" y="71.3376496633"/>
      <point x="213.012142181" y="99.1887302399" type="curve" smooth="yes"/>
      <point x="185.891905547" y="120.218906546"/>
      <point x="181.977011607" y="167.672123657"/>
      <point x="205.284044801" y="192.862553472" type="curve" smooth="yes"/>
      <point x="205.963179199" y="193.596567417" type="line" smooth="yes"/>
      <point x="237.099919104" y="227.249407517"/>
      <point x="279.336759574" y="231.031852536"/>
      <point x="315.957539455" y="203.446916436" type="curve" smooth="yes"/>
      <point x="343.100549996" y="183.001196444"/>
      <point x="370.597900391" y="166.510986328"/>
      <point x="398.75" y="153.75" type="curve" smooth="yes"/>
      <point x="446.916666667" y="131.916666667"/>
      <point x="497.0" y="121.0"/>
      <point x="549" y="121" type="curve" smooth="yes"/>
      <point x="631.666666667" y="121.0"/>
      <point x="696.833333333" y="150.166666667"/>
      <point x="744.5" y="208.5" type="curve" smooth="yes"/>
      <point x="792.166666667" y="266.833333333"/>
      <point x="816.0" y="339.333333333"/>
      <point x="816" y="426" type="curve" smooth="yes"/>
      <point x="816.0" y="514.666666667"/>
      <point x="791.833333333" y="587.666666667"/>
      <point x="743.5" y="645.0" type="curve" smooth="yes"/>
      <point x="695.166666667" y="702.333333333"/>
      <point x="630.333333333" y="731.0"/>
      <point x="549" y="731" type="curve" smooth="yes"/>
      <point x="508.666666667" y="731.0"/>
      <point x="469.583333333" y="725.166666667"/>
      <point x="431.75" y="713.5" type="curve" smooth="yes"/>
      <point x="411.078369141" y="707.125488281"/>
      <point x="390.779911339" y="699.009502292"/>
      <point x="370.854626596" y="689.152042031" type="curve" smooth="yes"/>
      <point x="334.652747421" y="671.242205865"/>
      <point x="301.009213395" y="670.979226419"/>
      <point x="264.531785378" y="688.320954493" type="curve" smooth="yes"/>
      <point x="246.334889135" y="696.971937952" type="line" smooth="yes"/>
      <point x="218.582213645" y="710.165832857"/>
      <point x="200.0" y="739.575256331"/>
      <point x="200.0" y="770.304556023" type="curve" smooth="yes"/>
      <point x="200.0" y="1316.0" type="line" smooth="yes"/>
      <point x="200.0" y="1370.98844079"/>
      <point x="245.011559212" y="1416.0"/>
      <point x="300.0" y="1416.0" type="curve" smooth="yes"/>
      <point x="825.0" y="1416.0" type="line" smooth="yes"/>
      <point x="862.942024144" y="1416.0"/>
      <point x="894.0" y="1384.94202414"/>
      <point x="894.0" y="1347.0" type="curve" smooth="yes"/>
    </contour>
  </outline>
</glyph>
<glyph name="six" format="1">
  <advance width="1108"/>
  <unicode hex="0036"/>
  <outline>
    <contour>
      <point x="287.0" y="341.0"/>
      <point x="312.333333333" y="262.666666667"/>
      <point x="363.0" y="206.0" type="curve" smooth="yes"/>
      <point x="413.666666667" y="149.333333333"/>
      <point x="477.333333333" y="121.0"/>
      <point x="554.0" y="121.0" type="curve" smooth="yes"/>
      <point x="630.666666667" y="121.0"/>
      <point x="694.333333333" y="149.333333333"/>
      <point x="745.0" y="206.0" type="curve" smooth="yes"/>
      <point x="795.666666667" y="262.666666667"/>
      <point x="821.0" y="341.0"/>
      <point x="821.0" y="441.0" type="curve" smooth="yes"/>
      <point x="821.0" y="541.0"/>
      <point x="795.666666667" y="619.333333333"/>
      <point x="745.0" y="676.0" type="curve" smooth="yes"/>
      <point x="694.333333333" y="732.666666667"/>
      <point x="630.666666667" y="761.0"/>
      <point x="554.0" y="761.0" type="curve" smooth="yes"/>
      <point x="477.333333333" y="761.0"/>
      <point x="413.666666667" y="732.666666667"/>
      <point x="363.0" y="676.0" type="curve" smooth="yes"/>
      <point x="312.333333333" y="619.333333333"/>
      <point x="287.0" y="541.0"/>
      <point x="287.0" y="441.0" type="curve" smooth="yes"/>
    </contour>
    <contour>
      <point x="850.666666667" y="788.5"/>
      <point x="897.0" y="733.833333333"/>
      <point x="929.0" y="665.5" type="curve" smooth="yes"/>
      <point x="945.0" y="631.333333333"/>
      <point x="957.0" y="595.541666667"/>
      <point x="965.0" y="558.125" type="curve" smooth="yes"/>
      <point x="973.0" y="520.708333333"/>
      <point x="977.0" y="481.666666667"/>
      <point x="977" y="441" type="curve" smooth="yes"/>
      <point x="977.0" y="311.0"/>
      <point x="938.166666667" y="201.833333333"/>
      <point x="860.5" y="113.5" type="curve" smooth="yes"/>
      <point x="782.833333333" y="25.1666666667"/>
      <point x="680.666666667" y="-19.0"/>
      <point x="554" y="-19" type="curve" smooth="yes"/>
      <point x="470.0" y="-19.0"/>
      <point x="395.5" y="1.83333333333"/>
      <point x="330.5" y="43.5" type="curve" smooth="yes"/>
      <point x="265.5" y="85.1666666667"/>
      <point x="216.0" y="140.833333333"/>
      <point x="182.0" y="210.5" type="curve" smooth="yes"/>
      <point x="165.0" y="245.333333333"/>
      <point x="152.25" y="282.041666667"/>
      <point x="143.75" y="320.625" type="curve" smooth="yes"/>
      <point x="135.25" y="359.208333333"/>
      <point x="131.0" y="399.666666667"/>
      <point x="131" y="442" type="curve" smooth="yes"/>
      <point x="131.0" y="487.333333333"/>
      <point x="137.0" y="532.666666667"/>
      <point x="149.0" y="578.0" type="curve" smooth="yes"/>
      <point x="161.0" y="623.333333333"/>
      <point x="173.0" y="659.333333333"/>
      <point x="185.0" y="686.0" type="curve" smooth="yes"/>
      <point x="191.0" y="699.333333333"/>
      <point x="198.583333333" y="715.166666667"/>
      <point x="207.75" y="733.5" type="curve" smooth="yes"/>
      <point x="216.916666667" y="751.833333333"/>
      <point x="227.666666667" y="772.666666667"/>
      <point x="240" y="796" type="curve" smooth="yes"/>
      <point x="540.945591081" y="1377.26562763" type="line" smooth="yes"/>
      <point x="553.002679143" y="1400.55346127"/>
      <point x="578.394042071" y="1416.0"/>
      <point x="604.618011414" y="1416.0" type="curve" smooth="yes"/>
      <point x="606.618011414" y="1416.0" type="line" smooth="yes"/>
      <point x="661.4457837" y="1416.0"/>
      <point x="696.511696044" y="1357.9670904"/>
      <point x="671.012103782" y="1309.42993547" type="curve" smooth="yes"/>
      <point x="443.654675498" y="876.666830603" type="line" smooth="yes"/>
      <point x="441.291829039" y="872.169274585"/>
      <point x="445.428019123" y="867.451572424"/>
      <point x="450.195983887" y="869.205871582" type="curve" smooth="yes"/>
      <point x="467.708557129" y="875.649353027"/>
      <point x="486.2265625" y="880.6640625"/>
      <point x="505.75" y="884.25" type="curve" smooth="yes"/>
      <point x="530.25" y="888.75"/>
      <point x="556.333333333" y="891.0"/>
      <point x="584" y="891" type="curve" smooth="yes"/>
      <point x="660.666666667" y="891.0"/>
      <point x="729.333333333" y="870.5"/>
      <point x="790.0" y="829.5" type="curve" smooth="yes"/>
    </contour>
  </outline>
</glyph>
<glyph name="seven" format="1">
  <advance width="1108"/>
  <unicode hex="0037"/>
  <outline>
    <contour>
      <point x="126.0" y="1347.0" type="line" smooth="yes"/>
      <point x="126.0" y="1384.94202414"/>
      <point x="157.057975856" y="1416.0"/>
      <point x="195.0" y="1416.0" type="curve" smooth="yes"/>
      <point x="936.0" y="1416.0" type="line" smooth="yes"/>
      <point x="961.254839269" y="1416.0"/>
      <point x="982.0" y="1395.25483927"/>
      <point x="982.0" y="1370.0" type="curve" smooth="yes"/>
      <point x="982.0" y="1336.53868297" type="line" smooth="yes"/>
      <point x="982.0" y="1328.03297736"/>
      <point x="979.700611032" y="1316.4223996"/>
      <point x="976.458774624" y="1308.55871569" type="curve" smooth="yes"/>
      <point x="456.304640376" y="46.8270359211" type="line" smooth="yes"/>
      <point x="444.818318074" y="18.9648009071"/>
      <point x="416.486839079" y="2.51213768619e-15"/>
      <point x="386.34982297" y="6.20285771765e-15" type="curve" smooth="yes"/>
      <point x="384.34982297" y="-1.40038144683e-14" type="line" smooth="yes"/>
      <point x="329.733918277" y="-7.31529518185e-15"/>
      <point x="292.802422795" y="55.210420279"/>
      <point x="313.651129629" y="105.69040115" type="curve" smooth="yes"/>
      <point x="787.878982294" y="1253.91571424" type="line" smooth="yes"/>
      <point x="792.272790628" y="1264.5542331"/>
      <point x="784.61645897" y="1276.0"/>
      <point x="773.106305407" y="1276.0" type="curve" smooth="yes"/>
      <point x="195.0" y="1276.0" type="line" smooth="yes"/>
      <point x="157.057975856" y="1276.0"/>
      <point x="126.0" y="1307.05797586"/>
      <point x="126.0" y="1345.0" type="curve" smooth="yes"/>
    </contour>
  </outline>
</glyph>
<glyph name="eight" format="1">
  <advance width="1108"/>
  <unicode hex="0038"/>
  <outline>
    <contour>
      <point x="882.068033854" y="821.435546875"/>
      <point x="848.341450532" y="782.058931033"/>
      <point x="805.320250034" y="749.870152473" type="curve" smooth="yes"/>
      <point x="795.005047419" y="742.152242026"/>
      <point x="795.383135758" y="728.391698991"/>
      <point x="806.150012255" y="721.222929955" type="curve" smooth="yes"/>
      <point x="857.468623877" y="687.054127693"/>
      <point x="897.751953125" y="643.646484375"/>
      <point x="927.0" y="591.0" type="curve" smooth="yes"/>
      <point x="960.333333333" y="531.0"/>
      <point x="977.0" y="464.333333333"/>
      <point x="977" y="391" type="curve" smooth="yes"/>
      <point x="977.0" y="273.666666667"/>
      <point x="937.5" y="176.0"/>
      <point x="858.5" y="98.0" type="curve" smooth="yes"/>
      <point x="779.5" y="20.0"/>
      <point x="678.0" y="-19.0"/>
      <point x="554.0" y="-19.0" type="curve" smooth="yes"/>
      <point x="430.0" y="-19.0"/>
      <point x="328.5" y="20.0"/>
      <point x="249.5" y="98.0" type="curve" smooth="yes"/>
      <point x="170.5" y="176.0"/>
      <point x="131.0" y="273.666666667"/>
      <point x="131" y="391" type="curve" smooth="yes"/>
      <point x="131.0" y="464.333333333"/>
      <point x="147.666666667" y="531.0"/>
      <point x="181.0" y="591.0" type="curve" smooth="yes"/>
      <point x="210.264322917" y="643.67578125"/>
      <point x="250.576213519" y="687.102436066"/>
      <point x="301.935671806" y="721.279964447" type="curve" smooth="yes"/>
      <point x="312.628705998" y="728.395722513"/>
      <point x="313.006621752" y="742.147341033"/>
      <point x="302.752841353" y="749.815478563" type="curve" smooth="yes"/>
      <point x="259.696747899" y="782.014339209"/>
      <point x="225.945800781" y="821.409179688"/>
      <point x="201.5" y="868.0" type="curve" smooth="yes"/>
      <point x="173.166666667" y="922.0"/>
      <point x="159.0" y="982.0"/>
      <point x="159" y="1048" type="curve" smooth="yes"/>
      <point x="159.0" y="1158.66666667"/>
      <point x="195.833333333" y="1250.83333333"/>
      <point x="269.5" y="1324.5" type="curve" smooth="yes"/>
      <point x="343.166666667" y="1398.16666667"/>
      <point x="438.0" y="1435.0"/>
      <point x="554.0" y="1435.0" type="curve" smooth="yes"/>
      <point x="670.0" y="1435.0"/>
      <point x="764.833333333" y="1398.16666667"/>
      <point x="838.5" y="1324.5" type="curve" smooth="yes"/>
      <point x="912.166666667" y="1250.83333333"/>
      <point x="949.0" y="1158.66666667"/>
      <point x="949" y="1048" type="curve" smooth="yes"/>
      <point x="949.0" y="982.0"/>
      <point x="934.833333333" y="922.0"/>
      <point x="906.5" y="868.0" type="curve" smooth="yes"/>
    </contour>
    <contour>
      <point x="315.0" y="971.333333333"/>
      <point x="337.0" y="911.0"/>
      <point x="381.0" y="867.0" type="curve" smooth="yes"/>
      <point x="425.0" y="823.0"/>
      <point x="482.666666667" y="801.0"/>
      <point x="554.0" y="801.0" type="curve" smooth="yes"/>
      <point x="625.333333333" y="801.0"/>
      <point x="683.0" y="823.0"/>
      <point x="727.0" y="867.0" type="curve" smooth="yes"/>
      <point x="771.0" y="911.0"/>
      <point x="793.0" y="971.333333333"/>
      <point x="793.0" y="1048.0" type="curve" smooth="yes"/>
      <point x="793.0" y="1124.66666667"/>
      <point x="771.0" y="1185.0"/>
      <point x="727.0" y="1229.0" type="curve" smooth="yes"/>
      <point x="683.0" y="1273.0"/>
      <point x="625.333333333" y="1295.0"/>
      <point x="554.0" y="1295.0" type="curve" smooth="yes"/>
      <point x="482.666666667" y="1295.0"/>
      <point x="425.0" y="1273.0"/>
      <point x="381.0" y="1229.0" type="curve" smooth="yes"/>
      <point x="337.0" y="1185.0"/>
      <point x="315.0" y="1124.66666667"/>
      <point x="315.0" y="1048.0" type="curve" smooth="yes"/>
    </contour>
    <contour>
      <point x="287.0" y="307.666666667"/>
      <point x="311.666666667" y="241.833333333"/>
      <point x="361.0" y="193.5" type="curve" smooth="yes"/>
      <point x="410.333333333" y="145.166666667"/>
      <point x="474.666666667" y="121.0"/>
      <point x="554.0" y="121.0" type="curve" smooth="yes"/>
      <point x="633.333333333" y="121.0"/>
      <point x="697.666666667" y="145.166666667"/>
      <point x="747.0" y="193.5" type="curve" smooth="yes"/>
      <point x="796.333333333" y="241.833333333"/>
      <point x="821.0" y="307.666666667"/>
      <point x="821.0" y="391.0" type="curve" smooth="yes"/>
      <point x="821.0" y="474.333333333"/>
      <point x="796.333333333" y="540.166666667"/>
      <point x="747.0" y="588.5" type="curve" smooth="yes"/>
      <point x="697.666666667" y="636.833333333"/>
      <point x="633.333333333" y="661.0"/>
      <point x="554.0" y="661.0" type="curve" smooth="yes"/>
      <point x="474.666666667" y="661.0"/>
      <point x="410.333333333" y="636.833333333"/>
      <point x="361.0" y="588.5" type="curve" smooth="yes"/>
      <point x="311.666666667" y="540.166666667"/>
      <point x="287.0" y="474.333333333"/>
      <point x="287.0" y="391.0" type="curve" smooth="yes"/>
    </contour>
  </outline>
</glyph>
<glyph name="nine" format="1">
  <advance width="1108"/>
  <unicode hex="0039"/>
  <outline>
    <contour>
      <point x="931.166666667" y="758.0"/>
      <point x="907.333333333" y="702.666666667"/>
      <point x="876" y="642" type="curve" smooth="yes"/>
      <point x="566.678888599" y="40.2298378203" type="line" smooth="yes"/>
      <point x="554.250213288" y="16.0504149418"/>
      <point x="527.953342717" y="2.21007810772e-15"/>
      <point x="500.766646324" y="5.53948817936e-15" type="curve" smooth="yes"/>
      <point x="498.766646324" y="-1.51570427262e-14" type="line" smooth="yes"/>
      <point x="442.270350771" y="-8.23824197496e-15"/>
      <point x="406.035360423" y="59.6833854293"/>
      <point x="432.100080987" y="109.807848051" type="curve" smooth="yes"/>
      <point x="654.902921339" y="538.274848729" type="line" smooth="yes"/>
      <point x="657.129777743" y="542.557264891"/>
      <point x="653.267782395" y="547.004399066"/>
      <point x="648.715542793" y="545.399689674" type="curve" smooth="yes"/>
      <point x="631.490141869" y="539.327565829"/>
      <point x="613.668294271" y="534.611002604"/>
      <point x="595.25" y="531.25" type="curve" smooth="yes"/>
      <point x="572.416666667" y="527.083333333"/>
      <point x="548.666666667" y="525.0"/>
      <point x="524" y="525" type="curve" smooth="yes"/>
      <point x="446.666666667" y="525.0"/>
      <point x="378.0" y="546.0"/>
      <point x="318.0" y="588.0" type="curve" smooth="yes"/>
      <point x="258.0" y="630.0"/>
      <point x="212.666666667" y="685.0"/>
      <point x="182.0" y="753.0" type="curve" smooth="yes"/>
      <point x="166.666666667" y="787.0"/>
      <point x="155.166666667" y="822.5"/>
      <point x="147.5" y="859.5" type="curve" smooth="yes"/>
      <point x="139.833333333" y="896.5"/>
      <point x="136.0" y="935.0"/>
      <point x="136" y="975" type="curve" smooth="yes"/>
      <point x="136.0" y="1105.0"/>
      <point x="174.333333333" y="1214.16666667"/>
      <point x="251.0" y="1302.5" type="curve" smooth="yes"/>
      <point x="327.666666667" y="1390.83333333"/>
      <point x="428.666666667" y="1435.0"/>
      <point x="554.0" y="1435.0" type="curve" smooth="yes"/>
      <point x="679.333333333" y="1435.0"/>
      <point x="780.333333333" y="1390.83333333"/>
      <point x="857.0" y="1302.5" type="curve" smooth="yes"/>
      <point x="933.666666667" y="1214.16666667"/>
      <point x="972.0" y="1105.0"/>
      <point x="972" y="975" type="curve" smooth="yes"/>
      <point x="972.0" y="913.666666667"/>
      <point x="963.833333333" y="858.0"/>
      <point x="947.5" y="808.0" type="curve" smooth="yes"/>
    </contour>
    <contour>
      <point x="292.0" y="875.0"/>
      <point x="316.833333333" y="796.666666667"/>
      <point x="366.5" y="740.0" type="curve" smooth="yes"/>
      <point x="416.166666667" y="683.333333333"/>
      <point x="478.666666667" y="655.0"/>
      <point x="554.0" y="655.0" type="curve" smooth="yes"/>
      <point x="629.333333333" y="655.0"/>
      <point x="691.833333333" y="683.333333333"/>
      <point x="741.5" y="740.0" type="curve" smooth="yes"/>
      <point x="791.166666667" y="796.666666667"/>
      <point x="816.0" y="875.0"/>
      <point x="816.0" y="975.0" type="curve" smooth="yes"/>
      <point x="816.0" y="1075.0"/>
      <point x="791.166666667" y="1153.33333333"/>
      <point x="741.5" y="1210.0" type="curve" smooth="yes"/>
      <point x="691.833333333" y="1266.66666667"/>
      <point x="629.333333333" y="1295.0"/>
      <point x="554.0" y="1295.0" type="curve" smooth="yes"/>
      <point x="478.666666667" y="1295.0"/>
      <point x="416.166666667" y="1266.66666667"/>
      <point x="366.5" y="1210.0" type="curve" smooth="yes"/>
      <point x="316.833333333" y="1153.33333333"/>
      <point x="292.0" y="1075.0"/>
      <point x="292.0" y="975.0" type="curve" smooth="yes"/>
    </contour>
  </outline>
</glyph>
<glyph name="colon" format="1">
  <advance width="500"/>
  <unicode hex="003A"/>
  <outline>
    <contour>
      <point x="360.0" y="61.3333333333"/>
      <point x="349.833333333" y="34.8333333333"/>
      <point x="329.5" y="14.5" type="curve" smooth="yes"/>
      <point x="309.166666667" y="-5.83333333333"/>
      <point x="282.666666667" y="-16.0"/>
      <point x="250.0" y="-16.0" type="curve" smooth="yes"/>
      <point x="217.333333333" y="-16.0"/>
      <point x="190.833333333" y="-5.83333333333"/>
      <point x="170.5" y="14.5" type="curve" smooth="yes"/>
      <point x="150.166666667" y="34.8333333333"/>
      <point x="140.0" y="61.3333333333"/>
      <point x="140.0" y="94.0" type="curve" smooth="yes"/>
      <point x="140.0" y="126.666666667"/>
      <point x="150.166666667" y="153.166666667"/>
      <point x="170.5" y="173.5" type="curve" smooth="yes"/>
      <point x="190.833333333" y="193.833333333"/>
      <point x="217.333333333" y="204.0"/>
      <point x="250.0" y="204.0" type="curve" smooth="yes"/>
      <point x="282.666666667" y="204.0"/>
      <point x="309.166666667" y="193.833333333"/>
      <point x="329.5" y="173.5" type="curve" smooth="yes"/>
      <point x="349.833333333" y="153.166666667"/>
      <point x="360.0" y="126.666666667"/>
      <point x="360.0" y="94.0" type="curve" smooth="yes"/>
    </contour>
    <contour>
      <point x="360.0" y="958.333333333"/>
      <point x="349.833333333" y="931.833333333"/>
      <point x="329.5" y="911.5" type="curve" smooth="yes"/>
      <point x="309.166666667" y="891.166666667"/>
      <point x="282.666666667" y="881.0"/>
      <point x="250.0" y="881.0" type="curve" smooth="yes"/>
      <point x="217.333333333" y="881.0"/>
      <point x="190.833333333" y="891.166666667"/>
      <point x="170.5" y="911.5" type="curve" smooth="yes"/>
      <point x="150.166666667" y="931.833333333"/>
      <point x="140.0" y="958.333333333"/>
      <point x="140.0" y="991.0" type="curve" smooth="yes"/>
      <point x="140.0" y="1023.66666667"/>
      <point x="150.166666667" y="1050.16666667"/>
      <point x="170.5" y="1070.5" type="curve" smooth="yes"/>
      <point x="190.833333333" y="1090.83333333"/>
      <point x="217.333333333" y="1101.0"/>
      <point x="250.0" y="1101.0" type="curve" smooth="yes"/>
      <point x="282.666666667" y="1101.0"/>
      <point x="309.166666667" y="1090.83333333"/>
      <point x="329.5" y="1070.5" type="curve" smooth="yes"/>
      <point x="349.833333333" y="1050.16666667"/>
      <point x="360.0" y="1023.66666667"/>
      <point x="360.0" y="991.0" type="curve" smooth="yes"/>
    </contour>
  </outline>
</glyph>
<glyph name="less" format="1">
  <advance width="963"/>
  <unicode hex="003C"/>
  <outline>
    <contour>
      <point x="709.033597238" y="916.667587866" type="line" smooth="yes"/>
      <point x="741.410193643" y="935.518435114"/>
      <point x="783.337176881" y="924.326648903"/>
      <point x="802.012212689" y="891.848325758" type="curve" smooth="yes"/>
      <point x="803.009154938" y="890.114513152" type="line" smooth="yes"/>
      <point x="821.675635393" y="857.651068882"/>
      <point x="810.275646103" y="815.803798764"/>
      <point x="777.72293397" y="797.293433042" type="curve" smooth="yes"/>
      <point x="351.434084447" y="554.893891156" type="line" smooth="yes"/>
      <point x="340.566287101" y="548.714163253"/>
      <point x="340.566287101" y="533.285836747"/>
      <point x="351.434084447" y="527.106108844" type="curve" smooth="yes"/>
      <point x="777.72293397" y="284.706566958" type="line" smooth="yes"/>
      <point x="810.275646103" y="266.196201236"/>
      <point x="821.675635393" y="224.348931118"/>
      <point x="803.009154938" y="191.885486848" type="curve" smooth="yes"/>
      <point x="802.012212689" y="190.151674242" type="line" smooth="yes"/>
      <point x="783.337176881" y="157.673351097"/>
      <point x="741.410193643" y="146.481564886"/>
      <point x="709.033597238" y="165.332412134" type="curve" smooth="yes"/>
      <point x="194.346748284" y="465.002057742" type="line" smooth="yes"/>
      <point x="173.597791377" y="477.082864889"/>
      <point x="160.0" y="500.734705549"/>
      <point x="160.0" y="524.744393469" type="curve" smooth="yes"/>
      <point x="160.0" y="557.255606531" type="line" smooth="yes"/>
      <point x="160.0" y="581.265294451"/>
      <point x="173.597791377" y="604.917135111"/>
      <point x="194.346748284" y="616.997942258" type="curve" smooth="yes"/>
    </contour>
  </outline>
</glyph>
<glyph name="equal" format="1">
  <advance width="1060"/>
  <unicode hex="003D"/>
  <outline>
    <contour>
      <point x="180.0" y="702.0" type="line" smooth="yes"/>
      <point x="180.0" y="738.29237092"/>
      <point x="209.70762908" y="768.0"/>
      <point x="246.0" y="768.0" type="curve" smooth="yes"/>
      <point x="814.0" y="768.0" type="line" smooth="yes"/>
      <point x="850.29237092" y="768.0"/>
      <point x="880.0" y="738.29237092"/>
      <point x="880.0" y="702.0" type="curve" smooth="yes"/>
      <point x="880.0" y="700.0" type="line" smooth="yes"/>
      <point x="880.0" y="663.70762908"/>
      <point x="850.29237092" y="634.0"/>
      <point x="814.0" y="634.0" type="curve" smooth="yes"/>
      <point x="246.0" y="634.0" type="line" smooth="yes"/>
      <point x="209.70762908" y="634.0"/>
      <point x="180.0" y="663.70762908"/>
      <point x="180.0" y="700.0" type="curve" smooth="yes"/>
    </contour>
    <contour>
      <point x="180.0" y="382.0" type="line" smooth="yes"/>
      <point x="180.0" y="418.29237092"/>
      <point x="209.70762908" y="448.0"/>
      <point x="246.0" y="448.0" type="curve" smooth="yes"/>
      <point x="814.0" y="448.0" type="line" smooth="yes"/>
      <point x="850.29237092" y="448.0"/>
      <point x="880.0" y="418.29237092"/>
      <point x="880.0" y="382.0" type="curve" smooth="yes"/>
      <point x="880.0" y="380.0" type="line" smooth="yes"/>
      <point x="880.0" y="343.70762908"/>
      <point x="850.29237092" y="314.0"/>
      <point x="814.0" y="314.0" type="curve" smooth="yes"/>
      <point x="246.0" y="314.0" type="line" smooth="yes"/>
      <point x="209.70762908" y="314.0"/>
      <point x="180.0" y="343.70762908"/>
      <point x="180.0" y="380.0" type="curve" smooth="yes"/>
    </contour>
  </outline>
</glyph>
<glyph name="greater" format="1">
  <advance width="963"/>
  <unicode hex="003E"/>
  <outline>
    <contour>
      <point x="803.0" y="524.744393469" type="line" smooth="yes"/>
      <point x="803.0" y="500.734705549"/>
      <point x="789.402208623" y="477.082864889"/>
      <point x="768.653251716" y="465.002057742" type="curve" smooth="yes"/>
      <point x="253.966402762" y="165.332412134" type="line" smooth="yes"/>
      <point x="221.589806357" y="146.481564886"/>
      <point x="179.662823119" y="157.673351097"/>
      <point x="160.987787311" y="190.151674242" type="curve" smooth="yes"/>
      <point x="159.990845062" y="191.885486848" type="line" smooth="yes"/>
      <point x="141.324364607" y="224.348931118"/>
      <point x="152.724353897" y="266.196201236"/>
      <point x="185.27706603" y="284.706566958" type="curve" smooth="yes"/>
      <point x="611.565915553" y="527.106108844" type="line" smooth="yes"/>
      <point x="622.433712899" y="533.285836747"/>
      <point x="622.433712899" y="548.714163253"/>
      <point x="611.565915553" y="554.893891156" type="curve" smooth="yes"/>
      <point x="185.27706603" y="797.293433042" type="line" smooth="yes"/>
      <point x="152.724353897" y="815.803798764"/>
      <point x="141.324364607" y="857.651068882"/>
      <point x="159.990845062" y="890.114513152" type="curve" smooth="yes"/>
      <point x="160.987787311" y="891.848325758" type="line" smooth="yes"/>
      <point x="179.662823119" y="924.326648903"/>
      <point x="221.589806357" y="935.518435114"/>
      <point x="253.966402762" y="916.667587866" type="curve" smooth="yes"/>
      <point x="768.653251716" y="616.997942258" type="line" smooth="yes"/>
      <point x="789.402208623" y="604.917135111"/>
      <point x="803.0" y="581.265294451"/>
      <point x="803.0" y="557.255606531" type="curve" smooth="yes"/>
    </contour>
  </outline>
</glyph>
<glyph name="question" format="1">
  <advance width="916"/>
  <unicode hex="003F"/>
  <outline>
    <contour>
      <point x="531.0" y="61.3333333333"/>
      <point x="520.833333333" y="34.8333333333"/>
      <point x="500.5" y="14.5" type="curve" smooth="yes"/>
      <point x="480.166666667" y="-5.83333333333"/>
      <point x="453.666666667" y="-16.0"/>
      <point x="421.0" y="-16.0" type="curve" smooth="yes"/>
      <point x="388.333333333" y="-16.0"/>
      <point x="361.833333333" y="-5.83333333333"/>
      <point x="341.5" y="14.5" type="curve" smooth="yes"/>
      <point x="321.166666667" y="34.8333333333"/>
      <point x="311.0" y="61.3333333333"/>
      <point x="311.0" y="94.0" type="curve" smooth="yes"/>
      <point x="311.0" y="126.666666667"/>
      <point x="321.166666667" y="153.166666667"/>
      <point x="341.5" y="173.5" type="curve" smooth="yes"/>
      <point x="361.833333333" y="193.833333333"/>
      <point x="388.333333333" y="204.0"/>
      <point x="421.0" y="204.0" type="curve" smooth="yes"/>
      <point x="453.666666667" y="204.0"/>
      <point x="480.166666667" y="193.833333333"/>
      <point x="500.5" y="173.5" type="curve" smooth="yes"/>
      <point x="520.833333333" y="153.166666667"/>
      <point x="531.0" y="126.666666667"/>
      <point x="531.0" y="94.0" type="curve" smooth="yes"/>
    </contour>
    <contour>
      <point x="126.043616961" y="1246.01671739" type="line" smooth="yes"/>
      <point x="102.134531615" y="1270.41374325"/>
      <point x="105.899619458" y="1317.66082931"/>
      <point x="133.370784819" y="1337.96339828" type="curve" smooth="yes"/>
      <point x="166.63165158" y="1362.54484695"/>
      <point x="201.591389974" y="1382.30704753"/>
      <point x="238.25" y="1397.25" type="curve" smooth="yes"/>
      <point x="295.083333333" y="1420.41666667"/>
      <point x="356.0" y="1432.0"/>
      <point x="421" y="1432" type="curve" smooth="yes"/>
      <point x="536.333333333" y="1432.0"/>
      <point x="631.0" y="1396.0"/>
      <point x="705.0" y="1324.0" type="curve" smooth="yes"/>
      <point x="779.0" y="1252.0"/>
      <point x="816.0" y="1161.33333333"/>
      <point x="816" y="1052" type="curve" smooth="yes"/>
      <point x="816.0" y="1012.0"/>
      <point x="809.833333333" y="973.583333333"/>
      <point x="797.5" y="936.75" type="curve" smooth="yes"/>
      <point x="785.166666667" y="899.916666667"/>
      <point x="766.666666667" y="864.666666667"/>
      <point x="742" y="831" type="curve" smooth="yes"/>
      <point x="723.333333333" y="805.666666667"/>
      <point x="686.666666667" y="771.666666667"/>
      <point x="632.0" y="729.0" type="curve" smooth="yes"/>
      <point x="577.333333333" y="686.333333333"/>
      <point x="543.333333333" y="653.333333333"/>
      <point x="530" y="630" type="curve" smooth="yes"/>
      <point x="513.333333333" y="601.333333333"/>
      <point x="502.0" y="574.0"/>
      <point x="496.0" y="548.0" type="curve" smooth="yes"/>
      <point x="490.0" y="522.0"/>
      <point x="487.0" y="488.333333333"/>
      <point x="487" y="447" type="curve"/>
      <point x="486.486311024" y="416.178661466" type="line" smooth="yes"/>
      <point x="486.219586145" y="400.175168697"/>
      <point x="472.823001546" y="387.0"/>
      <point x="456.817286223" y="387.0" type="curve" smooth="yes"/>
      <point x="371.008339143" y="387.0" type="line" smooth="yes"/>
      <point x="362.848546574" y="387.0"/>
      <point x="355.799071405" y="393.88313684"/>
      <point x="355.604263306" y="402.040603638" type="curve" smooth="yes"/>
      <point x="355.460535685" y="408.059107463"/>
      <point x="355.342447917" y="413.795572917"/>
      <point x="355.25" y="419.25" type="curve" smooth="yes"/>
      <point x="355.083333333" y="429.083333333"/>
      <point x="355.0" y="438.0"/>
      <point x="355" y="446" type="curve" smooth="yes"/>
      <point x="355.0" y="503.333333333"/>
      <point x="359.333333333" y="551.166666667"/>
      <point x="368.0" y="589.5" type="curve" smooth="yes"/>
      <point x="376.666666667" y="627.833333333"/>
      <point x="394.333333333" y="666.333333333"/>
      <point x="421" y="705" type="curve" smooth="yes"/>
      <point x="433.666666667" y="723.666666667"/>
      <point x="449.166666667" y="741.833333333"/>
      <point x="467.5" y="759.5" type="curve" smooth="yes"/>
      <point x="485.833333333" y="777.166666667"/>
      <point x="507.666666667" y="796.5"/>
      <point x="533.0" y="817.5" type="curve" smooth="yes"/>
      <point x="545.666666667" y="828.0"/>
      <point x="556.416666667" y="837.041666667"/>
      <point x="565.25" y="844.625" type="curve" smooth="yes"/>
      <point x="574.083333333" y="852.208333333"/>
      <point x="581.0" y="858.333333333"/>
      <point x="586" y="863" type="curve" smooth="yes"/>
      <point x="612.666666667" y="887.666666667"/>
      <point x="632.666666667" y="915.666666667"/>
      <point x="646.0" y="947.0" type="curve" smooth="yes"/>
      <point x="659.333333333" y="978.333333333"/>
      <point x="666.0" y="1013.0"/>
      <point x="666" y="1051" type="curve" smooth="yes"/>
      <point x="666.0" y="1123.66666667"/>
      <point x="643.833333333" y="1183.0"/>
      <point x="599.5" y="1229.0" type="curve" smooth="yes"/>
      <point x="555.166666667" y="1275.0"/>
      <point x="495.666666667" y="1298.0"/>
      <point x="421" y="1298" type="curve" smooth="yes"/>
      <point x="376.333333333" y="1298.0"/>
      <point x="333.75" y="1289.25"/>
      <point x="293.25" y="1271.75" type="curve" smooth="yes"/>
      <point x="271.694824219" y="1262.43603516"/>
      <point x="250.729784091" y="1250.64350057"/>
      <point x="230.354879618" y="1236.37239623" type="curve" smooth="yes"/>
      <point x="194.287792382" y="1211.11008564"/>
      <point x="156.858966612" y="1214.57248305"/>
      <point x="126.743545543" y="1245.30250455" type="curve" smooth="yes"/>
    </contour>
  </outline>
</glyph>
<glyph name="at" format="1">
  <advance width="1519"/>
  <unicode hex="0040"/>
  <outline>
    <contour>
      <point x="813.166666667" y="353.666666667"/>
      <point x="866.0" y="334.0"/>
      <point x="934" y="334" type="curve" smooth="yes"/>
      <point x="988.666666667" y="334.0"/>
      <point x="1037.33333333" y="347.333333333"/>
      <point x="1080.0" y="374.0" type="curve" smooth="yes"/>
      <point x="1122.66666667" y="400.666666667"/>
      <point x="1152.66666667" y="441.0"/>
      <point x="1170" y="495" type="curve" smooth="yes"/>
      <point x="1176.0" y="514.333333333"/>
      <point x="1180.5" y="536.666666667"/>
      <point x="1183.5" y="562.0" type="curve" smooth="yes"/>
      <point x="1186.5" y="587.333333333"/>
      <point x="1188.16666667" y="611.166666667"/>
      <point x="1188.5" y="633.5" type="curve" smooth="yes"/>
      <point x="1188.66666667" y="644.666666667"/>
      <point x="1188.79166667" y="659.375"/>
      <point x="1188.875" y="677.625" type="curve" smooth="yes"/>
      <point x="1188.94026693" y="691.918457031"/>
      <point x="1188.97997522" y="708.384397666"/>
      <point x="1188.99412489" y="727.022821903" type="curve" smooth="yes"/>
      <point x="1189.00068395" y="735.662644923"/>
      <point x="1181.66889703" y="743.0"/>
      <point x="1173.02907153" y="743.0" type="curve" smooth="yes"/>
      <point x="1044" y="743" type="line" smooth="yes"/>
      <point x="996.0" y="743.0"/>
      <point x="956.166666667" y="741.833333333"/>
      <point x="924.5" y="739.5" type="curve" smooth="yes"/>
      <point x="892.833333333" y="737.166666667"/>
      <point x="869.333333333" y="733.666666667"/>
      <point x="854" y="729" type="curve" smooth="yes"/>
      <point x="810.666666667" y="715.666666667"/>
      <point x="777.333333333" y="691.833333333"/>
      <point x="754.0" y="657.5" type="curve" smooth="yes"/>
      <point x="730.666666667" y="623.166666667"/>
      <point x="719.0" y="583.0"/>
      <point x="719" y="537" type="curve" smooth="yes"/>
      <point x="719.0" y="480.333333333"/>
      <point x="737.833333333" y="432.333333333"/>
      <point x="775.5" y="393.0" type="curve" smooth="yes"/>
    </contour>
    <contour>
      <point x="1112.66666667" y="1281.5"/>
      <point x="1167.33333333" y="1255.33333333"/>
      <point x="1214" y="1216" type="curve" smooth="yes"/>
      <point x="1243.33333333" y="1190.66666667"/>
      <point x="1267.16666667" y="1163.83333333"/>
      <point x="1285.5" y="1135.5" type="curve" smooth="yes"/>
      <point x="1303.83333333" y="1107.16666667"/>
      <point x="1316.5" y="1075.83333333"/>
      <point x="1323.5" y="1041.5" type="curve" smooth="yes"/>
      <point x="1330.5" y="1007.16666667"/>
      <point x="1334.83333333" y="979.166666667"/>
      <point x="1336.5" y="957.5" type="curve" smooth="yes"/>
      <point x="1338.16666667" y="935.833333333"/>
      <point x="1339.0" y="905.666666667"/>
      <point x="1339" y="867" type="curve" smooth="yes"/>
      <point x="1339.0" y="290.0" type="line" smooth="yes"/>
      <point x="1339.0" y="249.308553817"/>
      <point x="1305.69144618" y="216.0"/>
      <point x="1265.0" y="216.0" type="curve" smooth="yes"/>
      <point x="1245.5" y="216.0" type="line" smooth="yes"/>
      <point x="1214.48046916" y="216.0"/>
      <point x="1189.0" y="241.480469158"/>
      <point x="1189.0" y="272.5" type="curve" smooth="yes"/>
      <point x="1189.0" y="297.065066433" type="line" smooth="yes"/>
      <point x="1189.0" y="309.546305948"/>
      <point x="1175.0133882" y="315.356012257"/>
      <point x="1166.17032647" y="306.547970533" type="curve" smooth="yes"/>
      <point x="1134.39352679" y="274.897012313"/>
      <point x="1100.0867513" y="250.297688802"/>
      <point x="1063.25" y="232.75" type="curve" smooth="yes"/>
      <point x="1017.41666667" y="210.916666667"/>
      <point x="967.666666667" y="200.0"/>
      <point x="914" y="200" type="curve" smooth="yes"/>
      <point x="812.666666667" y="200.0"/>
      <point x="729.833333333" y="232.166666667"/>
      <point x="665.5" y="296.5" type="curve" smooth="yes"/>
      <point x="601.166666667" y="360.833333333"/>
      <point x="569.0" y="441.0"/>
      <point x="569" y="537" type="curve" smooth="yes"/>
      <point x="569.0" y="609.0"/>
      <point x="589.5" y="672.833333333"/>
      <point x="630.5" y="728.5" type="curve" smooth="yes"/>
      <point x="671.5" y="784.166666667"/>
      <point x="729.333333333" y="823.333333333"/>
      <point x="804" y="846" type="curve" smooth="yes"/>
      <point x="826.0" y="852.666666667"/>
      <point x="850.333333333" y="857.666666667"/>
      <point x="877.0" y="861.0" type="curve" smooth="yes"/>
      <point x="903.666666667" y="864.333333333"/>
      <point x="927.0" y="866.166666667"/>
      <point x="947.0" y="866.5" type="curve" smooth="yes"/>
      <point x="957.0" y="866.666666667"/>
      <point x="969.583333333" y="866.791666667"/>
      <point x="984.75" y="866.875" type="curve" smooth="yes"/>
      <point x="999.916666667" y="866.958333333"/>
      <point x="1017.66666667" y="867.0"/>
      <point x="1038" y="867" type="curve" smooth="yes"/>
      <point x="1173.03021703" y="867.0" type="line" smooth="yes"/>
      <point x="1181.66052904" y="867.0"/>
      <point x="1189.00425619" y="874.377890513"/>
      <point x="1188.96420097" y="883.00810957" type="curve" smooth="yes"/>
      <point x="1188.80968157" y="916.300554752"/>
      <point x="1188.15494792" y="941.464518229"/>
      <point x="1187.0" y="958.5" type="curve" smooth="yes"/>
      <point x="1185.66666667" y="978.166666667"/>
      <point x="1180.66666667" y="1001.16666667"/>
      <point x="1172.0" y="1027.5" type="curve" smooth="yes"/>
      <point x="1167.66666667" y="1040.66666667"/>
      <point x="1162.16666667" y="1053.125"/>
      <point x="1155.5" y="1064.875" type="curve" smooth="yes"/>
      <point x="1148.83333333" y="1076.625"/>
      <point x="1141.0" y="1087.66666667"/>
      <point x="1132" y="1098" type="curve" smooth="yes"/>
      <point x="1102.0" y="1132.0"/>
      <point x="1062.66666667" y="1154.16666667"/>
      <point x="1014.0" y="1164.5" type="curve" smooth="yes"/>
      <point x="965.333333333" y="1174.83333333"/>
      <point x="901.333333333" y="1180.0"/>
      <point x="822" y="1180" type="curve" smooth="yes"/>
      <point x="729.333333333" y="1180.0"/>
      <point x="655.333333333" y="1175.5"/>
      <point x="600.0" y="1166.5" type="curve" smooth="yes"/>
      <point x="544.666666667" y="1157.5"/>
      <point x="497.333333333" y="1137.0"/>
      <point x="458" y="1105" type="curve" smooth="yes"/>
      <point x="440.0" y="1090.33333333"/>
      <point x="424.166666667" y="1072.66666667"/>
      <point x="410.5" y="1052.0" type="curve" smooth="yes"/>
      <point x="396.833333333" y="1031.33333333"/>
      <point x="385.5" y="1010.66666667"/>
      <point x="376.5" y="990.0" type="curve" smooth="yes"/>
      <point x="367.5" y="969.333333333"/>
      <point x="360.0" y="943.166666667"/>
      <point x="354.0" y="911.5" type="curve" smooth="yes"/>
      <point x="348.0" y="879.833333333"/>
      <point x="343.333333333" y="852.5"/>
      <point x="340.0" y="829.5" type="curve" smooth="yes"/>
      <point x="336.666666667" y="806.5"/>
      <point x="334.333333333" y="775.166666667"/>
      <point x="333.0" y="735.5" type="curve" smooth="yes"/>
      <point x="331.666666667" y="695.833333333"/>
      <point x="330.833333333" y="664.666666667"/>
      <point x="330.5" y="642.0" type="curve" smooth="yes"/>
      <point x="330.333333333" y="630.666666667"/>
      <point x="330.208333333" y="616.583333333"/>
      <point x="330.125" y="599.75" type="curve" smooth="yes"/>
      <point x="330.041666667" y="582.916666667"/>
      <point x="330.0" y="563.333333333"/>
      <point x="330" y="541" type="curve" smooth="yes"/>
      <point x="330.0" y="462.333333333"/>
      <point x="331.166666667" y="398.666666667"/>
      <point x="333.5" y="350.0" type="curve" smooth="yes"/>
      <point x="335.833333333" y="301.333333333"/>
      <point x="341.0" y="250.5"/>
      <point x="349.0" y="197.5" type="curve" smooth="yes"/>
      <point x="357.0" y="144.5"/>
      <point x="370.0" y="100.5"/>
      <point x="388.0" y="65.5" type="curve" smooth="yes"/>
      <point x="406.0" y="30.5"/>
      <point x="429.333333333" y="1.0"/>
      <point x="458" y="-23" type="curve" smooth="yes"/>
      <point x="496.0" y="-54.3333333333"/>
      <point x="540.166666667" y="-74.6666666667"/>
      <point x="590.5" y="-84.0" type="curve" smooth="yes"/>
      <point x="640.833333333" y="-93.3333333333"/>
      <point x="714.666666667" y="-98.0"/>
      <point x="812" y="-98" type="curve" smooth="yes"/>
      <point x="946.0" y="-98.0"/>
      <point x="1044.0" y="-94.8333333333"/>
      <point x="1106.0" y="-88.5" type="curve" smooth="yes"/>
      <point x="1148.83691406" y="-84.1241861979"/>
      <point x="1193.10593104" y="-74.7360121806"/>
      <point x="1238.80705094" y="-60.3354779482" type="curve" smooth="yes"/>
      <point x="1276.34401004" y="-48.5074906756"/>
      <point x="1312.534645" y="-65.2043514145"/>
      <point x="1327.89782837" y="-101.438274447" type="curve" smooth="yes"/>
      <point x="1328.67517356" y="-103.271635747" type="line" smooth="yes"/>
      <point x="1341.94025012" y="-134.557193672"/>
      <point x="1322.78202623" y="-176.015164244"/>
      <point x="1290.35872579" y="-186.18757689" type="curve" smooth="yes"/>
      <point x="1256.59418464" y="-196.780787349"/>
      <point x="1221.47460938" y="-205.218261719"/>
      <point x="1185.0" y="-211.5" type="curve" smooth="yes"/>
      <point x="1125.0" y="-221.833333333"/>
      <point x="1072.0" y="-227.833333333"/>
      <point x="1026.0" y="-229.5" type="curve" smooth="yes"/>
      <point x="1003.0" y="-230.333333333"/>
      <point x="973.666666667" y="-230.958333333"/>
      <point x="938.0" y="-231.375" type="curve" smooth="yes"/>
      <point x="902.333333333" y="-231.791666667"/>
      <point x="860.333333333" y="-232.0"/>
      <point x="812" y="-232" type="curve" smooth="yes"/>
      <point x="694.0" y="-232.0"/>
      <point x="602.166666667" y="-225.0"/>
      <point x="536.5" y="-211.0" type="curve" smooth="yes"/>
      <point x="470.833333333" y="-197.0"/>
      <point x="410.666666667" y="-167.0"/>
      <point x="356" y="-121" type="curve" smooth="yes"/>
      <point x="328.666666667" y="-98.3333333333"/>
      <point x="305.0" y="-73.1666666667"/>
      <point x="285.0" y="-45.5" type="curve" smooth="yes"/>
      <point x="265.0" y="-17.8333333333"/>
      <point x="248.833333333" y="13.5"/>
      <point x="236.5" y="48.5" type="curve" smooth="yes"/>
      <point x="224.166666667" y="83.5"/>
      <point x="214.0" y="117.5"/>
      <point x="206.0" y="150.5" type="curve" smooth="yes"/>
      <point x="198.0" y="183.5"/>
      <point x="192.166666667" y="223.5"/>
      <point x="188.5" y="270.5" type="curve" smooth="yes"/>
      <point x="184.833333333" y="317.5"/>
      <point x="182.5" y="360.0"/>
      <point x="181.5" y="398.0" type="curve" smooth="yes"/>
      <point x="180.5" y="436.0"/>
      <point x="180.0" y="483.666666667"/>
      <point x="180.0" y="541.0" type="curve" smooth="yes"/>
      <point x="180.0" y="598.333333333"/>
      <point x="180.5" y="646.166666667"/>
      <point x="181.5" y="684.5" type="curve" smooth="yes"/>
      <point x="182.5" y="722.833333333"/>
      <point x="184.833333333" y="765.5"/>
      <point x="188.5" y="812.5" type="curve" smooth="yes"/>
      <point x="192.166666667" y="859.5"/>
      <point x="198.0" y="899.666666667"/>
      <point x="206.0" y="933.0" type="curve" smooth="yes"/>
      <point x="214.0" y="966.333333333"/>
      <point x="224.166666667" y="1000.5"/>
      <point x="236.5" y="1035.5" type="curve" smooth="yes"/>
      <point x="248.833333333" y="1070.5"/>
      <point x="265.0" y="1101.66666667"/>
      <point x="285.0" y="1129.0" type="curve" smooth="yes"/>
      <point x="305.0" y="1156.33333333"/>
      <point x="328.666666667" y="1181.0"/>
      <point x="356" y="1203" type="curve" smooth="yes"/>
      <point x="412.0" y="1249.0"/>
      <point x="475.166666667" y="1279.0"/>
      <point x="545.5" y="1293.0" type="curve" smooth="yes"/>
      <point x="615.833333333" y="1307.0"/>
      <point x="707.666666667" y="1314.0"/>
      <point x="821" y="1314" type="curve" smooth="yes"/>
      <point x="911.0" y="1314.0"/>
      <point x="987.333333333" y="1307.5"/>
      <point x="1050.0" y="1294.5" type="curve" smooth="yes"/>
    </contour>
  </outline>
</glyph>
<glyph name="A" format="1">
  <advance width="1190"/>
  <unicode hex="0041"/>
  <outline>
    <contour>
      <point x="610.200252755" y="1158.23496706" type="line" smooth="yes"/>
      <point x="605.38049617" y="1173.06340966"/>
      <point x="584.61950383" y="1173.06340966"/>
      <point x="579.799747245" y="1158.23496706" type="curve" smooth="yes"/>
      <point x="366.80090618" y="502.923639015" type="line" smooth="yes"/>
      <point x="363.40045309" y="492.461819507"/>
      <point x="371.000579468" y="482.0"/>
      <point x="382.001158935" y="482.0" type="curve" smooth="yes"/>
      <point x="807.998841065" y="482.0" type="line" smooth="yes"/>
      <point x="818.999420532" y="482.0"/>
      <point x="826.59954691" y="492.461819507"/>
      <point x="823.19909382" y="502.923639015" type="curve" smooth="yes"/>
    </contour>
    <contour>
      <point x="620.077946087" y="1416.0" type="line" smooth="yes"/>
      <point x="649.506066342" y="1416.0"/>
      <point x="676.57935773" y="1396.5908947"/>
      <point x="686.026940302" y="1368.72052611" type="curve" smooth="yes"/>
      <point x="1115.91740591" y="100.543652556" type="line" smooth="yes"/>
      <point x="1132.69790336" y="51.0411851014"/>
      <point x="1096.10598248" y="6.60011360537e-15"/>
      <point x="1043.83668577" y="1.30012562963e-14" type="curve" smooth="yes"/>
      <point x="1041.83668577" y="-6.71555717e-15" type="line" smooth="yes"/>
      <point x="1009.57784277" y="-2.76498828784e-15"/>
      <point x="980.030022868" y="21.4750646767"/>
      <point x="970.071436465" y="52.1582768363" type="curve" smooth="yes"/>
      <point x="879.586056232" y="330.951069988" type="line" smooth="yes"/>
      <point x="877.508256528" y="337.352939345"/>
      <point x="871.114305527" y="342.0"/>
      <point x="864.383690185" y="342.0" type="curve" smooth="yes"/>
      <point x="325.616309815" y="342.0" type="line" smooth="yes"/>
      <point x="318.885694473" y="342.0"/>
      <point x="312.491743472" y="337.352939345"/>
      <point x="310.413943768" y="330.951069988" type="curve" smooth="yes"/>
      <point x="219.928563535" y="52.1582768363" type="line" smooth="yes"/>
      <point x="209.969977132" y="21.4750646767"/>
      <point x="180.422157231" y="2.76498828784e-15"/>
      <point x="148.163314233" y="6.71555717e-15" type="curve" smooth="yes"/>
      <point x="146.163314233" y="-1.30012562963e-14" type="line" smooth="yes"/>
      <point x="93.8940175238" y="-6.60011360537e-15"/>
      <point x="57.3020966445" y="51.0411851014"/>
      <point x="74.0825940868" y="100.543652556" type="curve" smooth="yes"/>
      <point x="503.973059698" y="1368.72052611" type="line" smooth="yes"/>
      <point x="513.42064227" y="1396.5908947"/>
      <point x="540.493933658" y="1416.0"/>
      <point x="569.922053913" y="1416.0" type="curve" smooth="yes"/>
    </contour>
  </outline>
</glyph>
<glyph name="B" format="1">
  <advance width="1166"/>
  <unicode hex="0042"/>
  <outline>
    <contour>
      <point x="532" y="792" type="line" smooth="yes"/>
      <point x="564.666666667" y="792.0"/>
      <point x="589.0" y="792.166666667"/>
      <point x="605.0" y="792.5" type="curve" smooth="yes"/>
      <point x="621.0" y="792.833333333"/>
      <point x="638.833333333" y="794.666666667"/>
      <point x="658.5" y="798.0" type="curve" smooth="yes"/>
      <point x="668.333333333" y="799.666666667"/>
      <point x="677.541666667" y="801.666666667"/>
      <point x="686.125" y="804.0" type="curve" smooth="yes"/>
      <point x="694.708333333" y="806.333333333"/>
      <point x="702.666666667" y="809.0"/>
      <point x="710" y="812" type="curve" smooth="yes"/>
      <point x="755.333333333" y="832.0"/>
      <point x="788.666666667" y="862.666666667"/>
      <point x="810.0" y="904.0" type="curve" smooth="yes"/>
      <point x="831.333333333" y="945.333333333"/>
      <point x="842.0" y="988.666666667"/>
      <point x="842" y="1034" type="curve" smooth="yes"/>
      <point x="842.0" y="1052.0"/>
      <point x="840.0" y="1070.5"/>
      <point x="836.0" y="1089.5" type="curve" smooth="yes"/>
      <point x="832.0" y="1108.5"/>
      <point x="825.333333333" y="1129.16666667"/>
      <point x="816.0" y="1151.5" type="curve" smooth="yes"/>
      <point x="806.666666667" y="1173.83333333"/>
      <point x="792.166666667" y="1194.66666667"/>
      <point x="772.5" y="1214.0" type="curve" smooth="yes"/>
      <point x="752.833333333" y="1233.33333333"/>
      <point x="729.333333333" y="1248.33333333"/>
      <point x="702" y="1259" type="curve" smooth="yes"/>
      <point x="687.333333333" y="1264.66666667"/>
      <point x="665.833333333" y="1268.91666667"/>
      <point x="637.5" y="1271.75" type="curve" smooth="yes"/>
      <point x="609.166666667" y="1274.58333333"/>
      <point x="574.0" y="1276.0"/>
      <point x="532" y="1276" type="curve" smooth="yes"/>
      <point x="351.983031273" y="1276.0" type="line" smooth="yes"/>
      <point x="343.334900514" y="1276.0"/>
      <point x="336.0" y="1268.66509949"/>
      <point x="336.0" y="1260.01696873" type="curve" smooth="yes"/>
      <point x="336.0" y="807.983031273" type="line" smooth="yes"/>
      <point x="336.0" y="799.334900514"/>
      <point x="343.334900514" y="792.0"/>
      <point x="351.983031273" y="792.0" type="curve" smooth="yes"/>
    </contour>
    <contour>
      <point x="336.0" y="155.983031273" type="line" smooth="yes"/>
      <point x="336.0" y="147.334900514"/>
      <point x="343.334900514" y="140.0"/>
      <point x="351.983031273" y="140.0" type="curve" smooth="yes"/>
      <point x="562" y="140" type="line" smooth="yes"/>
      <point x="596.0" y="140.0"/>
      <point x="621.333333333" y="140.333333333"/>
      <point x="638.0" y="141.0" type="curve" smooth="yes"/>
      <point x="654.666666667" y="141.666666667"/>
      <point x="673.833333333" y="143.666666667"/>
      <point x="695.5" y="147.0" type="curve" smooth="yes"/>
      <point x="706.333333333" y="148.666666667"/>
      <point x="716.541666667" y="150.833333333"/>
      <point x="726.125" y="153.5" type="curve" smooth="yes"/>
      <point x="735.708333333" y="156.166666667"/>
      <point x="744.666666667" y="159.333333333"/>
      <point x="753" y="163" type="curve" smooth="yes"/>
      <point x="801.666666667" y="185.0"/>
      <point x="836.666666667" y="217.833333333"/>
      <point x="858.0" y="261.5" type="curve" smooth="yes"/>
      <point x="879.333333333" y="305.166666667"/>
      <point x="890.0" y="350.0"/>
      <point x="890" y="396" type="curve" smooth="yes"/>
      <point x="890.0" y="418.0"/>
      <point x="887.5" y="439.833333333"/>
      <point x="882.5" y="461.5" type="curve" smooth="yes"/>
      <point x="877.5" y="483.166666667"/>
      <point x="869.833333333" y="505.166666667"/>
      <point x="859.5" y="527.5" type="curve" smooth="yes"/>
      <point x="849.166666667" y="549.833333333"/>
      <point x="834.0" y="570.333333333"/>
      <point x="814.0" y="589.0" type="curve" smooth="yes"/>
      <point x="794.0" y="607.666666667"/>
      <point x="770.333333333" y="622.333333333"/>
      <point x="743" y="633" type="curve" smooth="yes"/>
      <point x="727.666666667" y="639.0"/>
      <point x="709.833333333" y="643.5"/>
      <point x="689.5" y="646.5" type="curve" smooth="yes"/>
      <point x="669.166666667" y="649.5"/>
      <point x="651.166666667" y="651.166666667"/>
      <point x="635.5" y="651.5" type="curve" smooth="yes"/>
      <point x="627.666666667" y="651.666666667"/>
      <point x="617.625" y="651.791666667"/>
      <point x="605.375" y="651.875" type="curve" smooth="yes"/>
      <point x="593.125" y="651.958333333"/>
      <point x="578.666666667" y="652.0"/>
      <point x="562" y="652" type="curve" smooth="yes"/>
      <point x="351.983031273" y="652.0" type="line" smooth="yes"/>
      <point x="343.334900514" y="652.0"/>
      <point x="336.0" y="644.665099486"/>
      <point x="336.0" y="636.016968727" type="curve" smooth="yes"/>
    </contour>
    <contour>
      <point x="1028.33333333" y="541.833333333"/>
      <point x="1046.0" y="474.0"/>
      <point x="1046" y="396" type="curve" smooth="yes"/>
      <point x="1046.0" y="310.0"/>
      <point x="1022.16666667" y="231.833333333"/>
      <point x="974.5" y="161.5" type="curve" smooth="yes"/>
      <point x="926.833333333" y="91.1666666667"/>
      <point x="859.0" y="43.6666666667"/>
      <point x="771" y="19" type="curve" smooth="yes"/>
      <point x="748.666666667" y="12.6666666667"/>
      <point x="720.083333333" y="7.91666666667"/>
      <point x="685.25" y="4.75" type="curve" smooth="yes"/>
      <point x="650.416666667" y="1.58333333333"/>
      <point x="609.333333333" y="0.0"/>
      <point x="562" y="0" type="curve" smooth="yes"/>
      <point x="280.0" y="-1.22464679915e-14" type="line" smooth="yes"/>
      <point x="225.011559212" y="-5.51232619135e-15"/>
      <point x="180.0" y="45.0115592119"/>
      <point x="180.0" y="100.0" type="curve" smooth="yes"/>
      <point x="180.0" y="1316.0" type="line" smooth="yes"/>
      <point x="180.0" y="1370.98844079"/>
      <point x="225.011559212" y="1416.0"/>
      <point x="280.0" y="1416.0" type="curve" smooth="yes"/>
      <point x="532" y="1416" type="line" smooth="yes"/>
      <point x="576.666666667" y="1416.0"/>
      <point x="615.166666667" y="1414.66666667"/>
      <point x="647.5" y="1412.0" type="curve" smooth="yes"/>
      <point x="679.833333333" y="1409.33333333"/>
      <point x="706.0" y="1405.33333333"/>
      <point x="726" y="1400" type="curve" smooth="yes"/>
      <point x="806.666666667" y="1378.66666667"/>
      <point x="872.166666667" y="1335.0"/>
      <point x="922.5" y="1269.0" type="curve" smooth="yes"/>
      <point x="972.833333333" y="1203.0"/>
      <point x="998.0" y="1124.66666667"/>
      <point x="998" y="1034" type="curve" smooth="yes"/>
      <point x="998.0" y="969.333333333"/>
      <point x="984.833333333" y="911.5"/>
      <point x="958.5" y="860.5" type="curve" smooth="yes"/>
      <point x="936.242675781" y="817.394042969"/>
      <point x="906.008017421" y="780.836643815"/>
      <point x="867.796024919" y="750.827802539" type="curve" smooth="yes"/>
      <point x="857.372165495" y="742.641682882"/>
      <point x="858.216450476" y="728.623358943"/>
      <point x="869.553085327" y="721.744056702" type="curve" smooth="yes"/>
      <point x="921.072382609" y="690.481091817"/>
      <point x="962.221354167" y="649.733072917"/>
      <point x="993.0" y="599.5" type="curve" smooth="yes"/>
    </contour>
  </outline>
</glyph>
<glyph name="C" format="1">
  <advance width="1114"/>
  <unicode hex="0043"/>
  <outline>
    <contour>
      <point x="853.98453776" y="1391.3285319"/>
      <point x="894.361758908" y="1373.4408868"/>
      <point x="933.631663442" y="1351.08706468" type="curve" smooth="yes"/>
      <point x="963.883327007" y="1333.8667451"/>
      <point x="974.728938282" y="1288.09340742"/>
      <point x="955.420091726" y="1259.13013759" type="curve" smooth="yes"/>
      <point x="954.86539153" y="1258.29808729" type="line" smooth="yes"/>
      <point x="930.31004135" y="1221.46506202"/>
      <point x="889.339829761" y="1211.42420828"/>
      <point x="850.536144825" y="1232.72939564" type="curve" smooth="yes"/>
      <point x="822.835246245" y="1247.93859124"/>
      <point x="795.301757812" y="1260.19905599"/>
      <point x="767.5" y="1269.75" type="curve" smooth="yes"/>
      <point x="718.5" y="1286.58333333"/>
      <point x="668.666666667" y="1295.0"/>
      <point x="618" y="1295" type="curve" smooth="yes"/>
      <point x="548.666666667" y="1295.0"/>
      <point x="490.5" y="1280.83333333"/>
      <point x="443.5" y="1252.5" type="curve" smooth="yes"/>
      <point x="396.5" y="1224.16666667"/>
      <point x="360.666666667" y="1181.66666667"/>
      <point x="336" y="1125" type="curve" smooth="yes"/>
      <point x="314.666666667" y="1076.33333333"/>
      <point x="301.0" y="1018.66666667"/>
      <point x="295.0" y="952.0" type="curve" smooth="yes"/>
      <point x="289.0" y="885.333333333"/>
      <point x="286.0" y="804.0"/>
      <point x="286.0" y="708.0" type="curve" smooth="yes"/>
      <point x="286.0" y="612.0"/>
      <point x="289.0" y="530.666666667"/>
      <point x="295.0" y="464.0" type="curve" smooth="yes"/>
      <point x="301.0" y="397.333333333"/>
      <point x="314.666666667" y="339.666666667"/>
      <point x="336" y="291" type="curve" smooth="yes"/>
      <point x="360.666666667" y="234.333333333"/>
      <point x="396.5" y="191.833333333"/>
      <point x="443.5" y="163.5" type="curve" smooth="yes"/>
      <point x="490.5" y="135.166666667"/>
      <point x="548.666666667" y="121.0"/>
      <point x="618" y="121" type="curve" smooth="yes"/>
      <point x="679.333333333" y="121.0"/>
      <point x="737.0" y="130.916666667"/>
      <point x="791.0" y="150.75" type="curve" smooth="yes"/>
      <point x="822.640625" y="162.37109375"/>
      <point x="853.022399902" y="177.39680481"/>
      <point x="882.145324707" y="195.827133179" type="curve" smooth="yes"/>
      <point x="921.020222516" y="220.428959291"/>
      <point x="962.539132087" y="212.925689521"/>
      <point x="990.344244192" y="176.273496292" type="curve" smooth="yes"/>
      <point x="990.948630674" y="175.476805021" type="line" smooth="yes"/>
      <point x="1011.53370321" y="148.341936675"/>
      <point x="1003.46992253" y="102.99436065"/>
      <point x="974.792231116" y="84.6194781536" type="curve" smooth="yes"/>
      <point x="929.684424082" y="55.7171986103"/>
      <point x="883.811848958" y="33.3448893229"/>
      <point x="836.0" y="16.75" type="curve" smooth="yes"/>
      <point x="767.333333333" y="-7.08333333333"/>
      <point x="694.666666667" y="-19.0"/>
      <point x="618" y="-19" type="curve" smooth="yes"/>
      <point x="514.666666667" y="-19.0"/>
      <point x="426.5" y="4.0"/>
      <point x="353.5" y="50.0" type="curve" smooth="yes"/>
      <point x="280.5" y="96.0"/>
      <point x="226.333333333" y="158.666666667"/>
      <point x="191" y="238" type="curve" smooth="yes"/>
      <point x="173.0" y="278.0"/>
      <point x="159.166666667" y="326.833333333"/>
      <point x="149.5" y="384.5" type="curve" smooth="yes"/>
      <point x="139.833333333" y="442.166666667"/>
      <point x="134.166666667" y="493.166666667"/>
      <point x="132.5" y="537.5" type="curve" smooth="yes"/>
      <point x="131.666666667" y="559.666666667"/>
      <point x="131.041666667" y="584.958333333"/>
      <point x="130.625" y="613.375" type="curve" smooth="yes"/>
      <point x="130.208333333" y="641.791666667"/>
      <point x="130.0" y="673.333333333"/>
      <point x="130" y="708" type="curve" smooth="yes"/>
      <point x="130.0" y="814.666666667"/>
      <point x="133.833333333" y="905.666666667"/>
      <point x="141.5" y="981.0" type="curve" smooth="yes"/>
      <point x="149.166666667" y="1056.33333333"/>
      <point x="165.666666667" y="1122.0"/>
      <point x="191" y="1178" type="curve" smooth="yes"/>
      <point x="227.666666667" y="1258.0"/>
      <point x="282.5" y="1320.83333333"/>
      <point x="355.5" y="1366.5" type="curve" smooth="yes"/>
      <point x="428.5" y="1412.16666667"/>
      <point x="516.0" y="1435.0"/>
      <point x="618" y="1435" type="curve" smooth="yes"/>
      <point x="685.333333333" y="1435.0"/>
      <point x="750.166666667" y="1424.91666667"/>
      <point x="812.5" y="1404.75" type="curve" smooth="yes"/>
    </contour>
  </outline>
</glyph>
<glyph name="D" format="1">
  <advance width="1217"/>
  <unicode hex="0044"/>
  <outline>
    <contour>
      <point x="336.0" y="155.983031273" type="line" smooth="yes"/>
      <point x="336.0" y="147.334900514"/>
      <point x="343.334900514" y="140.0"/>
      <point x="351.983031273" y="140.0" type="curve" smooth="yes"/>
      <point x="539" y="140" type="line" smooth="yes"/>
      <point x="573.0" y="140.0"/>
      <point x="599.833333333" y="140.333333333"/>
      <point x="619.5" y="141.0" type="curve" smooth="yes"/>
      <point x="639.166666667" y="141.666666667"/>
      <point x="663.5" y="144.833333333"/>
      <point x="692.5" y="150.5" type="curve" smooth="yes"/>
      <point x="707.0" y="153.333333333"/>
      <point x="720.208333333" y="156.791666667"/>
      <point x="732.125" y="160.875" type="curve" smooth="yes"/>
      <point x="744.041666667" y="164.958333333"/>
      <point x="754.666666667" y="169.666666667"/>
      <point x="764" y="175" type="curve" smooth="yes"/>
      <point x="787.333333333" y="188.333333333"/>
      <point x="808.0" y="205.0"/>
      <point x="826.0" y="225.0" type="curve" smooth="yes"/>
      <point x="844.0" y="245.0"/>
      <point x="858.833333333" y="264.833333333"/>
      <point x="870.5" y="284.5" type="curve" smooth="yes"/>
      <point x="882.166666667" y="304.166666667"/>
      <point x="892.0" y="329.166666667"/>
      <point x="900.0" y="359.5" type="curve" smooth="yes"/>
      <point x="908.0" y="389.833333333"/>
      <point x="914.0" y="416.166666667"/>
      <point x="918.0" y="438.5" type="curve" smooth="yes"/>
      <point x="922.0" y="460.833333333"/>
      <point x="925.0" y="490.666666667"/>
      <point x="927.0" y="528.0" type="curve" smooth="yes"/>
      <point x="929.0" y="565.333333333"/>
      <point x="930.166666667" y="594.5"/>
      <point x="930.5" y="615.5" type="curve" smooth="yes"/>
      <point x="930.833333333" y="636.5"/>
      <point x="931.0" y="667.333333333"/>
      <point x="931.0" y="708.0" type="curve" smooth="yes"/>
      <point x="931.0" y="748.666666667"/>
      <point x="930.833333333" y="779.5"/>
      <point x="930.5" y="800.5" type="curve" smooth="yes"/>
      <point x="930.166666667" y="821.5"/>
      <point x="929.0" y="850.666666667"/>
      <point x="927.0" y="888.0" type="curve" smooth="yes"/>
      <point x="925.0" y="925.333333333"/>
      <point x="922.0" y="955.166666667"/>
      <point x="918.0" y="977.5" type="curve" smooth="yes"/>
      <point x="914.0" y="999.833333333"/>
      <point x="908.0" y="1026.16666667"/>
      <point x="900.0" y="1056.5" type="curve" smooth="yes"/>
      <point x="892.0" y="1086.83333333"/>
      <point x="882.166666667" y="1111.83333333"/>
      <point x="870.5" y="1131.5" type="curve" smooth="yes"/>
      <point x="858.833333333" y="1151.16666667"/>
      <point x="844.0" y="1171.0"/>
      <point x="826.0" y="1191.0" type="curve" smooth="yes"/>
      <point x="808.0" y="1211.0"/>
      <point x="787.333333333" y="1227.66666667"/>
      <point x="764" y="1241" type="curve" smooth="yes"/>
      <point x="745.333333333" y="1251.66666667"/>
      <point x="721.5" y="1259.83333333"/>
      <point x="692.5" y="1265.5" type="curve" smooth="yes"/>
      <point x="663.5" y="1271.16666667"/>
      <point x="639.166666667" y="1274.33333333"/>
      <point x="619.5" y="1275.0" type="curve" smooth="yes"/>
      <point x="609.666666667" y="1275.33333333"/>
      <point x="598.041666667" y="1275.58333333"/>
      <point x="584.625" y="1275.75" type="curve" smooth="yes"/>
      <point x="571.208333333" y="1275.91666667"/>
      <point x="556.0" y="1276.0"/>
      <point x="539" y="1276" type="curve" smooth="yes"/>
      <point x="351.983031273" y="1276.0" type="line" smooth="yes"/>
      <point x="343.334900514" y="1276.0"/>
      <point x="336.0" y="1268.66509949"/>
      <point x="336.0" y="1260.01696873" type="curve" smooth="yes"/>
    </contour>
    <contour>
      <point x="539" y="1416" type="line" smooth="yes"/>
      <point x="589.0" y="1416.0"/>
      <point x="633.083333333" y="1414.08333333"/>
      <point x="671.25" y="1410.25" type="curve" smooth="yes"/>
      <point x="709.416666667" y="1406.41666667"/>
      <point x="741.666666667" y="1400.66666667"/>
      <point x="768" y="1393" type="curve" smooth="yes"/>
      <point x="829.333333333" y="1375.0"/>
      <point x="881.833333333" y="1344.83333333"/>
      <point x="925.5" y="1302.5" type="curve" smooth="yes"/>
      <point x="969.166666667" y="1260.16666667"/>
      <point x="1003.33333333" y="1211.33333333"/>
      <point x="1028" y="1156" type="curve" smooth="yes"/>
      <point x="1046.0" y="1114.66666667"/>
      <point x="1059.66666667" y="1065.16666667"/>
      <point x="1069.0" y="1007.5" type="curve" smooth="yes"/>
      <point x="1078.33333333" y="949.833333333"/>
      <point x="1083.66666667" y="902.0"/>
      <point x="1085.0" y="864.0" type="curve" smooth="yes"/>
      <point x="1086.33333333" y="826.0"/>
      <point x="1087.0" y="774.0"/>
      <point x="1087.0" y="708.0" type="curve" smooth="yes"/>
      <point x="1087.0" y="642.0"/>
      <point x="1086.33333333" y="590.0"/>
      <point x="1085.0" y="552.0" type="curve" smooth="yes"/>
      <point x="1083.66666667" y="514.0"/>
      <point x="1078.33333333" y="466.166666667"/>
      <point x="1069.0" y="408.5" type="curve" smooth="yes"/>
      <point x="1059.66666667" y="350.833333333"/>
      <point x="1046.0" y="301.333333333"/>
      <point x="1028" y="260" type="curve" smooth="yes"/>
      <point x="1003.33333333" y="204.666666667"/>
      <point x="969.166666667" y="155.833333333"/>
      <point x="925.5" y="113.5" type="curve" smooth="yes"/>
      <point x="881.833333333" y="71.1666666667"/>
      <point x="829.333333333" y="41.0"/>
      <point x="768" y="23" type="curve" smooth="yes"/>
      <point x="741.666666667" y="15.3333333333"/>
      <point x="709.416666667" y="9.58333333333"/>
      <point x="671.25" y="5.75" type="curve" smooth="yes"/>
      <point x="633.083333333" y="1.91666666667"/>
      <point x="589.0" y="0.0"/>
      <point x="539" y="0" type="curve" smooth="yes"/>
      <point x="280.0" y="-1.22464679915e-14" type="line" smooth="yes"/>
      <point x="225.011559212" y="-5.51232619135e-15"/>
      <point x="180.0" y="45.0115592119"/>
      <point x="180.0" y="100.0" type="curve" smooth="yes"/>
      <point x="180.0" y="1316.0" type="line" smooth="yes"/>
      <point x="180.0" y="1370.98844079"/>
      <point x="225.011559212" y="1416.0"/>
      <point x="280.0" y="1416.0" type="curve" smooth="yes"/>
    </contour>
  </outline>
</glyph>
<glyph name="E" format="1">
  <advance width="1100"/>
  <unicode hex="0045"/>
  <outline>
    <contour>
      <point x="891.0" y="1416.0" type="line" smooth="yes"/>
      <point x="928.942024144" y="1416.0"/>
      <point x="960.0" y="1384.94202414"/>
      <point x="960.0" y="1347.0" type="curve" smooth="yes"/>
      <point x="960.0" y="1345.0" type="line" smooth="yes"/>
      <point x="960.0" y="1307.05797586"/>
      <point x="928.942024144" y="1276.0"/>
      <point x="891.0" y="1276.0" type="curve" smooth="yes"/>
      <point x="351.983031273" y="1276.0" type="line" smooth="yes"/>
      <point x="343.334900514" y="1276.0"/>
      <point x="336.0" y="1268.66509949"/>
      <point x="336.0" y="1260.01696873" type="curve" smooth="yes"/>
      <point x="336.0" y="807.983031273" type="line" smooth="yes"/>
      <point x="336.0" y="799.334900514"/>
      <point x="343.334900514" y="792.0"/>
      <point x="351.983031273" y="792.0" type="curve" smooth="yes"/>
      <point x="801.0" y="792.0" type="line" smooth="yes"/>
      <point x="838.942024144" y="792.0"/>
      <point x="870.0" y="760.942024144"/>
      <point x="870.0" y="723.0" type="curve" smooth="yes"/>
      <point x="870.0" y="721.0" type="line" smooth="yes"/>
      <point x="870.0" y="683.057975856"/>
      <point x="838.942024144" y="652.0"/>
      <point x="801.0" y="652.0" type="curve" smooth="yes"/>
      <point x="351.983031273" y="652.0" type="line" smooth="yes"/>
      <point x="343.334900514" y="652.0"/>
      <point x="336.0" y="644.665099486"/>
      <point x="336.0" y="636.016968727" type="curve" smooth="yes"/>
      <point x="336.0" y="155.983031273" type="line" smooth="yes"/>
      <point x="336.0" y="147.334900514"/>
      <point x="343.334900514" y="140.0"/>
      <point x="351.983031273" y="140.0" type="curve" smooth="yes"/>
      <point x="891.0" y="140.0" type="line" smooth="yes"/>
      <point x="928.942024144" y="140.0"/>
      <point x="960.0" y="108.942024144"/>
      <point x="960.0" y="71.0" type="curve" smooth="yes"/>
      <point x="960.0" y="69.0" type="line" smooth="yes"/>
      <point x="960.0" y="31.0579758562"/>
      <point x="928.942024144" y="3.80350507203e-15"/>
      <point x="891.0" y="8.45006291412e-15" type="curve" smooth="yes"/>
      <point x="280.0" y="-1.22464679915e-14" type="line" smooth="yes"/>
      <point x="225.011559212" y="-5.51232619135e-15"/>
      <point x="180.0" y="45.0115592119"/>
      <point x="180.0" y="100.0" type="curve" smooth="yes"/>
      <point x="180.0" y="1316.0" type="line" smooth="yes"/>
      <point x="180.0" y="1370.98844079"/>
      <point x="225.011559212" y="1416.0"/>
      <point x="280.0" y="1416.0" type="curve" smooth="yes"/>
    </contour>
  </outline>
</glyph>
<glyph name="F" format="1">
  <advance width="1060"/>
  <unicode hex="0046"/>
  <outline>
    <contour>
      <point x="871.0" y="1416.0" type="line" smooth="yes"/>
      <point x="908.942024144" y="1416.0"/>
      <point x="940.0" y="1384.94202414"/>
      <point x="940.0" y="1347.0" type="curve" smooth="yes"/>
      <point x="940.0" y="1345.0" type="line" smooth="yes"/>
      <point x="940.0" y="1307.05797586"/>
      <point x="908.942024144" y="1276.0"/>
      <point x="871.0" y="1276.0" type="curve" smooth="yes"/>
      <point x="351.983031273" y="1276.0" type="line" smooth="yes"/>
      <point x="343.334900514" y="1276.0"/>
      <point x="336.0" y="1268.66509949"/>
      <point x="336.0" y="1260.01696873" type="curve" smooth="yes"/>
      <point x="336.0" y="807.983031273" type="line" smooth="yes"/>
      <point x="336.0" y="799.334900514"/>
      <point x="343.334900514" y="792.0"/>
      <point x="351.983031273" y="792.0" type="curve" smooth="yes"/>
      <point x="791.0" y="792.0" type="line" smooth="yes"/>
      <point x="828.942024144" y="792.0"/>
      <point x="860.0" y="760.942024144"/>
      <point x="860.0" y="723.0" type="curve" smooth="yes"/>
      <point x="860.0" y="721.0" type="line" smooth="yes"/>
      <point x="860.0" y="683.057975856"/>
      <point x="828.942024144" y="652.0"/>
      <point x="791.0" y="652.0" type="curve" smooth="yes"/>
      <point x="351.983031273" y="652.0" type="line" smooth="yes"/>
      <point x="343.334900514" y="652.0"/>
      <point x="336.0" y="644.665099486"/>
      <point x="336.0" y="636.016968727" type="curve" smooth="yes"/>
      <point x="336.0" y="77.0" type="line" smooth="yes"/>
      <point x="336.0" y="34.6589005932"/>
      <point x="301.341099407" y="4.24449116734e-15"/>
      <point x="259.0" y="9.42978035343e-15" type="curve" smooth="yes"/>
      <point x="257.0" y="-9.42978035343e-15" type="line" smooth="yes"/>
      <point x="214.658900593" y="-4.24449116734e-15"/>
      <point x="180.0" y="34.6589005932"/>
      <point x="180.0" y="77.0" type="curve" smooth="yes"/>
      <point x="180.0" y="1316.0" type="line" smooth="yes"/>
      <point x="180.0" y="1370.98844079"/>
      <point x="225.011559212" y="1416.0"/>
      <point x="280.0" y="1416.0" type="curve" smooth="yes"/>
    </contour>
  </outline>
</glyph>
<glyph name="G" format="1">
  <advance width="1236"/>
  <unicode hex="0047"/>
  <outline>
    <contour>
      <point x="853.98453776" y="1391.3285319"/>
      <point x="894.361758908" y="1373.4408868"/>
      <point x="933.631663442" y="1351.08706468" type="curve" smooth="yes"/>
      <point x="963.883327007" y="1333.8667451"/>
      <point x="974.728938282" y="1288.09340742"/>
      <point x="955.420091726" y="1259.13013759" type="curve" smooth="yes"/>
      <point x="954.86539153" y="1258.29808729" type="line" smooth="yes"/>
      <point x="930.31004135" y="1221.46506202"/>
      <point x="889.339829761" y="1211.42420828"/>
      <point x="850.536144825" y="1232.72939564" type="curve" smooth="yes"/>
      <point x="822.835246245" y="1247.93859124"/>
      <point x="795.301757812" y="1260.19905599"/>
      <point x="767.5" y="1269.75" type="curve" smooth="yes"/>
      <point x="718.5" y="1286.58333333"/>
      <point x="668.666666667" y="1295.0"/>
      <point x="618" y="1295" type="curve" smooth="yes"/>
      <point x="548.666666667" y="1295.0"/>
      <point x="490.5" y="1280.83333333"/>
      <point x="443.5" y="1252.5" type="curve" smooth="yes"/>
      <point x="396.5" y="1224.16666667"/>
      <point x="360.666666667" y="1181.66666667"/>
      <point x="336" y="1125" type="curve" smooth="yes"/>
      <point x="314.666666667" y="1076.33333333"/>
      <point x="301.0" y="1018.66666667"/>
      <point x="295.0" y="952.0" type="curve" smooth="yes"/>
      <point x="289.0" y="885.333333333"/>
      <point x="286.0" y="804.0"/>
      <point x="286.0" y="708.0" type="curve" smooth="yes"/>
      <point x="286.0" y="612.0"/>
      <point x="289.0" y="530.666666667"/>
      <point x="295.0" y="464.0" type="curve" smooth="yes"/>
      <point x="301.0" y="397.333333333"/>
      <point x="314.666666667" y="339.666666667"/>
      <point x="336" y="291" type="curve" smooth="yes"/>
      <point x="385.333333333" y="177.666666667"/>
      <point x="479.333333333" y="121.0"/>
      <point x="618.0" y="121.0" type="curve" smooth="yes"/>
      <point x="756.666666667" y="121.0"/>
      <point x="850.666666667" y="177.666666667"/>
      <point x="900" y="291" type="curve" smooth="yes"/>
      <point x="914.666666667" y="324.333333333"/>
      <point x="926.083333333" y="366.916666667"/>
      <point x="934.25" y="418.75" type="curve" smooth="yes"/>
      <point x="941.778645833" y="466.533854167"/>
      <point x="946.545267741" y="522.178853353"/>
      <point x="948.549865723" y="585.684997559" type="curve" smooth="yes"/>
      <point x="948.825344607" y="594.412234597"/>
      <point x="941.473310999" y="602.0"/>
      <point x="932.74172724" y="602.0" type="curve" smooth="yes"/>
      <point x="717.0" y="602.0" type="line" smooth="yes"/>
      <point x="679.057975856" y="602.0"/>
      <point x="648.0" y="633.057975856"/>
      <point x="648.0" y="671.0" type="curve" smooth="yes"/>
      <point x="648.0" y="673.0" type="line" smooth="yes"/>
      <point x="648.0" y="710.942024144"/>
      <point x="679.057975856" y="742.0"/>
      <point x="717.0" y="742.0" type="curve" smooth="yes"/>
      <point x="1010.27129376" y="742.0" type="line" smooth="yes"/>
      <point x="1062.69375572" y="742.0"/>
      <point x="1106.09794631" y="698.142233629"/>
      <point x="1105.55299139" y="645.722604275" type="curve" smooth="yes"/>
      <point x="1105.14624453" y="606.597313404"/>
      <point x="1104.46191406" y="573.856445312"/>
      <point x="1103.5" y="547.5" type="curve" smooth="yes"/>
      <point x="1101.83333333" y="501.833333333"/>
      <point x="1096.33333333" y="449.333333333"/>
      <point x="1087.0" y="390.0" type="curve" smooth="yes"/>
      <point x="1082.33333333" y="360.333333333"/>
      <point x="1076.5" y="332.833333333"/>
      <point x="1069.5" y="307.5" type="curve" smooth="yes"/>
      <point x="1062.5" y="282.166666667"/>
      <point x="1054.33333333" y="259.0"/>
      <point x="1045" y="238" type="curve" smooth="yes"/>
      <point x="1009.66666667" y="158.666666667"/>
      <point x="955.666666667" y="96.0"/>
      <point x="883.0" y="50.0" type="curve" smooth="yes"/>
      <point x="810.333333333" y="4.0"/>
      <point x="722.0" y="-19.0"/>
      <point x="618" y="-19" type="curve" smooth="yes"/>
      <point x="514.666666667" y="-19.0"/>
      <point x="426.5" y="4.0"/>
      <point x="353.5" y="50.0" type="curve" smooth="yes"/>
      <point x="280.5" y="96.0"/>
      <point x="226.333333333" y="158.666666667"/>
      <point x="191" y="238" type="curve" smooth="yes"/>
      <point x="173.0" y="278.0"/>
      <point x="159.166666667" y="326.833333333"/>
      <point x="149.5" y="384.5" type="curve" smooth="yes"/>
      <point x="139.833333333" y="442.166666667"/>
      <point x="134.166666667" y="493.166666667"/>
      <point x="132.5" y="537.5" type="curve" smooth="yes"/>
      <point x="131.666666667" y="559.666666667"/>
      <point x="131.041666667" y="584.958333333"/>
      <point x="130.625" y="613.375" type="curve" smooth="yes"/>
      <point x="130.208333333" y="641.791666667"/>
      <point x="130.0" y="673.333333333"/>
      <point x="130" y="708" type="curve" smooth="yes"/>
      <point x="130.0" y="814.666666667"/>
      <point x="133.833333333" y="905.666666667"/>
      <point x="141.5" y="981.0" type="curve" smooth="yes"/>
      <point x="149.166666667" y="1056.33333333"/>
      <point x="165.666666667" y="1122.0"/>
      <point x="191" y="1178" type="curve" smooth="yes"/>
      <point x="227.666666667" y="1258.0"/>
      <point x="282.5" y="1320.83333333"/>
      <point x="355.5" y="1366.5" type="curve" smooth="yes"/>
      <point x="428.5" y="1412.16666667"/>
      <point x="516.0" y="1435.0"/>
      <point x="618" y="1435" type="curve" smooth="yes"/>
      <point x="685.333333333" y="1435.0"/>
      <point x="750.166666667" y="1424.91666667"/>
      <point x="812.5" y="1404.75" type="curve" smooth="yes"/>
    </contour>
  </outline>
</glyph>
<glyph name="H" format="1">
  <advance width="1280"/>
  <unicode hex="0048"/>
  <outline>
    <contour>
      <point x="259.0" y="1416.0" type="line" smooth="yes"/>
      <point x="301.341099407" y="1416.0"/>
      <point x="336.0" y="1381.34109941"/>
      <point x="336.0" y="1339.0" type="curve" smooth="yes"/>
      <point x="336.0" y="807.983031273" type="line" smooth="yes"/>
      <point x="336.0" y="799.334900514"/>
      <point x="343.334900514" y="792.0"/>
      <point x="351.983031273" y="792.0" type="curve" smooth="yes"/>
      <point x="928.016968727" y="792.0" type="line" smooth="yes"/>
      <point x="936.665099486" y="792.0"/>
      <point x="944.0" y="799.334900514"/>
      <point x="944.0" y="807.983031273" type="curve" smooth="yes"/>
      <point x="944.0" y="1339.0" type="line" smooth="yes"/>
      <point x="944.0" y="1381.34109941"/>
      <point x="978.658900593" y="1416.0"/>
      <point x="1021.0" y="1416.0" type="curve" smooth="yes"/>
      <point x="1023.0" y="1416.0" type="line" smooth="yes"/>
      <point x="1065.34109941" y="1416.0"/>
      <point x="1100.0" y="1381.34109941"/>
      <point x="1100.0" y="1339.0" type="curve" smooth="yes"/>
      <point x="1100.0" y="77.0" type="line" smooth="yes"/>
      <point x="1100.0" y="34.6589005932"/>
      <point x="1065.34109941" y="4.24449116734e-15"/>
      <point x="1023.0" y="9.42978035343e-15" type="curve" smooth="yes"/>
      <point x="1021.0" y="-9.42978035343e-15" type="line" smooth="yes"/>
      <point x="978.658900593" y="-4.24449116734e-15"/>
      <point x="944.0" y="34.6589005932"/>
      <point x="944.0" y="77.0" type="curve" smooth="yes"/>
      <point x="944.0" y="636.016968727" type="line" smooth="yes"/>
      <point x="944.0" y="644.665099486"/>
      <point x="936.665099486" y="652.0"/>
      <point x="928.016968727" y="652.0" type="curve" smooth="yes"/>
      <point x="351.983031273" y="652.0" type="line" smooth="yes"/>
      <point x="343.334900514" y="652.0"/>
      <point x="336.0" y="644.665099486"/>
      <point x="336.0" y="636.016968727" type="curve" smooth="yes"/>
      <point x="336.0" y="77.0" type="line" smooth="yes"/>
      <point x="336.0" y="34.6589005932"/>
      <point x="301.341099407" y="4.24449116734e-15"/>
      <point x="259.0" y="9.42978035343e-15" type="curve" smooth="yes"/>
      <point x="257.0" y="-9.42978035343e-15" type="line" smooth="yes"/>
      <point x="214.658900593" y="-4.24449116734e-15"/>
      <point x="180.0" y="34.6589005932"/>
      <point x="180.0" y="77.0" type="curve" smooth="yes"/>
      <point x="180.0" y="1339.0" type="line" smooth="yes"/>
      <point x="180.0" y="1381.34109941"/>
      <point x="214.658900593" y="1416.0"/>
      <point x="257.0" y="1416.0" type="curve" smooth="yes"/>
    </contour>
  </outline>
</glyph>
<glyph name="I" format="1">
  <advance width="516"/>
  <unicode hex="0049"/>
  <outline>
    <contour>
      <point x="336.0" y="77.0" type="line" smooth="yes"/>
      <point x="336.0" y="34.6589005932"/>
      <point x="301.341099407" y="4.24449116734e-15"/>
      <point x="259.0" y="9.42978035343e-15" type="curve" smooth="yes"/>
      <point x="257.0" y="-9.42978035343e-15" type="line" smooth="yes"/>
      <point x="214.658900593" y="-4.24449116734e-15"/>
      <point x="180.0" y="34.6589005932"/>
      <point x="180.0" y="77.0" type="curve" smooth="yes"/>
      <point x="180.0" y="1339.0" type="line" smooth="yes"/>
      <point x="180.0" y="1381.34109941"/>
      <point x="214.658900593" y="1416.0"/>
      <point x="257.0" y="1416.0" type="curve" smooth="yes"/>
      <point x="259.0" y="1416.0" type="line" smooth="yes"/>
      <point x="301.341099407" y="1416.0"/>
      <point x="336.0" y="1381.34109941"/>
      <point x="336.0" y="1339.0" type="curve" smooth="yes"/>
    </contour>
  </outline>
</glyph>
<glyph name="J" format="1">
  <advance width="958"/>
  <unicode hex="004A"/>
  <outline>
    <contour>
      <point x="721.0" y="1416.0" type="line" smooth="yes"/>
      <point x="763.341099407" y="1416.0"/>
      <point x="798.0" y="1381.34109941"/>
      <point x="798.0" y="1339.0" type="curve" smooth="yes"/>
      <point x="798" y="433" type="line" smooth="yes"/>
      <point x="798.0" y="391.333333333"/>
      <point x="797.083333333" y="355.833333333"/>
      <point x="795.25" y="326.5" type="curve" smooth="yes"/>
      <point x="793.416666667" y="297.166666667"/>
      <point x="790.666666667" y="274.0"/>
      <point x="787" y="257" type="curve" smooth="yes"/>
      <point x="769.0" y="175.0"/>
      <point x="727.333333333" y="108.5"/>
      <point x="662.0" y="57.5" type="curve" smooth="yes"/>
      <point x="596.666666667" y="6.5"/>
      <point x="517.666666667" y="-19.0"/>
      <point x="425" y="-19" type="curve" smooth="yes"/>
      <point x="364.333333333" y="-19.0"/>
      <point x="305.25" y="-8.83333333333"/>
      <point x="247.75" y="11.5" type="curve" smooth="yes"/>
      <point x="210.885986328" y="24.5359700521"/>
      <point x="174.672764202" y="41.7507068714"/>
      <point x="139.110333622" y="63.1442104578" type="curve" smooth="yes"/>
      <point x="108.532710303" y="81.5389737926"/>
      <point x="99.6157293296" y="128.566568564"/>
      <point x="121.337336284" y="156.877876505" type="curve" smooth="yes"/>
      <point x="122.785995122" y="158.766016114" type="line" smooth="yes"/>
      <point x="149.440324835" y="193.506490797"/>
      <point x="189.017922065" y="200.780635236"/>
      <point x="226.28323555" y="177.788239002" type="curve" smooth="yes"/>
      <point x="247.340180079" y="164.79627498"/>
      <point x="268.579101562" y="154.033528646"/>
      <point x="290.0" y="145.5" type="curve" smooth="yes"/>
      <point x="331.0" y="129.166666667"/>
      <point x="372.666666667" y="121.0"/>
      <point x="415" y="121" type="curve" smooth="yes"/>
      <point x="466.333333333" y="121.0"/>
      <point x="510.666666667" y="133.333333333"/>
      <point x="548.0" y="158.0" type="curve" smooth="yes"/>
      <point x="585.333333333" y="182.666666667"/>
      <point x="611.666666667" y="218.0"/>
      <point x="627" y="264" type="curve" smooth="yes"/>
      <point x="632.0" y="279.0"/>
      <point x="635.75" y="300.583333333"/>
      <point x="638.25" y="328.75" type="curve" smooth="yes"/>
      <point x="640.75" y="356.916666667"/>
      <point x="642.0" y="391.666666667"/>
      <point x="642" y="433" type="curve" smooth="yes"/>
      <point x="642.0" y="1339.0" type="line" smooth="yes"/>
      <point x="642.0" y="1381.34109941"/>
      <point x="676.658900593" y="1416.0"/>
      <point x="719.0" y="1416.0" type="curve" smooth="yes"/>
    </contour>
  </outline>
</glyph>
<glyph name="K" format="1">
  <advance width="1179"/>
  <unicode hex="004B"/>
  <outline>
    <contour>
      <point x="913.315593617" y="1387.80971371" type="line" smooth="yes"/>
      <point x="925.90305622" y="1404.96486759"/>
      <point x="947.687024726" y="1416.0"/>
      <point x="968.964795275" y="1416.0" type="curve" smooth="yes"/>
      <point x="970.964795275" y="1416.0" type="line" smooth="yes"/>
      <point x="1029.08313539" y="1416.0"/>
      <point x="1062.2061716" y="1350.20079774"/>
      <point x="1027.58794826" y="1303.51760944" type="curve" smooth="yes"/>
      <point x="612.916058128" y="744.3264071" type="line" smooth="yes"/>
      <point x="608.908588291" y="738.922274508"/>
      <point x="608.831038653" y="731.021389274"/>
      <point x="612.731660147" y="725.539636313" type="curve" smooth="yes"/>
      <point x="1045.0228369" y="118.017619272" type="line" smooth="yes"/>
      <point x="1080.33384077" y="68.39316833"/>
      <point x="1045.05942263" y="1.02797559391e-14"/>
      <point x="984.154142685" y="1.7738501553e-14" type="curve" smooth="yes"/>
      <point x="982.154142685" y="-4.67253487139e-15" type="line" smooth="yes"/>
      <point x="958.963297008" y="-1.83247537859e-15"/>
      <point x="935.416476316" y="12.2565647113"/>
      <point x="922.113313717" y="31.2523849905" type="curve" smooth="yes"/>
      <point x="519.535817439" y="606.099885396" type="line" smooth="yes"/>
      <point x="513.267908719" y="615.049942698"/>
      <point x="500.369844391" y="615.31488388"/>
      <point x="493.739688781" y="606.62976776" type="curve" smooth="yes"/>
      <point x="339.278740395" y="404.294958178" type="line" smooth="yes"/>
      <point x="337.378203091" y="401.805365452"/>
      <point x="336.0" y="397.728703415"/>
      <point x="336.0" y="394.596593267" type="curve" smooth="yes"/>
      <point x="336.0" y="77.0" type="line" smooth="yes"/>
      <point x="336.0" y="34.6589005932"/>
      <point x="301.341099407" y="4.24449116734e-15"/>
      <point x="259.0" y="9.42978035343e-15" type="curve" smooth="yes"/>
      <point x="257.0" y="-9.42978035343e-15" type="line" smooth="yes"/>
      <point x="214.658900593" y="-4.24449116734e-15"/>
      <point x="180.0" y="34.6589005932"/>
      <point x="180.0" y="77.0" type="curve" smooth="yes"/>
      <point x="180.0" y="1339.0" type="line" smooth="yes"/>
      <point x="180.0" y="1381.34109941"/>
      <point x="214.658900593" y="1416.0"/>
      <point x="257.0" y="1416.0" type="curve" smooth="yes"/>
      <point x="259.0" y="1416.0" type="line" smooth="yes"/>
      <point x="301.341099407" y="1416.0"/>
      <point x="336.0" y="1381.34109941"/>
      <point x="336.0" y="1339.0" type="curve" smooth="yes"/>
      <point x="336.0" y="649.800513054" type="line" smooth="yes"/>
      <point x="336.0" y="634.246321319"/>
      <point x="355.667794863" y="627.804770591"/>
      <point x="364.869313713" y="640.345302134" type="curve" smooth="yes"/>
    </contour>
  </outline>
</glyph>
<glyph name="L" format="1">
  <advance width="980"/>
  <unicode hex="004C"/>
  <outline>
    <contour>
      <point x="259.0" y="1416.0" type="line" smooth="yes"/>
      <point x="301.341099407" y="1416.0"/>
      <point x="336.0" y="1381.34109941"/>
      <point x="336.0" y="1339.0" type="curve" smooth="yes"/>
      <point x="336.0" y="155.983031273" type="line" smooth="yes"/>
      <point x="336.0" y="147.334900514"/>
      <point x="343.334900514" y="140.0"/>
      <point x="351.983031273" y="140.0" type="curve" smooth="yes"/>
      <point x="831.0" y="140.0" type="line" smooth="yes"/>
      <point x="868.942024144" y="140.0"/>
      <point x="900.0" y="108.942024144"/>
      <point x="900.0" y="71.0" type="curve" smooth="yes"/>
      <point x="900.0" y="69.0" type="line" smooth="yes"/>
      <point x="900.0" y="31.0579758562"/>
      <point x="868.942024144" y="3.80350507203e-15"/>
      <point x="831.0" y="8.45006291412e-15" type="curve" smooth="yes"/>
      <point x="280.0" y="-1.22464679915e-14" type="line" smooth="yes"/>
      <point x="225.011559212" y="-5.51232619135e-15"/>
      <point x="180.0" y="45.0115592119"/>
      <point x="180.0" y="100.0" type="curve" smooth="yes"/>
      <point x="180.0" y="1339.0" type="line" smooth="yes"/>
      <point x="180.0" y="1381.34109941"/>
      <point x="214.658900593" y="1416.0"/>
      <point x="257.0" y="1416.0" type="curve" smooth="yes"/>
    </contour>
  </outline>
</glyph>
<glyph name="M" format="1">
  <advance width="1494"/>
  <unicode hex="004D"/>
  <outline>
    <contour>
      <point x="180.0" y="1339.0" type="line" smooth="yes"/>
      <point x="180.0" y="1381.34109941"/>
      <point x="214.658900593" y="1416.0"/>
      <point x="257.0" y="1416.0" type="curve" smooth="yes"/>
      <point x="277.078565782" y="1416.0" type="line" smooth="yes"/>
      <point x="312.417562224" y="1416.0"/>
      <point x="346.374393129" y="1394.82210259"/>
      <point x="361.920735087" y="1363.08638263" type="curve" smooth="yes"/>
      <point x="732.646649435" y="606.30039203" type="line" smooth="yes"/>
      <point x="738.543362132" y="594.263063677"/>
      <point x="755.456637868" y="594.263063677"/>
      <point x="761.353350565" y="606.30039203" type="curve" smooth="yes"/>
      <point x="1132.07926491" y="1363.08638263" type="line" smooth="yes"/>
      <point x="1147.62560687" y="1394.82210259"/>
      <point x="1181.58243778" y="1416.0"/>
      <point x="1216.92143422" y="1416.0" type="curve" smooth="yes"/>
      <point x="1237.0" y="1416.0" type="line" smooth="yes"/>
      <point x="1279.34109941" y="1416.0"/>
      <point x="1314.0" y="1381.34109941"/>
      <point x="1314.0" y="1339.0" type="curve" smooth="yes"/>
      <point x="1314.0" y="77.0" type="line" smooth="yes"/>
      <point x="1314.0" y="34.6589005932"/>
      <point x="1279.34109941" y="4.24449116734e-15"/>
      <point x="1237.0" y="9.42978035343e-15" type="curve" smooth="yes"/>
      <point x="1235.0" y="-9.42978035343e-15" type="line" smooth="yes"/>
      <point x="1192.65890059" y="-4.24449116734e-15"/>
      <point x="1158.0" y="34.6589005932"/>
      <point x="1158.0" y="77.0" type="curve" smooth="yes"/>
      <point x="1158.0" y="1052.42197775" type="line" smooth="yes"/>
      <point x="1158.0" y="1069.58086468"/>
      <point x="1135.12431717" y="1074.83572451"/>
      <point x="1127.63618802" y="1059.39696411" type="curve" smooth="yes"/>
      <point x="845.335831732" y="477.360053071" type="line" smooth="yes"/>
      <point x="828.948043754" y="443.57229021"/>
      <point x="792.912793154" y="421.0"/>
      <point x="755.360529387" y="421.0" type="curve" smooth="yes"/>
      <point x="738.639470613" y="421.0" type="line" smooth="yes"/>
      <point x="701.087206846" y="421.0"/>
      <point x="665.051956246" y="443.57229021"/>
      <point x="648.664168268" y="477.360053071" type="curve" smooth="yes"/>
      <point x="366.363811985" y="1059.39696411" type="line" smooth="yes"/>
      <point x="358.875682834" y="1074.83572451"/>
      <point x="336.0" y="1069.58086468"/>
      <point x="336.0" y="1052.42197775" type="curve" smooth="yes"/>
      <point x="336.0" y="77.0" type="line" smooth="yes"/>
      <point x="336.0" y="34.6589005932"/>
      <point x="301.341099407" y="4.24449116734e-15"/>
      <point x="259.0" y="9.42978035343e-15" type="curve" smooth="yes"/>
      <point x="257.0" y="-9.42978035343e-15" type="line" smooth="yes"/>
      <point x="214.658900593" y="-4.24449116734e-15"/>
      <point x="180.0" y="34.6589005932"/>
      <point x="180.0" y="77.0" type="curve" smooth="yes"/>
    </contour>
  </outline>
</glyph>
<glyph name="N" format="1">
  <advance width="1294"/>
  <unicode hex="004E"/>
  <outline>
    <contour>
      <point x="1037.0" y="1416.0" type="line" smooth="yes"/>
      <point x="1079.34109941" y="1416.0"/>
      <point x="1114.0" y="1381.34109941"/>
      <point x="1114.0" y="1339.0" type="curve" smooth="yes"/>
      <point x="1114.0" y="77.5" type="line" smooth="yes"/>
      <point x="1114.0" y="34.8839583892"/>
      <point x="1079.11604161" y="4.27205279829e-15"/>
      <point x="1036.5" y="9.49101269339e-15" type="curve" smooth="yes"/>
      <point x="1014.44431216" y="-7.03489930123e-15" type="line" smooth="yes"/>
      <point x="979.828807059" y="-2.79572254927e-15"/>
      <point x="946.049850179" y="20.0311919422"/>
      <point x="929.44604929" y="50.4046505738" type="curve" smooth="yes"/>
      <point x="366.007380702" y="1081.10727137" type="line" smooth="yes"/>
      <point x="357.99133193" y="1095.77109006"/>
      <point x="336.0" y="1090.15260231"/>
      <point x="336.0" y="1073.44079162" type="curve" smooth="yes"/>
      <point x="336.0" y="77.0" type="line" smooth="yes"/>
      <point x="336.0" y="34.6589005932"/>
      <point x="301.341099407" y="4.24449116734e-15"/>
      <point x="259.0" y="9.42978035343e-15" type="curve" smooth="yes"/>
      <point x="257.0" y="-9.42978035343e-15" type="line" smooth="yes"/>
      <point x="214.658900593" y="-4.24449116734e-15"/>
      <point x="180.0" y="34.6589005932"/>
      <point x="180.0" y="77.0" type="curve" smooth="yes"/>
      <point x="180.0" y="1338.5" type="line" smooth="yes"/>
      <point x="180.0" y="1381.11604161"/>
      <point x="214.883958389" y="1416.0"/>
      <point x="257.5" y="1416.0" type="curve" smooth="yes"/>
      <point x="279.555687843" y="1416.0" type="line" smooth="yes"/>
      <point x="314.171192941" y="1416.0"/>
      <point x="347.950149821" y="1395.96880806"/>
      <point x="364.55395071" y="1365.59534943" type="curve" smooth="yes"/>
      <point x="927.992619298" y="334.892728628" type="line" smooth="yes"/>
      <point x="936.00866807" y="320.22890994"/>
      <point x="958.0" y="325.847397691"/>
      <point x="958.0" y="342.559208377" type="curve" smooth="yes"/>
      <point x="958.0" y="1339.0" type="line" smooth="yes"/>
      <point x="958.0" y="1381.34109941"/>
      <point x="992.658900593" y="1416.0"/>
      <point x="1035.0" y="1416.0" type="curve" smooth="yes"/>
    </contour>
  </outline>
</glyph>
<glyph name="P" format="1">
  <advance width="1126"/>
  <unicode hex="0050"/>
  <outline>
    <contour>
      <point x="351.983031273" y="1276.0" type="line" smooth="yes"/>
      <point x="343.334900514" y="1276.0"/>
      <point x="336.0" y="1268.66509949"/>
      <point x="336.0" y="1260.01696873" type="curve" smooth="yes"/>
      <point x="336.0" y="671.983031273" type="line" smooth="yes"/>
      <point x="336.0" y="663.334900514"/>
      <point x="343.334900514" y="656.0"/>
      <point x="351.983031273" y="656.0" type="curve" smooth="yes"/>
      <point x="482" y="656" type="line" smooth="yes"/>
      <point x="518.666666667" y="656.0"/>
      <point x="545.833333333" y="656.166666667"/>
      <point x="563.5" y="656.5" type="curve" smooth="yes"/>
      <point x="581.166666667" y="656.833333333"/>
      <point x="601.666666667" y="658.666666667"/>
      <point x="625.0" y="662.0" type="curve" smooth="yes"/>
      <point x="636.666666667" y="663.666666667"/>
      <point x="647.666666667" y="665.75"/>
      <point x="658.0" y="668.25" type="curve" smooth="yes"/>
      <point x="668.333333333" y="670.75"/>
      <point x="678.0" y="673.666666667"/>
      <point x="687" y="677" type="curve" smooth="yes"/>
      <point x="747.0" y="699.0"/>
      <point x="792.5" y="736.833333333"/>
      <point x="823.5" y="790.5" type="curve" smooth="yes"/>
      <point x="854.5" y="844.166666667"/>
      <point x="870.0" y="902.666666667"/>
      <point x="870.0" y="966.0" type="curve" smooth="yes"/>
      <point x="870.0" y="1029.33333333"/>
      <point x="854.5" y="1087.83333333"/>
      <point x="823.5" y="1141.5" type="curve" smooth="yes"/>
      <point x="792.5" y="1195.16666667"/>
      <point x="747.0" y="1233.0"/>
      <point x="687" y="1255" type="curve" smooth="yes"/>
      <point x="669.0" y="1261.66666667"/>
      <point x="648.333333333" y="1266.66666667"/>
      <point x="625.0" y="1270.0" type="curve" smooth="yes"/>
      <point x="601.666666667" y="1273.33333333"/>
      <point x="581.166666667" y="1275.16666667"/>
      <point x="563.5" y="1275.5" type="curve" smooth="yes"/>
      <point x="554.666666667" y="1275.66666667"/>
      <point x="543.458333333" y="1275.79166667"/>
      <point x="529.875" y="1275.875" type="curve" smooth="yes"/>
      <point x="516.291666667" y="1275.95833333"/>
      <point x="500.333333333" y="1276.0"/>
      <point x="482" y="1276" type="curve" smooth="yes"/>
    </contour>
    <contour>
      <point x="643.25" y="1409.33333333"/>
      <point x="672.333333333" y="1405.33333333"/>
      <point x="695" y="1400" type="curve" smooth="yes"/>
      <point x="798.333333333" y="1375.33333333"/>
      <point x="879.333333333" y="1323.0"/>
      <point x="938.0" y="1243.0" type="curve" smooth="yes"/>
      <point x="996.666666667" y="1163.0"/>
      <point x="1026.0" y="1070.66666667"/>
      <point x="1026.0" y="966.0" type="curve" smooth="yes"/>
      <point x="1026.0" y="861.333333333"/>
      <point x="996.666666667" y="769.0"/>
      <point x="938.0" y="689.0" type="curve" smooth="yes"/>
      <point x="879.333333333" y="609.0"/>
      <point x="798.333333333" y="556.666666667"/>
      <point x="695" y="532" type="curve" smooth="yes"/>
      <point x="672.333333333" y="526.666666667"/>
      <point x="643.25" y="522.666666667"/>
      <point x="607.75" y="520.0" type="curve" smooth="yes"/>
      <point x="572.25" y="517.333333333"/>
      <point x="530.333333333" y="516.0"/>
      <point x="482" y="516" type="curve" smooth="yes"/>
      <point x="351.983031273" y="516.0" type="line" smooth="yes"/>
      <point x="343.334900514" y="516.0"/>
      <point x="336.0" y="508.665099486"/>
      <point x="336.0" y="500.016968727" type="curve" smooth="yes"/>
      <point x="336.0" y="77.0" type="line" smooth="yes"/>
      <point x="336.0" y="34.6589005932"/>
      <point x="301.341099407" y="4.24449116734e-15"/>
      <point x="259.0" y="9.42978035343e-15" type="curve" smooth="yes"/>
      <point x="257.0" y="-9.42978035343e-15" type="line" smooth="yes"/>
      <point x="214.658900593" y="-4.24449116734e-15"/>
      <point x="180.0" y="34.6589005932"/>
      <point x="180.0" y="77.0" type="curve" smooth="yes"/>
      <point x="180.0" y="1316.0" type="line" smooth="yes"/>
      <point x="180.0" y="1370.98844079"/>
      <point x="225.011559212" y="1416.0"/>
      <point x="280.0" y="1416.0" type="curve" smooth="yes"/>
      <point x="482" y="1416" type="line" smooth="yes"/>
      <point x="530.333333333" y="1416.0"/>
      <point x="572.25" y="1414.66666667"/>
      <point x="607.75" y="1412.0" type="curve" smooth="yes"/>
    </contour>
  </outline>
</glyph>
<glyph name="Q" format="1">
  <advance width="1256"/>
  <unicode hex="0051"/>
  <outline>
    <contour>
      <point x="294.166666667" y="941.5"/>
      <point x="289.333333333" y="896.166666667"/>
      <point x="288.0" y="858.5" type="curve" smooth="yes"/>
      <point x="286.666666667" y="820.833333333"/>
      <point x="286.0" y="770.666666667"/>
      <point x="286.0" y="708.0" type="curve" smooth="yes"/>
      <point x="286.0" y="645.333333333"/>
      <point x="286.666666667" y="595.166666667"/>
      <point x="288.0" y="557.5" type="curve" smooth="yes"/>
      <point x="289.333333333" y="519.833333333"/>
      <point x="294.166666667" y="474.5"/>
      <point x="302.5" y="421.5" type="curve" smooth="yes"/>
      <point x="310.833333333" y="368.5"/>
      <point x="323.333333333" y="324.333333333"/>
      <point x="340" y="289" type="curve" smooth="yes"/>
      <point x="364.0" y="236.333333333"/>
      <point x="400.333333333" y="195.166666667"/>
      <point x="449.0" y="165.5" type="curve" smooth="yes"/>
      <point x="497.666666667" y="135.833333333"/>
      <point x="557.333333333" y="121.0"/>
      <point x="628.0" y="121.0" type="curve" smooth="yes"/>
      <point x="698.666666667" y="121.0"/>
      <point x="758.333333333" y="135.833333333"/>
      <point x="807.0" y="165.5" type="curve" smooth="yes"/>
      <point x="855.666666667" y="195.166666667"/>
      <point x="892.0" y="236.333333333"/>
      <point x="916" y="289" type="curve" smooth="yes"/>
      <point x="932.666666667" y="324.333333333"/>
      <point x="945.166666667" y="368.5"/>
      <point x="953.5" y="421.5" type="curve" smooth="yes"/>
      <point x="961.833333333" y="474.5"/>
      <point x="966.666666667" y="519.833333333"/>
      <point x="968.0" y="557.5" type="curve" smooth="yes"/>
      <point x="969.333333333" y="595.166666667"/>
      <point x="970.0" y="645.333333333"/>
      <point x="970.0" y="708.0" type="curve" smooth="yes"/>
      <point x="970.0" y="770.666666667"/>
      <point x="969.333333333" y="820.833333333"/>
      <point x="968.0" y="858.5" type="curve" smooth="yes"/>
      <point x="966.666666667" y="896.166666667"/>
      <point x="961.833333333" y="941.5"/>
      <point x="953.5" y="994.5" type="curve" smooth="yes"/>
      <point x="945.166666667" y="1047.5"/>
      <point x="932.666666667" y="1091.66666667"/>
      <point x="916" y="1127" type="curve" smooth="yes"/>
      <point x="892.0" y="1179.66666667"/>
      <point x="855.666666667" y="1220.83333333"/>
      <point x="807.0" y="1250.5" type="curve" smooth="yes"/>
      <point x="758.333333333" y="1280.16666667"/>
      <point x="698.666666667" y="1295.0"/>
      <point x="628.0" y="1295.0" type="curve" smooth="yes"/>
      <point x="557.333333333" y="1295.0"/>
      <point x="497.666666667" y="1280.16666667"/>
      <point x="449.0" y="1250.5" type="curve" smooth="yes"/>
      <point x="400.333333333" y="1220.83333333"/>
      <point x="364.0" y="1179.66666667"/>
      <point x="340" y="1127" type="curve" smooth="yes"/>
      <point x="323.333333333" y="1091.66666667"/>
      <point x="310.833333333" y="1047.5"/>
      <point x="302.5" y="994.5" type="curve" smooth="yes"/>
    </contour>
    <contour>
      <point x="1116.83333333" y="960.666666667"/>
      <point x="1122.66666667" y="910.0"/>
      <point x="1124.0" y="870.0" type="curve" smooth="yes"/>
      <point x="1125.33333333" y="830.0"/>
      <point x="1126.0" y="776.0"/>
      <point x="1126.0" y="708.0" type="curve" smooth="yes"/>
      <point x="1126.0" y="640.0"/>
      <point x="1125.33333333" y="586.0"/>
      <point x="1124.0" y="546.0" type="curve" smooth="yes"/>
      <point x="1122.66666667" y="506.0"/>
      <point x="1116.83333333" y="455.333333333"/>
      <point x="1106.5" y="394.0" type="curve" smooth="yes"/>
      <point x="1096.16666667" y="332.666666667"/>
      <point x="1080.66666667" y="280.0"/>
      <point x="1060" y="236" type="curve" smooth="yes"/>
      <point x="1044.66666667" y="202.333333333"/>
      <point x="1025.66666667" y="171.583333333"/>
      <point x="1003.0" y="143.75" type="curve" smooth="yes"/>
      <point x="983.609375" y="119.939453125"/>
      <point x="961.535385132" y="98.2634010315"/>
      <point x="936.778030396" y="78.7218437195" type="curve" smooth="yes"/>
      <point x="930.03158369" y="73.3967160411"/>
      <point x="929.441818821" y="63.533668482"/>
      <point x="935.505626319" y="57.4425465355" type="curve" smooth="yes"/>
      <point x="1094.8308128" y="-102.600320963" type="line" smooth="yes"/>
      <point x="1122.98517653" y="-130.881506151"/>
      <point x="1122.9332831" y="-177.066716903"/>
      <point x="1094.71543739" y="-205.28456261" type="curve" smooth="yes"/>
      <point x="1093.30122383" y="-206.698776172" type="line" smooth="yes"/>
      <point x="1065.07667034" y="-234.923329657"/>
      <point x="1018.87890886" y="-234.96783613"/>
      <point x="990.600025294" y="-206.797717505" type="curve" smooth="yes"/>
      <point x="785.917776412" y="-2.90270804139" type="line" smooth="yes"/>
      <point x="783.655159258" y="-0.648793261194"/>
      <point x="779.799312187" y="0.383671810549"/>
      <point x="776.713151455" y="-0.438021659851" type="curve" smooth="yes"/>
      <point x="754.357834339" y="-6.39014784495"/>
      <point x="731.286783854" y="-10.9108072917"/>
      <point x="707.5" y="-14.0" type="curve" smooth="yes"/>
      <point x="681.833333333" y="-17.3333333333"/>
      <point x="655.333333333" y="-19.0"/>
      <point x="628" y="-19" type="curve" smooth="yes"/>
      <point x="524.0" y="-19.0"/>
      <point x="435.0" y="4.0"/>
      <point x="361.0" y="50.0" type="curve" smooth="yes"/>
      <point x="287.0" y="96.0"/>
      <point x="232.0" y="158.0"/>
      <point x="196" y="236" type="curve" smooth="yes"/>
      <point x="175.333333333" y="280.0"/>
      <point x="159.833333333" y="332.666666667"/>
      <point x="149.5" y="394.0" type="curve" smooth="yes"/>
      <point x="139.166666667" y="455.333333333"/>
      <point x="133.333333333" y="506.0"/>
      <point x="132.0" y="546.0" type="curve" smooth="yes"/>
      <point x="130.666666667" y="586.0"/>
      <point x="130.0" y="640.0"/>
      <point x="130.0" y="708.0" type="curve" smooth="yes"/>
      <point x="130.0" y="776.0"/>
      <point x="130.666666667" y="830.0"/>
      <point x="132.0" y="870.0" type="curve" smooth="yes"/>
      <point x="133.333333333" y="910.0"/>
      <point x="139.166666667" y="960.666666667"/>
      <point x="149.5" y="1022.0" type="curve" smooth="yes"/>
      <point x="159.833333333" y="1083.33333333"/>
      <point x="175.333333333" y="1136.0"/>
      <point x="196" y="1180" type="curve" smooth="yes"/>
      <point x="232.0" y="1258.0"/>
      <point x="287.0" y="1320.0"/>
      <point x="361.0" y="1366.0" type="curve" smooth="yes"/>
      <point x="435.0" y="1412.0"/>
      <point x="524.0" y="1435.0"/>
      <point x="628.0" y="1435.0" type="curve" smooth="yes"/>
      <point x="732.0" y="1435.0"/>
      <point x="821.0" y="1412.0"/>
      <point x="895.0" y="1366.0" type="curve" smooth="yes"/>
      <point x="969.0" y="1320.0"/>
      <point x="1024.0" y="1258.0"/>
      <point x="1060" y="1180" type="curve" smooth="yes"/>
      <point x="1080.66666667" y="1136.0"/>
      <point x="1096.16666667" y="1083.33333333"/>
      <point x="1106.5" y="1022.0" type="curve" smooth="yes"/>
    </contour>
  </outline>
</glyph>
<glyph name="R" format="1">
  <advance width="1141"/>
  <unicode hex="0052"/>
  <outline>
    <contour>
      <point x="631.833333333" y="1413.5"/>
      <point x="658.166666667" y="1410.33333333"/>
      <point x="688.5" y="1405.0" type="curve" smooth="yes"/>
      <point x="703.666666667" y="1402.33333333"/>
      <point x="718.625" y="1398.83333333"/>
      <point x="733.375" y="1394.5" type="curve" smooth="yes"/>
      <point x="748.125" y="1390.16666667"/>
      <point x="762.666666667" y="1385.0"/>
      <point x="777" y="1379" type="curve" smooth="yes"/>
      <point x="852.333333333" y="1348.33333333"/>
      <point x="912.666666667" y="1297.83333333"/>
      <point x="958.0" y="1227.5" type="curve" smooth="yes"/>
      <point x="1003.33333333" y="1157.16666667"/>
      <point x="1026.0" y="1076.66666667"/>
      <point x="1026" y="986" type="curve" smooth="yes"/>
      <point x="1026.0" y="894.666666667"/>
      <point x="1003.0" y="813.666666667"/>
      <point x="957.0" y="743.0" type="curve" smooth="yes"/>
      <point x="914.211914062" y="677.267578125"/>
      <point x="858.445423365" y="629.128104925"/>
      <point x="789.700527906" y="598.5815804" type="curve" smooth="yes"/>
      <point x="781.069123212" y="594.746249596"/>
      <point x="777.360417512" y="584.818169072"/>
      <point x="781.363335464" y="576.26319641" type="curve" smooth="yes"/>
      <point x="1000.58286003" y="107.750710704" type="line" smooth="yes"/>
      <point x="1024.11846541" y="57.4507887207"/>
      <point x="987.571220835" y="7.76778513786e-15"/>
      <point x="932.03738545" y="1.45687185126e-14" type="curve" smooth="yes"/>
      <point x="930.03738545" y="-5.88288303311e-15" type="line" smooth="yes"/>
      <point x="901.317302493" y="-2.36568726668e-15"/>
      <point x="873.973124229" y="17.5706414507"/>
      <point x="862.039131991" y="43.6938685543" type="curve" smooth="yes"/>
      <point x="632.267582741" y="546.658362188" type="line" smooth="yes"/>
      <point x="629.763192417" y="552.140413449"/>
      <point x="623.756739951" y="556.0"/>
      <point x="617.729729338" y="556.0" type="curve" smooth="yes"/>
      <point x="351.983031273" y="556.0" type="line" smooth="yes"/>
      <point x="343.334900514" y="556.0"/>
      <point x="336.0" y="548.665099486"/>
      <point x="336.0" y="540.016968727" type="curve" smooth="yes"/>
      <point x="336.0" y="77.0" type="line" smooth="yes"/>
      <point x="336.0" y="34.6589005932"/>
      <point x="301.341099407" y="4.24449116734e-15"/>
      <point x="259.0" y="9.42978035343e-15" type="curve" smooth="yes"/>
      <point x="257.0" y="-9.42978035343e-15" type="line" smooth="yes"/>
      <point x="214.658900593" y="-4.24449116734e-15"/>
      <point x="180.0" y="34.6589005932"/>
      <point x="180.0" y="77.0" type="curve" smooth="yes"/>
      <point x="180.0" y="1316.0" type="line" smooth="yes"/>
      <point x="180.0" y="1370.98844079"/>
      <point x="225.011559212" y="1416.0"/>
      <point x="280.0" y="1416.0" type="curve" smooth="yes"/>
      <point x="507" y="1416" type="line" smooth="yes"/>
      <point x="553.0" y="1416.0"/>
      <point x="587.166666667" y="1415.5"/>
      <point x="609.5" y="1414.5" type="curve" smooth="yes"/>
    </contour>
    <contour>
      <point x="351.983031273" y="1276.0" type="line" smooth="yes"/>
      <point x="343.334900514" y="1276.0"/>
      <point x="336.0" y="1268.66509949"/>
      <point x="336.0" y="1260.01696873" type="curve" smooth="yes"/>
      <point x="336.0" y="711.983031273" type="line" smooth="yes"/>
      <point x="336.0" y="703.334900514"/>
      <point x="343.334900514" y="696.0"/>
      <point x="351.983031273" y="696.0" type="curve" smooth="yes"/>
      <point x="507" y="696" type="line" smooth="yes"/>
      <point x="543.666666667" y="696.0"/>
      <point x="570.833333333" y="696.333333333"/>
      <point x="588.5" y="697.0" type="curve" smooth="yes"/>
      <point x="606.166666667" y="697.666666667"/>
      <point x="626.5" y="699.833333333"/>
      <point x="649.5" y="703.5" type="curve" smooth="yes"/>
      <point x="661.0" y="705.333333333"/>
      <point x="671.875" y="707.625"/>
      <point x="682.125" y="710.375" type="curve" smooth="yes"/>
      <point x="692.375" y="713.125"/>
      <point x="702.0" y="716.333333333"/>
      <point x="711" y="720" type="curve" smooth="yes"/>
      <point x="741.0" y="732.666666667"/>
      <point x="766.833333333" y="749.833333333"/>
      <point x="788.5" y="771.5" type="curve" smooth="yes"/>
      <point x="810.166666667" y="793.166666667"/>
      <point x="826.666666667" y="816.666666667"/>
      <point x="838.0" y="842.0" type="curve" smooth="yes"/>
      <point x="849.333333333" y="867.333333333"/>
      <point x="857.5" y="891.833333333"/>
      <point x="862.5" y="915.5" type="curve" smooth="yes"/>
      <point x="867.5" y="939.166666667"/>
      <point x="870.0" y="962.666666667"/>
      <point x="870.0" y="986.0" type="curve" smooth="yes"/>
      <point x="870.0" y="1009.33333333"/>
      <point x="867.5" y="1032.83333333"/>
      <point x="862.5" y="1056.5" type="curve" smooth="yes"/>
      <point x="857.5" y="1080.16666667"/>
      <point x="849.333333333" y="1104.66666667"/>
      <point x="838.0" y="1130.0" type="curve" smooth="yes"/>
      <point x="826.666666667" y="1155.33333333"/>
      <point x="810.166666667" y="1178.83333333"/>
      <point x="788.5" y="1200.5" type="curve" smooth="yes"/>
      <point x="766.833333333" y="1222.16666667"/>
      <point x="741.0" y="1239.33333333"/>
      <point x="711" y="1252" type="curve" smooth="yes"/>
      <point x="693.0" y="1259.33333333"/>
      <point x="672.5" y="1264.83333333"/>
      <point x="649.5" y="1268.5" type="curve" smooth="yes"/>
      <point x="626.5" y="1272.16666667"/>
      <point x="606.166666667" y="1274.33333333"/>
      <point x="588.5" y="1275.0" type="curve" smooth="yes"/>
      <point x="579.666666667" y="1275.33333333"/>
      <point x="568.458333333" y="1275.58333333"/>
      <point x="554.875" y="1275.75" type="curve" smooth="yes"/>
      <point x="541.291666667" y="1275.91666667"/>
      <point x="525.333333333" y="1276.0"/>
      <point x="507" y="1276" type="curve" smooth="yes"/>
    </contour>
  </outline>
</glyph>
<glyph name="S" format="1">
  <advance width="1045"/>
  <unicode hex="0053"/>
  <outline>
    <contour>
      <point x="117.337227766" y="175.87667679" type="line" smooth="yes"/>
      <point x="137.282132758" y="212.297807645"/>
      <point x="179.354410906" y="225.298767627"/>
      <point x="216.369534373" y="206.479133129" type="curve" smooth="yes"/>
      <point x="262.051889062" y="183.252810001"/>
      <point x="305.762044271" y="164.759765625"/>
      <point x="347.5" y="151.0" type="curve" smooth="yes"/>
      <point x="408.166666667" y="131.0"/>
      <point x="464.666666667" y="121.0"/>
      <point x="517" y="121" type="curve" smooth="yes"/>
      <point x="558.333333333" y="121.0"/>
      <point x="595.333333333" y="126.833333333"/>
      <point x="628.0" y="138.5" type="curve" smooth="yes"/>
      <point x="660.666666667" y="150.166666667"/>
      <point x="686.833333333" y="165.166666667"/>
      <point x="706.5" y="183.5" type="curve" smooth="yes"/>
      <point x="726.166666667" y="201.833333333"/>
      <point x="742.5" y="223.166666667"/>
      <point x="755.5" y="247.5" type="curve" smooth="yes"/>
      <point x="768.5" y="271.833333333"/>
      <point x="777.333333333" y="295.5"/>
      <point x="782.0" y="318.5" type="curve" smooth="yes"/>
      <point x="784.333333333" y="330.0"/>
      <point x="786.083333333" y="341.541666667"/>
      <point x="787.25" y="353.125" type="curve" smooth="yes"/>
      <point x="788.416666667" y="364.708333333"/>
      <point x="789.0" y="376.333333333"/>
      <point x="789" y="388" type="curve" smooth="yes"/>
      <point x="789.0" y="441.333333333"/>
      <point x="776.833333333" y="489.333333333"/>
      <point x="752.5" y="532.0" type="curve" smooth="yes"/>
      <point x="728.166666667" y="574.666666667"/>
      <point x="688.333333333" y="606.333333333"/>
      <point x="633" y="627" type="curve" smooth="yes"/>
      <point x="606.333333333" y="637.0"/>
      <point x="563.833333333" y="647.833333333"/>
      <point x="505.5" y="659.5" type="curve" smooth="yes"/>
      <point x="447.166666667" y="671.166666667"/>
      <point x="403.333333333" y="682.0"/>
      <point x="374" y="692" type="curve" smooth="yes"/>
      <point x="290.0" y="722.0"/>
      <point x="225.666666667" y="769.333333333"/>
      <point x="181.0" y="834.0" type="curve" smooth="yes"/>
      <point x="136.333333333" y="898.666666667"/>
      <point x="114.0" y="972.333333333"/>
      <point x="114" y="1055" type="curve" smooth="yes"/>
      <point x="114.0" y="1161.66666667"/>
      <point x="150.0" y="1251.66666667"/>
      <point x="222.0" y="1325.0" type="curve" smooth="yes"/>
      <point x="294.0" y="1398.33333333"/>
      <point x="392.333333333" y="1435.0"/>
      <point x="517" y="1435" type="curve" smooth="yes"/>
      <point x="572.0" y="1435.0"/>
      <point x="630.583333333" y="1426.66666667"/>
      <point x="692.75" y="1410.0" type="curve" smooth="yes"/>
      <point x="735.762776693" y="1398.46842448"/>
      <point x="780.490959704" y="1382.94753194"/>
      <point x="826.934549034" y="1363.43732238" type="curve" smooth="yes"/>
      <point x="860.419697788" y="1349.37074659"/>
      <point x="876.879555627" y="1306.7910446"/>
      <point x="861.562403124" y="1273.85916672" type="curve" smooth="yes"/>
      <point x="860.841246849" y="1272.30868073" type="line" smooth="yes"/>
      <point x="843.560001041" y="1235.15400224"/>
      <point x="803.021467541" y="1219.458544"/>
      <point x="765.225809038" y="1235.28888792" type="curve" smooth="yes"/>
      <point x="728.20051382" y="1250.79657267"/>
      <point x="693.041910807" y="1263.28361003"/>
      <point x="659.75" y="1272.75" type="curve" smooth="yes"/>
      <point x="607.583333333" y="1287.58333333"/>
      <point x="560.0" y="1295.0"/>
      <point x="517" y="1295" type="curve" smooth="yes"/>
      <point x="435.0" y="1295.0"/>
      <point x="373.333333333" y="1271.66666667"/>
      <point x="332.0" y="1225.0" type="curve" smooth="yes"/>
      <point x="290.666666667" y="1178.33333333"/>
      <point x="270.0" y="1121.66666667"/>
      <point x="270" y="1055" type="curve" smooth="yes"/>
      <point x="270.0" y="1003.0"/>
      <point x="283.0" y="956.0"/>
      <point x="309.0" y="914.0" type="curve" smooth="yes"/>
      <point x="335.0" y="872.0"/>
      <point x="375.333333333" y="841.666666667"/>
      <point x="430" y="823" type="curve" smooth="yes"/>
      <point x="454.666666667" y="814.333333333"/>
      <point x="496.833333333" y="804.0"/>
      <point x="556.5" y="792.0" type="curve" smooth="yes"/>
      <point x="616.166666667" y="780.0"/>
      <point x="662.0" y="768.0"/>
      <point x="694" y="756" type="curve" smooth="yes"/>
      <point x="777.333333333" y="724.0"/>
      <point x="840.0" y="675.5"/>
      <point x="882.0" y="610.5" type="curve" smooth="yes"/>
      <point x="924.0" y="545.5"/>
      <point x="945.0" y="471.333333333"/>
      <point x="945" y="388" type="curve" smooth="yes"/>
      <point x="945.0" y="334.0"/>
      <point x="935.833333333" y="282.833333333"/>
      <point x="917.5" y="234.5" type="curve" smooth="yes"/>
      <point x="899.166666667" y="186.166666667"/>
      <point x="872.833333333" y="143.0"/>
      <point x="838.5" y="105.0" type="curve" smooth="yes"/>
      <point x="804.166666667" y="67.0"/>
      <point x="759.166666667" y="36.8333333333"/>
      <point x="703.5" y="14.5" type="curve" smooth="yes"/>
      <point x="647.833333333" y="-7.83333333333"/>
      <point x="585.666666667" y="-19.0"/>
      <point x="517" y="-19" type="curve" smooth="yes"/>
      <point x="439.0" y="-19.0"/>
      <point x="365.666666667" y="-7.0"/>
      <point x="297.0" y="17.0" type="curve" smooth="yes"/>
      <point x="247.645833333" y="34.25"/>
      <point x="197.086263021" y="55.9772135417"/>
      <point x="145.321289062" y="82.181640625" type="curve" smooth="yes"/>
      <point x="112.576371944" y="98.7577485095"/>
      <point x="99.0325041535" y="142.450659759"/>
      <point x="116.660750656" y="174.641370762" type="curve" smooth="yes"/>
    </contour>
  </outline>
</glyph>
<glyph name="T" format="1">
  <advance width="1048"/>
  <unicode hex="0054"/>
  <outline>
    <contour>
      <point x="919.0" y="1417.0" type="line" smooth="yes"/>
      <point x="956.942024144" y="1417.0"/>
      <point x="988.0" y="1385.94202414"/>
      <point x="988.0" y="1348.0" type="curve" smooth="yes"/>
      <point x="988.0" y="1346.0" type="line" smooth="yes"/>
      <point x="988.0" y="1308.05797586"/>
      <point x="956.942024144" y="1277.0"/>
      <point x="919.0" y="1277.0" type="curve" smooth="yes"/>
      <point x="617.983031273" y="1277.0" type="line" smooth="yes"/>
      <point x="609.334900514" y="1277.0"/>
      <point x="602.0" y="1269.66509949"/>
      <point x="602.0" y="1261.01696873" type="curve" smooth="yes"/>
      <point x="602.0" y="77.0" type="line" smooth="yes"/>
      <point x="602.0" y="34.6589005932"/>
      <point x="567.341099407" y="4.24449116734e-15"/>
      <point x="525.0" y="9.42978035343e-15" type="curve" smooth="yes"/>
      <point x="523.0" y="-9.42978035343e-15" type="line" smooth="yes"/>
      <point x="480.658900593" y="-4.24449116734e-15"/>
      <point x="446.0" y="34.6589005932"/>
      <point x="446.0" y="77.0" type="curve" smooth="yes"/>
      <point x="446.0" y="1261.01696873" type="line" smooth="yes"/>
      <point x="446.0" y="1269.66509949"/>
      <point x="438.665099486" y="1277.0"/>
      <point x="430.016968727" y="1277.0" type="curve" smooth="yes"/>
      <point x="129.0" y="1277.0" type="line" smooth="yes"/>
      <point x="91.0579758562" y="1277.0"/>
      <point x="60.0" y="1308.05797586"/>
      <point x="60.0" y="1346.0" type="curve" smooth="yes"/>
      <point x="60.0" y="1348.0" type="line" smooth="yes"/>
      <point x="60.0" y="1385.94202414"/>
      <point x="91.0579758562" y="1417.0"/>
      <point x="129.0" y="1417.0" type="curve" smooth="yes"/>
    </contour>
  </outline>
</glyph>
<glyph name="U" format="1">
  <advance width="1236"/>
  <unicode hex="0055"/>
  <outline>
    <contour>
      <point x="239.0" y="1416.0" type="line" smooth="yes"/>
      <point x="281.341099407" y="1416.0"/>
      <point x="316.0" y="1381.34109941"/>
      <point x="316.0" y="1339.0" type="curve" smooth="yes"/>
      <point x="316" y="515" type="line" smooth="yes"/>
      <point x="316.0" y="466.333333333"/>
      <point x="317.666666667" y="424.916666667"/>
      <point x="321.0" y="390.75" type="curve" smooth="yes"/>
      <point x="324.333333333" y="356.583333333"/>
      <point x="329.333333333" y="329.666666667"/>
      <point x="336" y="310" type="curve" smooth="yes"/>
      <point x="358.666666667" y="244.0"/>
      <point x="396.5" y="196.0"/>
      <point x="449.5" y="166.0" type="curve" smooth="yes"/>
      <point x="502.5" y="136.0"/>
      <point x="558.666666667" y="121.0"/>
      <point x="618.0" y="121.0" type="curve" smooth="yes"/>
      <point x="677.333333333" y="121.0"/>
      <point x="733.5" y="136.0"/>
      <point x="786.5" y="166.0" type="curve" smooth="yes"/>
      <point x="839.5" y="196.0"/>
      <point x="877.333333333" y="244.0"/>
      <point x="900" y="310" type="curve" smooth="yes"/>
      <point x="906.666666667" y="329.666666667"/>
      <point x="911.666666667" y="356.583333333"/>
      <point x="915.0" y="390.75" type="curve" smooth="yes"/>
      <point x="918.333333333" y="424.916666667"/>
      <point x="920.0" y="466.333333333"/>
      <point x="920" y="515" type="curve" smooth="yes"/>
      <point x="920.0" y="1339.0" type="line" smooth="yes"/>
      <point x="920.0" y="1381.34109941"/>
      <point x="954.658900593" y="1416.0"/>
      <point x="997.0" y="1416.0" type="curve" smooth="yes"/>
      <point x="999.0" y="1416.0" type="line" smooth="yes"/>
      <point x="1041.34109941" y="1416.0"/>
      <point x="1076.0" y="1381.34109941"/>
      <point x="1076.0" y="1339.0" type="curve" smooth="yes"/>
      <point x="1076" y="515" type="line" smooth="yes"/>
      <point x="1076.0" y="476.333333333"/>
      <point x="1075.66666667" y="446.833333333"/>
      <point x="1075.0" y="426.5" type="curve" smooth="yes"/>
      <point x="1074.33333333" y="406.166666667"/>
      <point x="1072.0" y="381.166666667"/>
      <point x="1068.0" y="351.5" type="curve" smooth="yes"/>
      <point x="1066.0" y="336.666666667"/>
      <point x="1063.5" y="322.458333333"/>
      <point x="1060.5" y="308.875" type="curve" smooth="yes"/>
      <point x="1057.5" y="295.291666667"/>
      <point x="1054.0" y="282.333333333"/>
      <point x="1050" y="270" type="curve" smooth="yes"/>
      <point x="1028.0" y="203.333333333"/>
      <point x="994.166666667" y="147.833333333"/>
      <point x="948.5" y="103.5" type="curve" smooth="yes"/>
      <point x="902.833333333" y="59.1666666667"/>
      <point x="852.5" y="27.6666666667"/>
      <point x="797.5" y="9.0" type="curve" smooth="yes"/>
      <point x="742.5" y="-9.66666666667"/>
      <point x="682.666666667" y="-19.0"/>
      <point x="618.0" y="-19.0" type="curve" smooth="yes"/>
      <point x="553.333333333" y="-19.0"/>
      <point x="493.5" y="-9.66666666667"/>
      <point x="438.5" y="9.0" type="curve" smooth="yes"/>
      <point x="383.5" y="27.6666666667"/>
      <point x="333.166666667" y="59.1666666667"/>
      <point x="287.5" y="103.5" type="curve" smooth="yes"/>
      <point x="241.833333333" y="147.833333333"/>
      <point x="208.0" y="203.333333333"/>
      <point x="186" y="270" type="curve" smooth="yes"/>
      <point x="178.0" y="294.666666667"/>
      <point x="172.0" y="321.833333333"/>
      <point x="168.0" y="351.5" type="curve" smooth="yes"/>
      <point x="164.0" y="381.166666667"/>
      <point x="161.666666667" y="406.166666667"/>
      <point x="161.0" y="426.5" type="curve" smooth="yes"/>
      <point x="160.666666667" y="436.666666667"/>
      <point x="160.416666667" y="449.125"/>
      <point x="160.25" y="463.875" type="curve" smooth="yes"/>
      <point x="160.083333333" y="478.625"/>
      <point x="160.0" y="495.666666667"/>
      <point x="160" y="515" type="curve" smooth="yes"/>
      <point x="160.0" y="1339.0" type="line" smooth="yes"/>
      <point x="160.0" y="1381.34109941"/>
      <point x="194.658900593" y="1416.0"/>
      <point x="237.0" y="1416.0" type="curve" smooth="yes"/>
    </contour>
  </outline>
</glyph>
<glyph name="V" format="1">
  <advance width="1190"/>
  <unicode hex="0056"/>
  <outline>
    <contour>
      <point x="148.189488765" y="1416.0" type="line" smooth="yes"/>
      <point x="180.436438514" y="1416.0"/>
      <point x="209.980121812" y="1394.543248"/>
      <point x="219.955835863" y="1363.8781066" type="curve" smooth="yes"/>
      <point x="579.800983725" y="257.721465844" type="line" smooth="yes"/>
      <point x="584.623142235" y="242.898248997"/>
      <point x="605.376857765" y="242.898248997"/>
      <point x="610.199016275" y="257.721465844" type="curve" smooth="yes"/>
      <point x="970.044164137" y="1363.8781066" type="line" smooth="yes"/>
      <point x="980.019878188" y="1394.543248"/>
      <point x="1009.56356149" y="1416.0"/>
      <point x="1041.81051124" y="1416.0" type="curve" smooth="yes"/>
      <point x="1043.81051124" y="1416.0" type="line" smooth="yes"/>
      <point x="1096.09269492" y="1416.0"/>
      <point x="1132.69363753" y="1364.94623071"/>
      <point x="1115.90900286" y="1315.43155844" type="curve" smooth="yes"/>
      <point x="686.026940302" y="47.2794738915" type="line" smooth="yes"/>
      <point x="676.57935773" y="19.4091053021"/>
      <point x="649.506066342" y="2.50978302557e-15"/>
      <point x="620.077946087" y="6.11368835316e-15" type="curve" smooth="yes"/>
      <point x="569.922053913" y="-6.11368835316e-15" type="line" smooth="yes"/>
      <point x="540.493933658" y="-2.50978302557e-15"/>
      <point x="513.42064227" y="19.4091053021"/>
      <point x="503.973059698" y="47.2794738915" type="curve" smooth="yes"/>
      <point x="74.0909971396" y="1315.43155844" type="line" smooth="yes"/>
      <point x="57.306362471" y="1364.94623071"/>
      <point x="93.9073050767" y="1416.0"/>
      <point x="146.189488765" y="1416.0" type="curve" smooth="yes"/>
    </contour>
  </outline>
</glyph>
